<svg width="125" height="81" viewBox="0 0 125 81" fill="none" xmlns="http://www.w3.org/2000/svg">
<g clip-path="url(#clip0_6377_973)">
<path d="M54.6942 -0.00195312C56.94 9.86231 67.9893 24.6778 81.971 25.8025L69.2588 -0.00195312H54.6942ZM65.3557 24.165C70.4871 27.4321 75.577 30.6728 84.368 30.6736L90.8707 43.8701H83.8264C72.0915 43.8701 66.1585 40.1386 60.5488 36.6102C55.0188 33.1322 49.8029 29.8517 39.653 30.5378L46.0798 17.498C55.0458 17.6008 60.2216 20.8961 65.3557 24.165ZM34.12 43.8704C34.12 38.9436 38.0768 34.9498 42.9582 34.9498H42.9616C47.8429 34.9498 51.7997 38.9436 51.7997 43.8704H34.12ZM15.7088 78.5986C15.7088 77.7072 15.188 76.9517 14.26 76.6905C14.9499 76.4154 15.426 75.7991 15.426 74.9426C15.426 73.7552 14.5774 72.8639 12.4938 72.8639H9.51668V80.8931H12.687C14.7706 80.8931 15.7088 80.0262 15.7088 78.5986ZM11.0483 74.1766H12.473V74.18C13.4942 74.18 13.9116 74.5909 13.9116 75.2176C13.9116 75.8444 13.4804 76.21 12.5869 76.21H11.0483V74.1766ZM12.6766 77.4669C13.7184 77.4669 14.1703 77.8883 14.1703 78.4942C14.1703 79.1696 13.6736 79.5805 12.6766 79.5805H11.0449V77.4669H12.6766ZM17.0441 77.4426V72.8639H18.6068V77.568C18.6068 78.6543 19.2415 79.5665 20.5525 79.5665C21.8633 79.5665 22.4878 78.6543 22.4878 77.568V72.8639H24.0366V77.4426C24.0366 79.7615 22.6465 80.9942 20.5386 80.9942C18.4308 80.9942 17.0407 79.7615 17.0407 77.4426H17.0441ZM31.7778 80.8931C34.292 80.8931 35.9546 79.2818 35.9554 76.8733C35.9546 74.4613 34.2885 72.8639 31.7778 72.8639H28.711V80.8931H31.7778ZM31.7088 74.2566C33.3716 74.2566 34.3686 75.3082 34.3686 76.8959C34.3686 78.4628 33.3716 79.5004 31.7088 79.5004H30.2702V74.2566H31.7088ZM44.5591 72.8639V80.8931H42.9963V77.568H38.9222V80.8931H37.3595V72.8639H38.9222V76.1752H42.9963V72.8639H44.5591ZM61.1863 78.5986C61.1863 77.7072 60.6653 76.9517 59.7374 76.6905C60.4274 76.4154 60.9034 75.7991 60.9034 74.9426C60.9034 73.7552 60.0547 72.8639 57.9711 72.8639H54.9941V80.8931H58.1643C60.2479 80.8931 61.1863 80.0262 61.1863 78.5986ZM56.5257 74.1766H57.9505V74.18C58.9716 74.18 59.389 74.5909 59.389 75.2176C59.389 75.8444 58.9577 76.21 58.0643 76.21H56.5257V74.1766ZM58.1539 77.4669C59.1958 77.4669 59.6477 77.8883 59.6477 78.4942C59.6477 79.1696 59.1509 79.5805 58.1539 79.5805H56.5257V77.4669H58.1539ZM64.2189 72.8639H62.6562V80.8931H64.2189V72.8639ZM77.5134 72.8639H79.0762V80.8931H77.5134V72.8639ZM85.41 80.8931L83.861 78.5986H82.4914V80.8931H80.9288V72.8639H83.7679C85.7032 72.8639 86.9933 73.9711 86.9933 75.7643C86.9933 76.9064 86.4172 77.7769 85.4306 78.2434L87.252 80.8931H85.41ZM82.4914 77.2163H83.6333C84.6855 77.2163 85.3755 76.6453 85.3755 75.7643C85.3755 74.8033 84.6751 74.2462 83.6437 74.2462H82.488V77.2163H82.4914ZM91.2093 78.5846C93.1791 78.5742 94.5245 77.5018 94.5245 75.7643C94.5245 73.9955 93.2033 72.8639 91.2784 72.8639H88.4702V80.8931H90.033V78.5846H91.2093ZM91.1956 74.2566C92.2822 74.2566 92.9169 74.9286 92.9169 75.74V75.7434C92.9169 76.5304 92.3029 77.1814 91.1956 77.1814H90.0295V74.2566H91.1956ZM95.3313 76.8963C95.3313 74.5669 97.1078 72.7598 99.5399 72.7598C101.972 72.7598 103.704 74.5182 103.704 76.8963C103.704 79.2745 101.951 80.998 99.5399 80.998C97.1285 80.998 95.3313 79.2153 95.3313 76.8963ZM102.11 76.8963C102.11 75.3643 101.013 74.2222 99.5399 74.2222C98.0669 74.2222 96.925 75.3783 96.925 76.8963C96.925 78.4144 98.0359 79.5461 99.5399 79.5461C101.044 79.5461 102.11 78.4144 102.11 76.8963ZM108.033 78.5986L109.582 80.8931H111.424L109.603 78.2434C110.589 77.7769 111.165 76.9064 111.165 75.7643C111.165 73.9711 109.875 72.8639 107.94 72.8639H105.101V80.8931H106.664V78.5986H108.033ZM107.805 77.2163H106.664H106.66V74.2462H107.816C108.844 74.2462 109.548 74.8033 109.548 75.7643C109.548 76.6453 108.858 77.2163 107.805 77.2163ZM118.641 74.2566H116.006V80.8931H114.443V74.2566H111.794V72.8639H118.641V74.2566ZM119.079 80.0201L119.858 78.7697C120.573 79.3512 121.363 79.6263 122.201 79.6263C122.912 79.6263 123.447 79.3163 123.447 78.6652C123.447 78.0141 122.995 77.7391 121.804 77.4082C120.459 77.0322 119.406 76.5064 119.406 75.0997C119.406 73.693 120.559 72.7565 122.27 72.7565C123.435 72.7565 124.305 73.0872 124.93 73.5782L124.216 74.7655C123.674 74.3651 123.064 74.1248 122.259 74.1248C121.535 74.1248 120.993 74.3999 120.993 74.9918C120.993 75.5837 121.515 75.7579 122.612 76.0886C123.957 76.489 124.999 77.0148 124.999 78.5573C124.999 80.0998 123.877 80.9911 122.18 80.9911C120.856 80.9911 119.873 80.6362 119.079 80.0201ZM6.99845 80.8931H8.59566L4.63887 72.8639H3.95237L-0.000976562 80.8931H1.59623L2.36207 79.3402H6.23263L6.99845 80.8931ZM3.02095 78.0032L4.29735 75.4092L5.57373 78.0032H3.02095ZM54.0731 80.8931H52.4759H52.4725L51.7066 79.3402H47.8361L47.0702 80.8931H45.473L49.4298 72.8639H50.1163L54.0731 80.8931ZM49.7748 75.4092L48.4985 78.0032H51.0511L49.7748 75.4092ZM74.9987 80.8931H76.5959L72.6391 72.8639H71.9526L67.9958 80.8931H69.593L70.3588 79.3402H74.2294L74.9952 80.8931H74.9987ZM71.0211 78.0032L72.2976 75.4092L73.5739 78.0032H71.0211ZM62.8114 57.4217C62.7665 57.3034 62.7459 57.1814 62.7459 57.0561V57.0526C62.7459 56.4712 63.2115 56.0011 63.7876 56.0011H64.3017V56.6905H63.7876C63.5875 56.6905 63.4255 56.8541 63.4255 57.0561C63.4255 57.258 63.5875 57.4217 63.7876 57.4217H64.3017V58.1111H62.5699V57.4217H62.8114ZM64.2189 58.6893H62.6562V66.0501H64.2189V58.6893ZM118.776 63.0204C118.807 61.3142 120.187 59.9389 121.884 59.9389H121.887C123.602 59.9389 124.999 61.3491 124.999 63.0795C124.999 64.81 123.602 66.2202 121.887 66.2202C121.008 66.2202 120.214 65.8476 119.649 65.2558C119.19 65.7432 118.545 66.0497 117.827 66.0497H89.5948V57.7243H91.1575V64.6568H106.502V57.7243H108.064V60.6944L110.879 60.0468C111.166 59.9841 111.462 59.9494 111.752 59.9494C112.663 59.9494 113.521 60.2696 114.178 60.8511C115.001 61.5823 115.474 62.6373 115.474 63.7445V64.6568H117.831C118.352 64.6568 118.776 64.2286 118.776 63.7028V63.0204ZM120.335 63.083C120.335 63.9187 120.818 64.817 121.884 64.817C122.947 64.817 123.433 63.9187 123.433 63.083C123.433 62.2474 122.947 61.3491 121.884 61.3491C120.822 61.3491 120.335 62.2474 120.335 63.083ZM113.905 64.6603V63.5635L113.901 63.567C113.901 62.9124 113.622 62.2891 113.135 61.8574C112.767 61.5301 112.274 61.3491 111.746 61.3491C111.569 61.3491 111.393 61.3664 111.217 61.4083L108.058 62.1324V64.6603H113.905ZM86.552 65.4821C86.552 66.3457 85.8552 67.0455 85.003 67.0455H84.9444V68.4522H85.003C86.7763 68.4522 88.1147 67.1743 88.1147 65.4821V59.9563H86.552V65.4821ZM71.1107 64.6604H79.3452V59.9563H80.908V66.0531H71.1107C69.3962 66.0531 67.9991 64.6465 67.9991 62.9125V61.3491H69.5619V63.097C69.5619 63.957 70.2553 64.6604 71.1107 64.6604ZM84.1888 57.7285H82.626V66.0502H84.1888V57.7285ZM39.2876 59.9534C40.1984 59.9534 41.0573 60.2737 41.7128 60.8552H41.7093C42.5337 61.5864 43.0064 62.6414 43.0064 63.7487V66.0537H14.7948V61.3462H14.4533C13.6011 61.3462 12.9044 62.046 12.9044 62.9096V66.0502H3.11065C1.39271 66.0502 -0.000976562 64.6435 -0.000976562 62.9096V61.3113H1.56174V63.0941C1.56174 63.9541 2.25513 64.6575 3.11065 64.6575H11.3451V63.0801C11.3451 61.3496 12.7422 59.9534 14.4567 59.9534H16.361V64.661H28.9971V59.9534H30.5598V64.661H34.0441V57.7285H35.6034V60.6985L38.4183 60.0508C38.7011 59.9882 38.9944 59.9534 39.2876 59.9534ZM41.4471 64.661V63.5641L41.4437 63.5676C41.4437 62.913 41.1642 62.2898 40.6778 61.858C40.3087 61.5306 39.8154 61.3496 39.2876 61.3496C39.1116 61.3496 38.9357 61.3671 38.7598 61.4088L35.5999 62.1331V64.661H41.4471ZM75.6442 60.9039C76.1306 60.9039 76.5274 60.5035 76.5274 60.0126C76.5274 59.5216 76.1306 59.1212 75.6442 59.1212C75.1578 59.1212 74.7611 59.5216 74.7611 60.0126C74.7611 60.5035 75.1578 60.9039 75.6442 60.9039ZM74.1436 60.0126C74.1436 60.5035 73.7468 60.9039 73.2604 60.9039C72.774 60.9039 72.3773 60.5035 72.3773 60.0126C72.3773 59.5216 72.774 59.1212 73.2604 59.1212C73.7468 59.1212 74.1436 59.5216 74.1436 60.0126ZM8.37513 67.0875C7.88872 67.0875 7.492 67.4879 7.492 67.9788C7.492 68.4698 7.88872 68.8702 8.37513 68.8702C8.86153 68.8702 9.25825 68.4698 9.25825 67.9788C9.25825 67.4879 8.86498 67.0875 8.37513 67.0875ZM5.10821 67.9788C5.10821 67.4879 5.50493 67.0875 5.99133 67.0875C6.47774 67.0875 6.87446 67.4879 6.87446 67.9788C6.87446 68.4698 6.47774 68.8702 5.99133 68.8702C5.50493 68.8702 5.10821 68.4698 5.10821 67.9788ZM29.7767 67.0875C29.2903 67.0875 28.8936 67.4879 28.8936 67.9788C28.8936 68.4698 29.2903 68.8702 29.7767 68.8702C30.2631 68.8702 30.6598 68.4698 30.6598 67.9788C30.6598 67.4879 30.2631 67.0875 29.7767 67.0875ZM38.5841 58.0901C38.5841 58.581 38.1873 58.9814 37.7009 58.9814C37.2145 58.9814 36.8178 58.581 36.8178 58.0901C36.8178 57.5991 37.2145 57.1987 37.7009 57.1987C38.1873 57.1987 38.5841 57.5991 38.5841 58.0901ZM60.2688 67.0875C59.7824 67.0875 59.3856 67.4879 59.3856 67.9788C59.3856 68.4698 59.7824 68.8702 60.2688 68.8702C60.7553 68.8702 61.1519 68.4698 61.1519 67.9788C61.1519 67.4879 60.7586 67.0875 60.2688 67.0875ZM59.4892 64.6605V59.953L59.4925 59.9564H61.0553V66.0533H51.1857V66.2447C51.1857 67.5574 50.1302 68.4523 48.8296 68.4523H47.3187V67.0456H48.8296C49.2677 67.0456 49.623 66.687 49.623 66.2447V66.0533H48.157C46.4872 66.0533 45.128 64.6813 45.128 62.9961C45.128 61.3108 46.4872 59.953 48.157 59.953H51.1823V64.6605H59.4892ZM48.3225 64.6605H49.6196V61.3457H48.3225C47.4187 61.3457 46.6873 62.0838 46.6873 62.9961C46.6873 63.9083 47.4221 64.6605 48.3225 64.6605Z" fill="#110C71"/>
</g>
<defs>
<clipPath id="clip0_6377_973">
<rect width="125" height="81" fill="white"/>
</clipPath>
</defs>
</svg>
