<svg width="126" height="72" viewBox="0 0 126 72" fill="none" xmlns="http://www.w3.org/2000/svg">
<g clip-path="url(#clip0_6377_914)">
<path d="M117.34 55.7852H0.0839844V71.4741H117.34V55.7852Z" fill="#2B2B6B"/>
<path d="M3.40723 66.5607V59.561H5.93765C6.41274 59.561 6.81033 59.6386 7.13043 59.7955C7.4488 59.9524 7.68805 60.1662 7.84809 60.4351C8.00812 60.7058 8.08734 61.0093 8.08734 61.3506C8.08734 61.6919 8.01153 62.0006 7.8633 62.2402C7.71333 62.4798 7.51622 62.6643 7.27197 62.7954C7.02766 62.9264 6.76484 63.0005 6.48518 63.0195L6.62165 62.9195C6.92152 62.9264 7.19445 63.0074 7.44207 63.1643C7.68972 63.3212 7.88517 63.5298 8.0284 63.7884C8.17156 64.0488 8.24405 64.3349 8.24405 64.6487C8.24405 65.009 8.15976 65.3332 7.98966 65.6245C7.81949 65.9142 7.57017 66.1435 7.23825 66.309C6.90636 66.4762 6.49866 66.559 6.01683 66.559H3.40723V66.5607ZM4.38436 62.5798H5.82983C6.2409 62.5798 6.55257 62.4816 6.76821 62.2851C6.98385 62.0885 7.08999 61.8161 7.08999 61.4696C7.08999 61.123 6.98217 60.8713 6.76821 60.6748C6.55257 60.4782 6.23079 60.3799 5.80119 60.3799H4.38436V62.5798ZM4.38436 65.7297H5.8888C6.3184 65.7297 6.65197 65.628 6.8912 65.4246C7.12874 65.2211 7.24836 64.9332 7.24836 64.5591C7.24836 64.185 7.12706 63.8987 6.88277 63.6798C6.63849 63.4591 6.30155 63.3505 5.87195 63.3505H4.38604V65.7297H4.38436Z" fill="white"/>
<path d="M11.5864 66.6795C11.118 66.6795 10.7002 66.5691 10.3363 66.3502C9.97074 66.1295 9.68601 65.8244 9.48217 65.4295C9.27666 65.0364 9.17383 64.5796 9.17383 64.0589C9.17383 63.5382 9.27666 63.0607 9.48217 62.6641C9.68768 62.2676 9.97241 61.9573 10.3363 61.7348C10.7019 61.5124 11.1247 61.4004 11.6066 61.4004C12.0884 61.4004 12.5028 61.5107 12.8482 61.7297C13.1936 61.9504 13.4598 62.2417 13.6502 62.6037C13.8388 62.9676 13.9332 63.3692 13.9332 63.8089C13.9332 63.8762 13.9332 63.9468 13.9281 64.0244C13.9248 64.102 13.9197 64.1865 13.9129 64.2796H9.88653V63.5693H12.9543C12.9341 63.1486 12.7976 62.821 12.5432 62.5848C12.2889 62.3486 11.9739 62.2296 11.5948 62.2296C11.3269 62.2296 11.0827 62.2917 10.8619 62.4141C10.6396 62.5383 10.4626 62.7176 10.3296 62.9538C10.1965 63.19 10.1291 63.4882 10.1291 63.8485V64.1279C10.1291 64.502 10.1965 64.8158 10.3296 65.0726C10.4626 65.3295 10.6412 65.5226 10.8619 65.6519C11.0827 65.7812 11.3236 65.8468 11.5847 65.8468C11.898 65.8468 12.1541 65.776 12.3563 65.6364C12.5584 65.4968 12.7083 65.3071 12.8061 65.0657H13.7832C13.699 65.3726 13.5558 65.6467 13.3536 65.8898C13.1514 66.1329 12.9021 66.3243 12.6056 66.464C12.3091 66.6036 11.9688 66.6742 11.5847 66.6742L11.5864 66.6795Z" fill="white"/>
<path d="M16.9896 66.5609C16.683 66.5609 16.4168 66.5109 16.1877 66.4109C15.9585 66.3109 15.7834 66.1437 15.6603 65.9109C15.5357 65.6782 15.475 65.361 15.475 64.961V62.3714H14.626V61.5215H15.475L15.593 60.2612H16.4522V61.5215H17.8488V62.3714H16.4522V64.9713C16.4522 65.2575 16.5111 65.4524 16.6273 65.5558C16.7453 65.6592 16.9458 65.711 17.2339 65.711H17.7999V66.5609H16.9896Z" fill="white"/>
<path d="M20.9474 66.5609C20.6407 66.5609 20.3746 66.5109 20.1454 66.4109C19.918 66.3109 19.7411 66.1437 19.6181 65.9109C19.4951 65.6782 19.4327 65.361 19.4327 64.961V62.3714H18.582V61.5215H19.4327L19.5507 60.2612H20.4099V61.5215H21.8065V62.3714H20.4099V64.9713C20.4099 65.2575 20.4688 65.4524 20.5851 65.5558C20.703 65.6592 20.9035 65.711 21.1916 65.711H21.7593V66.5609H20.949H20.9474Z" fill="white"/>
<path d="M24.9623 66.6794C24.494 66.6794 24.0761 66.5691 23.7123 66.3501C23.3467 66.1295 23.062 65.8243 22.8581 65.4295C22.6526 65.0364 22.5498 64.5795 22.5498 64.0589C22.5498 63.5382 22.6526 63.0607 22.8581 62.6641C23.0637 62.2676 23.3484 61.9572 23.7123 61.7348C24.0779 61.5124 24.5007 61.4004 24.9825 61.4004C25.4644 61.4004 25.8788 61.5107 26.2242 61.7297C26.5695 61.9503 26.8357 62.2417 27.0261 62.6037C27.2148 62.9675 27.3091 63.3692 27.3091 63.8089C27.3091 63.8761 27.3091 63.9468 27.3041 64.0244C27.3007 64.1019 27.2957 64.1864 27.2889 64.2795H23.2624V63.5692H26.3303C26.3101 63.1485 26.1736 62.821 25.9192 62.5848C25.6648 62.3486 25.3498 62.2296 24.9707 62.2296C24.7029 62.2296 24.4586 62.2917 24.2379 62.4141C24.0155 62.5382 23.8386 62.7176 23.7055 62.9538C23.5724 63.19 23.505 63.4882 23.505 63.8485V64.1278C23.505 64.5019 23.5724 64.8157 23.7055 65.0726C23.8386 65.3295 24.0172 65.5225 24.2379 65.6518C24.4586 65.7811 24.6995 65.8467 24.9606 65.8467C25.274 65.8467 25.5301 65.776 25.7322 65.6363C25.9344 65.4968 26.0843 65.3071 26.1821 65.0657H27.1592C27.0749 65.3726 26.9317 65.6467 26.7296 65.8898C26.5274 66.1329 26.2781 66.3242 25.9816 66.4639C25.685 66.6036 25.3448 66.6742 24.9606 66.6742L24.9623 66.6794Z" fill="white"/>
<path d="M28.4412 66.5607V61.5213H29.3206L29.4082 62.4712C29.5194 62.2454 29.6626 62.0523 29.8378 61.8972C30.013 61.742 30.2202 61.6196 30.4578 61.5316C30.6953 61.4455 30.9682 61.4023 31.2732 61.4023V62.4627H30.9211C30.7189 62.4627 30.5269 62.4885 30.3449 62.5385C30.1629 62.5885 30.0012 62.673 29.8614 62.7936C29.7215 62.9143 29.6121 63.0764 29.5346 63.2833C29.457 63.4902 29.4166 63.747 29.4166 64.0539V66.5642H28.4395L28.4412 66.5607Z" fill="white"/>
<path d="M34.667 66.5607V59.561H35.6441V65.771H38.771V66.5607H34.667Z" fill="white"/>
<path d="M40.4401 60.571C40.2515 60.571 40.0965 60.5107 39.9752 60.3918C39.8539 60.2711 39.7949 60.1193 39.7949 59.9314C39.7949 59.7435 39.8555 59.6039 39.9752 59.4866C40.0948 59.3694 40.2498 59.3125 40.4401 59.3125C40.6305 59.3125 40.7754 59.3711 40.9001 59.4866C41.0231 59.6039 41.0854 59.7521 41.0854 59.9314C41.0854 60.1107 41.0231 60.2711 40.9001 60.3918C40.7754 60.5125 40.6238 60.571 40.4401 60.571ZM39.9432 66.5604V61.521H40.9203V66.5604H39.9432Z" fill="white"/>
<path d="M43.743 66.5607L41.8965 61.5212H42.9225L44.3191 65.6003L45.7259 61.5212H46.7316L44.8953 66.5607H43.743Z" fill="white"/>
<path d="M48.1592 60.571C47.9705 60.571 47.8155 60.5107 47.6959 60.3918C47.5746 60.2711 47.5156 60.1193 47.5156 59.9314C47.5156 59.7435 47.5762 59.6039 47.6959 59.4866C47.8155 59.3694 47.9705 59.3125 48.1592 59.3125C48.3479 59.3125 48.4944 59.3711 48.6191 59.4866C48.7421 59.6039 48.8044 59.7521 48.8044 59.9314C48.8044 60.1107 48.7421 60.2711 48.6191 60.3918C48.4961 60.5125 48.3428 60.571 48.1592 60.571ZM47.6622 66.5604V61.521H48.6393V66.5604H47.6622Z" fill="white"/>
<path d="M50.0645 66.5604V61.521H50.9439L51.0029 62.3814C51.1595 62.0814 51.3802 61.8434 51.6666 61.6658C51.953 61.49 52.2815 61.4004 52.6538 61.4004C53.0447 61.4004 53.38 61.4797 53.6597 61.64C53.9393 61.8004 54.1583 62.0417 54.315 62.3659C54.4716 62.6899 54.5492 63.0934 54.5492 63.5813V66.5604H53.572V63.6812C53.572 63.2141 53.4709 62.8607 53.2688 62.621C53.0666 62.3814 52.7734 62.2606 52.3894 62.2606C52.135 62.2606 51.9075 62.3227 51.7053 62.4451C51.5032 62.5693 51.3415 62.7503 51.2218 62.9899C51.1022 63.2296 51.0416 63.5227 51.0416 63.8692V66.5588H50.0645V66.5604Z" fill="white"/>
<path d="M57.8324 68.8793C57.3826 68.8793 56.9849 68.8207 56.6396 68.7052C56.2942 68.588 56.0281 68.4104 55.8377 68.1707C55.649 67.9311 55.5547 67.638 55.5547 67.2915C55.5547 67.1121 55.5934 66.9294 55.6726 66.7467C55.7501 66.5639 55.8781 66.3881 56.0533 66.2226C56.2286 66.0553 56.4678 65.9053 56.766 65.7726L57.3135 66.2226C56.9816 66.3484 56.7575 66.5001 56.6447 66.6777C56.5301 66.8535 56.4745 67.0259 56.4745 67.1932C56.4745 67.3931 56.5334 67.5604 56.6497 67.6932C56.7676 67.8259 56.9277 67.9259 57.1332 67.9932C57.3387 68.0604 57.5713 68.0932 57.8324 68.0932C58.0935 68.0932 58.3075 68.0569 58.4961 67.9828C58.6848 67.9087 58.8314 67.8052 58.9358 67.6725C59.0403 67.5397 59.0925 67.3829 59.0925 67.2018C59.0925 66.988 59.015 66.8105 58.8583 66.6673C58.7017 66.5242 58.4018 66.4398 57.9587 66.4122C57.5881 66.3863 57.2731 66.3484 57.0153 66.3018C56.7576 66.2553 56.5402 66.1984 56.3599 66.1312C56.1814 66.0639 56.0315 65.9915 55.9101 65.9105C55.7905 65.8312 55.6877 65.7467 55.6018 65.6605V65.4312L56.579 64.4019L57.3708 64.6812L56.3061 65.6915L56.5116 65.2416C56.5823 65.2881 56.6514 65.3329 56.7171 65.376C56.7828 65.4192 56.8704 65.4571 56.9816 65.4915C57.0928 65.5243 57.2427 65.5553 57.4314 65.5812C57.6201 65.607 57.8677 65.6347 58.1744 65.6605C58.6174 65.6933 58.9746 65.7743 59.2442 65.9002C59.5137 66.0277 59.7108 66.1967 59.8355 66.4105C59.9601 66.6242 60.0208 66.8777 60.0208 67.1708C60.0208 67.4638 59.9433 67.7311 59.7917 67.9914C59.6384 68.2518 59.4008 68.4655 59.0791 68.631C58.7573 68.7982 58.3412 68.881 57.8324 68.881V68.8793ZM57.8324 65.0105C57.4146 65.0105 57.0625 64.9313 56.7727 64.7709C56.483 64.6106 56.2606 64.3951 56.1089 64.1209C55.9556 63.8485 55.8798 63.5451 55.8798 63.2106C55.8798 62.8762 55.9573 62.5658 56.1089 62.2952C56.2622 62.0244 56.4846 61.809 56.7778 61.6452C57.0709 61.4814 57.423 61.4004 57.8324 61.4004C58.2417 61.4004 58.5922 61.4814 58.8836 61.6452C59.1734 61.809 59.3958 62.0244 59.5474 62.2952C59.7007 62.5658 59.7766 62.8693 59.7766 63.2106C59.7766 63.5519 59.699 63.8468 59.5474 64.1209C59.3941 64.3951 59.1734 64.6106 58.8836 64.7709C58.5939 64.9313 58.2434 65.0105 57.8324 65.0105ZM57.8324 64.2106C58.1508 64.2106 58.4052 64.1261 58.5939 63.9554C58.7825 63.7847 58.8769 63.5364 58.8769 63.2106C58.8769 62.8848 58.7825 62.6365 58.5939 62.4658C58.4052 62.2952 58.1508 62.2107 57.8324 62.2107C57.514 62.2107 57.2562 62.2952 57.0607 62.4658C56.8654 62.6365 56.7676 62.8848 56.7676 63.2106C56.7676 63.5364 56.8654 63.7847 57.0607 63.9554C57.2562 64.1261 57.514 64.2106 57.8324 64.2106ZM58.6343 62.3107L58.4001 61.521H60.4234V62.2107L58.636 62.3107H58.6343Z" fill="white"/>
<path d="M63.8232 66.5607V59.561H68.1429V60.3817H64.8004V62.6213H67.8497V63.4212H64.8004V65.7418H68.1429V66.5624H63.8232V66.5607Z" fill="white"/>
<path d="M68.8848 66.5606L70.5846 64.04L68.8848 61.5195H69.9393L71.2298 63.4798L72.5286 61.5195H73.575L71.8751 64.04L73.575 66.5606H72.5286L71.2298 64.59L69.9393 66.5606H68.8848Z" fill="white"/>
<path d="M74.5322 68.7606V61.5213H75.412L75.5098 62.3006C75.6141 62.1471 75.7437 62.0023 75.9001 61.8661C76.0572 61.7299 76.2441 61.6178 76.4613 61.5316C76.6785 61.4455 76.9349 61.4023 77.2282 61.4023C77.696 61.4023 78.1087 61.5196 78.4643 61.7523C78.8198 61.985 79.0964 62.3006 79.2949 62.6971C79.494 63.0936 79.5932 63.5454 79.5932 64.0522C79.5932 64.5591 79.4918 65.0108 79.2898 65.4073C79.0878 65.8038 78.8097 66.1159 78.4541 66.3418C78.0986 66.5676 77.688 66.6814 77.218 66.6814C76.8335 66.6814 76.4953 66.6021 76.2021 66.4469C75.9088 66.2917 75.6778 66.0728 75.5076 65.7918V68.7624H74.5308L74.5322 68.7606ZM77.0631 65.8107C77.3629 65.8107 77.6272 65.7366 77.8596 65.5901C78.0906 65.4435 78.2738 65.2366 78.4071 64.9694C78.5403 64.7021 78.6077 64.3936 78.6077 64.0401C78.6077 63.6867 78.5403 63.3781 78.4071 63.1143C78.2738 62.8506 78.0906 62.6437 77.8596 62.4937C77.6286 62.3437 77.3629 62.2695 77.0631 62.2695C76.7626 62.2695 76.4881 62.3437 76.2571 62.4937C76.0268 62.6437 75.8443 62.8506 75.7147 63.1143C75.5851 63.3781 75.5192 63.6867 75.5192 64.0401C75.5192 64.3936 75.5851 64.7039 75.7147 64.9694C75.8443 65.2366 76.0268 65.4435 76.2571 65.5901C76.4881 65.7366 76.7575 65.8107 77.0631 65.8107Z" fill="white"/>
<path d="M83.0149 66.6794C82.5463 66.6794 82.1285 66.5691 81.7643 66.3501C81.3986 66.1295 81.114 65.8243 80.9083 65.4295C80.7034 65.0347 80.6006 64.5795 80.6006 64.0589C80.6006 63.5382 80.7034 63.0607 80.9083 62.6641C81.114 62.2676 81.3986 61.9572 81.7643 61.7348C82.13 61.5124 82.5529 61.4004 83.0344 61.4004C83.5167 61.4004 83.9309 61.5107 84.2763 61.7297C84.6217 61.9503 84.8882 62.2417 85.0787 62.6037C85.2669 62.9675 85.3611 63.3692 85.3611 63.8089C85.3611 63.8761 85.3611 63.9468 85.356 64.0244C85.3531 64.1019 85.348 64.1864 85.3408 64.2795H81.3146V63.5692H84.3828C84.3625 63.1485 84.2256 62.821 83.9714 62.5848C83.7173 62.3486 83.4023 62.2296 83.025 62.2296C82.7571 62.2296 82.5123 62.2917 82.2914 62.4141C82.0691 62.5382 81.8924 62.7176 81.7592 62.9538C81.6267 63.19 81.5586 63.4882 81.5586 63.8485V64.1278C81.5586 64.5019 81.6267 64.8157 81.7592 65.0726C81.8924 65.3295 82.0713 65.5225 82.2914 65.6518C82.5123 65.7811 82.7549 65.8467 83.0149 65.8467C83.3277 65.8467 83.584 65.776 83.7861 65.6363C83.9881 65.4968 84.138 65.3071 84.2358 65.0657H85.2133C85.1286 65.3726 84.986 65.6467 84.7832 65.8898C84.5812 66.1329 84.3321 66.3242 84.0352 66.4639C83.739 66.6036 83.3987 66.6742 83.0149 66.6742V66.6794Z" fill="white"/>
<path d="M86.4944 66.5607V61.5213H87.3735L87.4611 62.4712C87.5726 62.2454 87.7153 62.0523 87.8905 61.8972C88.0657 61.7402 88.2736 61.6196 88.5111 61.5316C88.7486 61.4455 89.0209 61.4023 89.3265 61.4023V62.4627H88.9738C88.7718 62.4627 88.5799 62.4885 88.3981 62.5385C88.2156 62.5885 88.0542 62.673 87.9144 62.7936C87.7746 62.9143 87.6653 63.0764 87.5878 63.2833C87.5103 63.4902 87.4698 63.747 87.4698 64.0539V66.5642H86.4922L86.4944 66.5607Z" fill="white"/>
<path d="M90.7722 60.571C90.5832 60.571 90.4282 60.5107 90.3073 60.3918C90.1856 60.2711 90.127 60.1193 90.127 59.9314C90.127 59.7435 90.1878 59.6039 90.3073 59.4866C90.4267 59.3694 90.5817 59.3125 90.7722 59.3125C90.9626 59.3125 91.1074 59.3711 91.232 59.4866C91.3551 59.6039 91.4174 59.7521 91.4174 59.9314C91.4174 60.1107 91.3551 60.2711 91.232 60.3918C91.1074 60.5125 90.9561 60.571 90.7722 60.571ZM90.2732 66.5604V61.521H91.2508V66.5604H90.2732Z" fill="white"/>
<path d="M94.9053 66.6794C94.4375 66.6794 94.0196 66.5691 93.6554 66.3501C93.2897 66.1295 93.0051 65.8243 92.7995 65.4295C92.5938 65.0347 92.4917 64.5795 92.4917 64.0589C92.4917 63.5382 92.5938 63.0607 92.7995 62.6641C93.0051 62.2676 93.2897 61.9572 93.6554 61.7348C94.0211 61.5124 94.444 61.4004 94.9255 61.4004C95.4078 61.4004 95.822 61.5107 96.1674 61.7297C96.5128 61.9503 96.7786 62.2417 96.969 62.6037C97.158 62.9675 97.2522 63.3692 97.2522 63.8089C97.2522 63.8761 97.2522 63.9468 97.2471 64.0244C97.2442 64.1019 97.2391 64.1864 97.2319 64.2795H93.2057V63.5692H96.2739C96.2536 63.1485 96.1167 62.821 95.8626 62.5848C95.6084 62.3486 95.2934 62.2296 94.9154 62.2296C94.6475 62.2296 94.4034 62.2917 94.1826 62.4141C93.9603 62.5382 93.7836 62.7176 93.6503 62.9538C93.5171 63.19 93.4497 63.4882 93.4497 63.8485V64.1278C93.4497 64.5019 93.5171 64.8157 93.6503 65.0726C93.7836 65.3295 93.9624 65.5225 94.1826 65.6518C94.4034 65.7811 94.646 65.8467 94.9053 65.8467C95.2188 65.8467 95.4752 65.776 95.6772 65.6363C95.8792 65.4968 96.0291 65.3071 96.1269 65.0657H97.1045C97.0197 65.3726 96.8764 65.6467 96.6743 65.8898C96.4723 66.1329 96.2232 66.3242 95.9263 66.4639C95.6301 66.6036 95.2898 66.6742 94.9053 66.6742V66.6794Z" fill="white"/>
<path d="M98.3833 66.5604V61.521H99.2631L99.3218 62.3814C99.4789 62.0814 99.6991 61.8434 99.9858 61.6658C100.272 61.49 100.601 61.4004 100.973 61.4004C101.364 61.4004 101.699 61.4797 101.979 61.64C102.258 61.8004 102.478 62.0417 102.634 62.3659C102.79 62.6899 102.868 63.0934 102.868 63.5813V66.5604H101.891V63.6812C101.891 63.2141 101.79 62.8607 101.588 62.621C101.386 62.3814 101.092 62.2606 100.709 62.2606C100.454 62.2606 100.226 62.3227 100.024 62.4451C99.8222 62.5693 99.6607 62.7503 99.5412 62.9899C99.4195 63.2296 99.3609 63.5227 99.3609 63.8692V66.5588H98.3833V66.5604Z" fill="white"/>
<path d="M106.426 66.6794C105.951 66.6794 105.526 66.5673 105.156 66.345C104.786 66.1226 104.494 65.8139 104.282 65.4192C104.069 65.026 103.963 64.5692 103.963 64.0485C103.963 63.5278 104.069 63.0607 104.282 62.6641C104.494 62.2676 104.786 61.9572 105.156 61.7348C105.528 61.5124 105.951 61.4004 106.426 61.4004C107.026 61.4004 107.526 61.5607 107.93 61.8796C108.335 62.2003 108.591 62.6331 108.702 63.1796H107.686C107.621 62.8865 107.472 62.6589 107.242 62.5003C107.011 62.34 106.734 62.2606 106.416 62.2606C106.155 62.2606 105.914 62.3296 105.694 62.4658C105.471 62.6021 105.294 62.802 105.161 63.0658C105.028 63.3295 104.961 63.6537 104.961 64.0416C104.961 64.3278 104.999 64.5829 105.079 64.8071C105.156 65.0312 105.262 65.2191 105.395 65.3726C105.528 65.526 105.683 65.6416 105.859 65.7174C106.034 65.795 106.221 65.8329 106.416 65.8329C106.632 65.8329 106.825 65.7984 106.997 65.7277C107.169 65.6571 107.316 65.5519 107.437 65.4123C107.558 65.2726 107.641 65.1054 107.686 64.9122H108.702C108.591 65.445 108.333 65.8743 107.93 66.1967C107.526 66.5208 107.025 66.6811 106.426 66.6811V66.6794Z" fill="white"/>
<path d="M112.094 66.6794C111.626 66.6794 111.208 66.5691 110.845 66.3501C110.479 66.1295 110.194 65.8243 109.989 65.4295C109.783 65.0364 109.68 64.5795 109.68 64.0589C109.68 63.5382 109.783 63.0607 109.989 62.6641C110.194 62.2676 110.479 61.9572 110.845 61.7348C111.21 61.5124 111.632 61.4004 112.115 61.4004C112.596 61.4004 113.01 61.5107 113.356 61.7297C113.701 61.9503 113.968 62.2417 114.158 62.6037C114.347 62.9675 114.441 63.3692 114.441 63.8089C114.441 63.8761 114.441 63.9468 114.436 64.0244C114.433 64.1019 114.428 64.1864 114.421 64.2795H110.394V63.5692H113.462C113.442 63.1485 113.306 62.821 113.051 62.5848C112.797 62.3486 112.482 62.2296 112.102 62.2296C111.834 62.2296 111.59 62.2917 111.37 62.4141C111.149 62.5382 110.971 62.7176 110.837 62.9538C110.704 63.19 110.637 63.4882 110.637 63.8485V64.1278C110.637 64.5019 110.704 64.8157 110.837 65.0726C110.971 65.3295 111.149 65.5225 111.37 65.6518C111.59 65.7811 111.833 65.8467 112.092 65.8467C112.406 65.8467 112.662 65.776 112.864 65.6363C113.066 65.4968 113.216 65.3071 113.314 65.0657H114.291C114.207 65.3726 114.063 65.6467 113.861 65.8898C113.659 66.1329 113.41 66.3242 113.113 66.4639C112.817 66.6036 112.477 66.6742 112.092 66.6742L112.094 66.6794Z" fill="white"/>
<path d="M3.40723 66.5607V59.561H5.93765C6.41274 59.561 6.81033 59.6386 7.13043 59.7955C7.4488 59.9524 7.68805 60.1662 7.84809 60.4351C8.00812 60.7058 8.08734 61.0093 8.08734 61.3506C8.08734 61.6919 8.01153 62.0006 7.8633 62.2402C7.71333 62.4798 7.51622 62.6643 7.27197 62.7954C7.02766 62.9264 6.76484 63.0005 6.48518 63.0195L6.62165 62.9195C6.92152 62.9264 7.19445 63.0074 7.44207 63.1643C7.68972 63.3212 7.88517 63.5298 8.0284 63.7884C8.17156 64.0488 8.24405 64.3349 8.24405 64.6487C8.24405 65.009 8.15976 65.3332 7.98966 65.6245C7.81949 65.9142 7.57017 66.1435 7.23825 66.309C6.90636 66.4762 6.49866 66.559 6.01683 66.559H3.40723V66.5607ZM4.38436 62.5798H5.82983C6.2409 62.5798 6.55257 62.4816 6.76821 62.2851C6.98385 62.0885 7.08999 61.8161 7.08999 61.4696C7.08999 61.123 6.98217 60.8713 6.76821 60.6748C6.55257 60.4782 6.23079 60.3799 5.80119 60.3799H4.38436V62.5798ZM4.38436 65.7297H5.8888C6.3184 65.7297 6.65197 65.628 6.8912 65.4246C7.12874 65.2211 7.24836 64.9332 7.24836 64.5591C7.24836 64.185 7.12706 63.8987 6.88277 63.6798C6.63849 63.4591 6.30155 63.3505 5.87195 63.3505H4.38604V65.7297H4.38436Z" fill="white"/>
<path d="M11.5864 66.6795C11.118 66.6795 10.7002 66.5691 10.3363 66.3502C9.97074 66.1295 9.68601 65.8244 9.48217 65.4295C9.27666 65.0364 9.17383 64.5796 9.17383 64.0589C9.17383 63.5382 9.27666 63.0607 9.48217 62.6641C9.68768 62.2676 9.97241 61.9573 10.3363 61.7348C10.7019 61.5124 11.1247 61.4004 11.6066 61.4004C12.0884 61.4004 12.5028 61.5107 12.8482 61.7297C13.1936 61.9504 13.4598 62.2417 13.6502 62.6037C13.8388 62.9676 13.9332 63.3692 13.9332 63.8089C13.9332 63.8762 13.9332 63.9468 13.9281 64.0244C13.9248 64.102 13.9197 64.1865 13.9129 64.2796H9.88653V63.5693H12.9543C12.9341 63.1486 12.7976 62.821 12.5432 62.5848C12.2889 62.3486 11.9739 62.2296 11.5948 62.2296C11.3269 62.2296 11.0827 62.2917 10.8619 62.4141C10.6396 62.5383 10.4626 62.7176 10.3296 62.9538C10.1965 63.19 10.1291 63.4882 10.1291 63.8485V64.1279C10.1291 64.502 10.1965 64.8158 10.3296 65.0726C10.4626 65.3295 10.6412 65.5226 10.8619 65.6519C11.0827 65.7812 11.3236 65.8468 11.5847 65.8468C11.898 65.8468 12.1541 65.776 12.3563 65.6364C12.5584 65.4968 12.7083 65.3071 12.8061 65.0657H13.7832C13.699 65.3726 13.5558 65.6467 13.3536 65.8898C13.1514 66.1329 12.9021 66.3243 12.6056 66.464C12.3091 66.6036 11.9688 66.6742 11.5847 66.6742L11.5864 66.6795Z" fill="white"/>
<path d="M16.9896 66.5609C16.683 66.5609 16.4168 66.5109 16.1877 66.4109C15.9585 66.3109 15.7834 66.1437 15.6603 65.9109C15.5357 65.6782 15.475 65.361 15.475 64.961V62.3714H14.626V61.5215H15.475L15.593 60.2612H16.4522V61.5215H17.8488V62.3714H16.4522V64.9713C16.4522 65.2575 16.5111 65.4524 16.6273 65.5558C16.7453 65.6592 16.9458 65.711 17.2339 65.711H17.7999V66.5609H16.9896Z" fill="white"/>
<path d="M20.9474 66.5609C20.6407 66.5609 20.3746 66.5109 20.1454 66.4109C19.918 66.3109 19.7411 66.1437 19.6181 65.9109C19.4951 65.6782 19.4327 65.361 19.4327 64.961V62.3714H18.582V61.5215H19.4327L19.5507 60.2612H20.4099V61.5215H21.8065V62.3714H20.4099V64.9713C20.4099 65.2575 20.4688 65.4524 20.5851 65.5558C20.703 65.6592 20.9035 65.711 21.1916 65.711H21.7593V66.5609H20.949H20.9474Z" fill="white"/>
<path d="M24.9623 66.6794C24.494 66.6794 24.0761 66.5691 23.7123 66.3501C23.3467 66.1295 23.062 65.8243 22.8581 65.4295C22.6526 65.0364 22.5498 64.5795 22.5498 64.0589C22.5498 63.5382 22.6526 63.0607 22.8581 62.6641C23.0637 62.2676 23.3484 61.9572 23.7123 61.7348C24.0779 61.5124 24.5007 61.4004 24.9825 61.4004C25.4644 61.4004 25.8788 61.5107 26.2242 61.7297C26.5695 61.9503 26.8357 62.2417 27.0261 62.6037C27.2148 62.9675 27.3091 63.3692 27.3091 63.8089C27.3091 63.8761 27.3091 63.9468 27.3041 64.0244C27.3007 64.1019 27.2957 64.1864 27.2889 64.2795H23.2624V63.5692H26.3303C26.3101 63.1485 26.1736 62.821 25.9192 62.5848C25.6648 62.3486 25.3498 62.2296 24.9707 62.2296C24.7029 62.2296 24.4586 62.2917 24.2379 62.4141C24.0155 62.5382 23.8386 62.7176 23.7055 62.9538C23.5724 63.19 23.505 63.4882 23.505 63.8485V64.1278C23.505 64.5019 23.5724 64.8157 23.7055 65.0726C23.8386 65.3295 24.0172 65.5225 24.2379 65.6518C24.4586 65.7811 24.6995 65.8467 24.9606 65.8467C25.274 65.8467 25.5301 65.776 25.7322 65.6363C25.9344 65.4968 26.0843 65.3071 26.1821 65.0657H27.1592C27.0749 65.3726 26.9317 65.6467 26.7296 65.8898C26.5274 66.1329 26.2781 66.3242 25.9816 66.4639C25.685 66.6036 25.3448 66.6742 24.9606 66.6742L24.9623 66.6794Z" fill="white"/>
<path d="M28.4412 66.5607V61.5213H29.3206L29.4082 62.4712C29.5194 62.2454 29.6626 62.0523 29.8378 61.8972C30.013 61.742 30.2202 61.6196 30.4578 61.5316C30.6953 61.4455 30.9682 61.4023 31.2732 61.4023V62.4627H30.9211C30.7189 62.4627 30.5269 62.4885 30.3449 62.5385C30.1629 62.5885 30.0012 62.673 29.8614 62.7936C29.7215 62.9143 29.6121 63.0764 29.5346 63.2833C29.457 63.4902 29.4166 63.747 29.4166 64.0539V66.5642H28.4395L28.4412 66.5607Z" fill="white"/>
<path d="M34.667 66.5607V59.561H35.6441V65.771H38.771V66.5607H34.667Z" fill="white"/>
<path d="M40.4401 60.571C40.2515 60.571 40.0965 60.5107 39.9752 60.3918C39.8539 60.2711 39.7949 60.1193 39.7949 59.9314C39.7949 59.7435 39.8555 59.6039 39.9752 59.4866C40.0948 59.3694 40.2498 59.3125 40.4401 59.3125C40.6305 59.3125 40.7754 59.3711 40.9001 59.4866C41.0231 59.6039 41.0854 59.7521 41.0854 59.9314C41.0854 60.1107 41.0231 60.2711 40.9001 60.3918C40.7754 60.5125 40.6238 60.571 40.4401 60.571ZM39.9432 66.5604V61.521H40.9203V66.5604H39.9432Z" fill="white"/>
<path d="M43.743 66.5607L41.8965 61.5212H42.9225L44.3191 65.6003L45.7259 61.5212H46.7316L44.8953 66.5607H43.743Z" fill="white"/>
<path d="M48.1592 60.571C47.9705 60.571 47.8155 60.5107 47.6959 60.3918C47.5746 60.2711 47.5156 60.1193 47.5156 59.9314C47.5156 59.7435 47.5762 59.6039 47.6959 59.4866C47.8155 59.3694 47.9705 59.3125 48.1592 59.3125C48.3479 59.3125 48.4944 59.3711 48.6191 59.4866C48.7421 59.6039 48.8044 59.7521 48.8044 59.9314C48.8044 60.1107 48.7421 60.2711 48.6191 60.3918C48.4961 60.5125 48.3428 60.571 48.1592 60.571ZM47.6622 66.5604V61.521H48.6393V66.5604H47.6622Z" fill="white"/>
<path d="M50.0645 66.5604V61.521H50.9439L51.0029 62.3814C51.1595 62.0814 51.3802 61.8434 51.6666 61.6658C51.953 61.49 52.2815 61.4004 52.6538 61.4004C53.0447 61.4004 53.38 61.4797 53.6597 61.64C53.9393 61.8004 54.1583 62.0417 54.315 62.3659C54.4716 62.6899 54.5492 63.0934 54.5492 63.5813V66.5604H53.572V63.6812C53.572 63.2141 53.4709 62.8607 53.2688 62.621C53.0666 62.3814 52.7734 62.2606 52.3894 62.2606C52.135 62.2606 51.9075 62.3227 51.7053 62.4451C51.5032 62.5693 51.3415 62.7503 51.2218 62.9899C51.1022 63.2296 51.0416 63.5227 51.0416 63.8692V66.5588H50.0645V66.5604Z" fill="white"/>
<path d="M57.8324 68.8793C57.3826 68.8793 56.9849 68.8207 56.6396 68.7052C56.2942 68.588 56.0281 68.4104 55.8377 68.1707C55.649 67.9311 55.5547 67.638 55.5547 67.2915C55.5547 67.1121 55.5934 66.9294 55.6726 66.7467C55.7501 66.5639 55.8781 66.3881 56.0533 66.2226C56.2286 66.0553 56.4678 65.9053 56.766 65.7726L57.3135 66.2226C56.9816 66.3484 56.7575 66.5001 56.6447 66.6777C56.5301 66.8535 56.4745 67.0259 56.4745 67.1932C56.4745 67.3931 56.5334 67.5604 56.6497 67.6932C56.7676 67.8259 56.9277 67.9259 57.1332 67.9932C57.3387 68.0604 57.5713 68.0932 57.8324 68.0932C58.0935 68.0932 58.3075 68.0569 58.4961 67.9828C58.6848 67.9087 58.8314 67.8052 58.9358 67.6725C59.0403 67.5397 59.0925 67.3829 59.0925 67.2018C59.0925 66.988 59.015 66.8105 58.8583 66.6673C58.7017 66.5242 58.4018 66.4398 57.9587 66.4122C57.5881 66.3863 57.2731 66.3484 57.0153 66.3018C56.7576 66.2553 56.5402 66.1984 56.3599 66.1312C56.1814 66.0639 56.0315 65.9915 55.9101 65.9105C55.7905 65.8312 55.6877 65.7467 55.6018 65.6605V65.4312L56.579 64.4019L57.3708 64.6812L56.3061 65.6915L56.5116 65.2416C56.5823 65.2881 56.6514 65.3329 56.7171 65.376C56.7828 65.4192 56.8704 65.4571 56.9816 65.4915C57.0928 65.5243 57.2427 65.5553 57.4314 65.5812C57.6201 65.607 57.8677 65.6347 58.1744 65.6605C58.6174 65.6933 58.9746 65.7743 59.2442 65.9002C59.5137 66.0277 59.7108 66.1967 59.8355 66.4105C59.9601 66.6242 60.0208 66.8777 60.0208 67.1708C60.0208 67.4638 59.9433 67.7311 59.7917 67.9914C59.6384 68.2518 59.4008 68.4655 59.0791 68.631C58.7573 68.7982 58.3412 68.881 57.8324 68.881V68.8793ZM57.8324 65.0105C57.4146 65.0105 57.0625 64.9313 56.7727 64.7709C56.483 64.6106 56.2606 64.3951 56.1089 64.1209C55.9556 63.8485 55.8798 63.5451 55.8798 63.2106C55.8798 62.8762 55.9573 62.5658 56.1089 62.2952C56.2622 62.0244 56.4846 61.809 56.7778 61.6452C57.0709 61.4814 57.423 61.4004 57.8324 61.4004C58.2417 61.4004 58.5922 61.4814 58.8836 61.6452C59.1734 61.809 59.3958 62.0244 59.5474 62.2952C59.7007 62.5658 59.7766 62.8693 59.7766 63.2106C59.7766 63.5519 59.699 63.8468 59.5474 64.1209C59.3941 64.3951 59.1734 64.6106 58.8836 64.7709C58.5939 64.9313 58.2434 65.0105 57.8324 65.0105ZM57.8324 64.2106C58.1508 64.2106 58.4052 64.1261 58.5939 63.9554C58.7825 63.7847 58.8769 63.5364 58.8769 63.2106C58.8769 62.8848 58.7825 62.6365 58.5939 62.4658C58.4052 62.2952 58.1508 62.2107 57.8324 62.2107C57.514 62.2107 57.2562 62.2952 57.0607 62.4658C56.8654 62.6365 56.7676 62.8848 56.7676 63.2106C56.7676 63.5364 56.8654 63.7847 57.0607 63.9554C57.2562 64.1261 57.514 64.2106 57.8324 64.2106ZM58.6343 62.3107L58.4001 61.521H60.4234V62.2107L58.636 62.3107H58.6343Z" fill="white"/>
<path d="M63.8232 66.5607V59.561H68.1429V60.3817H64.8004V62.6213H67.8497V63.4212H64.8004V65.7418H68.1429V66.5624H63.8232V66.5607Z" fill="white"/>
<path d="M68.8848 66.5606L70.5846 64.04L68.8848 61.5195H69.9393L71.2298 63.4798L72.5286 61.5195H73.575L71.8751 64.04L73.575 66.5606H72.5286L71.2298 64.59L69.9393 66.5606H68.8848Z" fill="white"/>
<path d="M74.5322 68.7606V61.5213H75.412L75.5098 62.3006C75.6141 62.1471 75.7437 62.0023 75.9001 61.8661C76.0572 61.7299 76.2441 61.6178 76.4613 61.5316C76.6785 61.4455 76.9349 61.4023 77.2282 61.4023C77.696 61.4023 78.1087 61.5196 78.4643 61.7523C78.8198 61.985 79.0964 62.3006 79.2949 62.6971C79.494 63.0936 79.5932 63.5454 79.5932 64.0522C79.5932 64.5591 79.4918 65.0108 79.2898 65.4073C79.0878 65.8038 78.8097 66.1159 78.4541 66.3418C78.0986 66.5676 77.688 66.6814 77.218 66.6814C76.8335 66.6814 76.4953 66.6021 76.2021 66.4469C75.9088 66.2917 75.6778 66.0728 75.5076 65.7918V68.7624H74.5308L74.5322 68.7606ZM77.0631 65.8107C77.3629 65.8107 77.6272 65.7366 77.8596 65.5901C78.0906 65.4435 78.2738 65.2366 78.4071 64.9694C78.5403 64.7021 78.6077 64.3936 78.6077 64.0401C78.6077 63.6867 78.5403 63.3781 78.4071 63.1143C78.2738 62.8506 78.0906 62.6437 77.8596 62.4937C77.6286 62.3437 77.3629 62.2695 77.0631 62.2695C76.7626 62.2695 76.4881 62.3437 76.2571 62.4937C76.0268 62.6437 75.8443 62.8506 75.7147 63.1143C75.5851 63.3781 75.5192 63.6867 75.5192 64.0401C75.5192 64.3936 75.5851 64.7039 75.7147 64.9694C75.8443 65.2366 76.0268 65.4435 76.2571 65.5901C76.4881 65.7366 76.7575 65.8107 77.0631 65.8107Z" fill="white"/>
<path d="M83.0149 66.6794C82.5463 66.6794 82.1285 66.5691 81.7643 66.3501C81.3986 66.1295 81.114 65.8243 80.9083 65.4295C80.7034 65.0347 80.6006 64.5795 80.6006 64.0589C80.6006 63.5382 80.7034 63.0607 80.9083 62.6641C81.114 62.2676 81.3986 61.9572 81.7643 61.7348C82.13 61.5124 82.5529 61.4004 83.0344 61.4004C83.5167 61.4004 83.9309 61.5107 84.2763 61.7297C84.6217 61.9503 84.8882 62.2417 85.0787 62.6037C85.2669 62.9675 85.3611 63.3692 85.3611 63.8089C85.3611 63.8761 85.3611 63.9468 85.356 64.0244C85.3531 64.1019 85.348 64.1864 85.3408 64.2795H81.3146V63.5692H84.3828C84.3625 63.1485 84.2256 62.821 83.9714 62.5848C83.7173 62.3486 83.4023 62.2296 83.025 62.2296C82.7571 62.2296 82.5123 62.2917 82.2914 62.4141C82.0691 62.5382 81.8924 62.7176 81.7592 62.9538C81.6267 63.19 81.5586 63.4882 81.5586 63.8485V64.1278C81.5586 64.5019 81.6267 64.8157 81.7592 65.0726C81.8924 65.3295 82.0713 65.5225 82.2914 65.6518C82.5123 65.7811 82.7549 65.8467 83.0149 65.8467C83.3277 65.8467 83.584 65.776 83.7861 65.6363C83.9881 65.4968 84.138 65.3071 84.2358 65.0657H85.2133C85.1286 65.3726 84.986 65.6467 84.7832 65.8898C84.5812 66.1329 84.3321 66.3242 84.0352 66.4639C83.739 66.6036 83.3987 66.6742 83.0149 66.6742V66.6794Z" fill="white"/>
<path d="M86.4944 66.5607V61.5213H87.3735L87.4611 62.4712C87.5726 62.2454 87.7153 62.0523 87.8905 61.8972C88.0657 61.7402 88.2736 61.6196 88.5111 61.5316C88.7486 61.4455 89.0209 61.4023 89.3265 61.4023V62.4627H88.9738C88.7718 62.4627 88.5799 62.4885 88.3981 62.5385C88.2156 62.5885 88.0542 62.673 87.9144 62.7936C87.7746 62.9143 87.6653 63.0764 87.5878 63.2833C87.5103 63.4902 87.4698 63.747 87.4698 64.0539V66.5642H86.4922L86.4944 66.5607Z" fill="white"/>
<path d="M90.7722 60.571C90.5832 60.571 90.4282 60.5107 90.3073 60.3918C90.1856 60.2711 90.127 60.1193 90.127 59.9314C90.127 59.7435 90.1878 59.6039 90.3073 59.4866C90.4267 59.3694 90.5817 59.3125 90.7722 59.3125C90.9626 59.3125 91.1074 59.3711 91.232 59.4866C91.3551 59.6039 91.4174 59.7521 91.4174 59.9314C91.4174 60.1107 91.3551 60.2711 91.232 60.3918C91.1074 60.5125 90.9561 60.571 90.7722 60.571ZM90.2732 66.5604V61.521H91.2508V66.5604H90.2732Z" fill="white"/>
<path d="M94.9053 66.6794C94.4375 66.6794 94.0196 66.5691 93.6554 66.3501C93.2897 66.1295 93.0051 65.8243 92.7995 65.4295C92.5938 65.0347 92.4917 64.5795 92.4917 64.0589C92.4917 63.5382 92.5938 63.0607 92.7995 62.6641C93.0051 62.2676 93.2897 61.9572 93.6554 61.7348C94.0211 61.5124 94.444 61.4004 94.9255 61.4004C95.4078 61.4004 95.822 61.5107 96.1674 61.7297C96.5128 61.9503 96.7786 62.2417 96.969 62.6037C97.158 62.9675 97.2522 63.3692 97.2522 63.8089C97.2522 63.8761 97.2522 63.9468 97.2471 64.0244C97.2442 64.1019 97.2391 64.1864 97.2319 64.2795H93.2057V63.5692H96.2739C96.2536 63.1485 96.1167 62.821 95.8626 62.5848C95.6084 62.3486 95.2934 62.2296 94.9154 62.2296C94.6475 62.2296 94.4034 62.2917 94.1826 62.4141C93.9603 62.5382 93.7836 62.7176 93.6503 62.9538C93.5171 63.19 93.4497 63.4882 93.4497 63.8485V64.1278C93.4497 64.5019 93.5171 64.8157 93.6503 65.0726C93.7836 65.3295 93.9624 65.5225 94.1826 65.6518C94.4034 65.7811 94.646 65.8467 94.9053 65.8467C95.2188 65.8467 95.4752 65.776 95.6772 65.6363C95.8792 65.4968 96.0291 65.3071 96.1269 65.0657H97.1045C97.0197 65.3726 96.8764 65.6467 96.6743 65.8898C96.4723 66.1329 96.2232 66.3242 95.9263 66.4639C95.6301 66.6036 95.2898 66.6742 94.9053 66.6742V66.6794Z" fill="white"/>
<path d="M98.3833 66.5604V61.521H99.2631L99.3218 62.3814C99.4789 62.0814 99.6991 61.8434 99.9858 61.6658C100.272 61.49 100.601 61.4004 100.973 61.4004C101.364 61.4004 101.699 61.4797 101.979 61.64C102.258 61.8004 102.478 62.0417 102.634 62.3659C102.79 62.6899 102.868 63.0934 102.868 63.5813V66.5604H101.891V63.6812C101.891 63.2141 101.79 62.8607 101.588 62.621C101.386 62.3814 101.092 62.2606 100.709 62.2606C100.454 62.2606 100.226 62.3227 100.024 62.4451C99.8222 62.5693 99.6607 62.7503 99.5412 62.9899C99.4195 63.2296 99.3609 63.5227 99.3609 63.8692V66.5588H98.3833V66.5604Z" fill="white"/>
<path d="M106.426 66.6794C105.951 66.6794 105.526 66.5673 105.156 66.345C104.786 66.1226 104.494 65.8139 104.282 65.4192C104.069 65.026 103.963 64.5692 103.963 64.0485C103.963 63.5278 104.069 63.0607 104.282 62.6641C104.494 62.2676 104.786 61.9572 105.156 61.7348C105.528 61.5124 105.951 61.4004 106.426 61.4004C107.026 61.4004 107.526 61.5607 107.93 61.8796C108.335 62.2003 108.591 62.6331 108.702 63.1796H107.686C107.621 62.8865 107.472 62.6589 107.242 62.5003C107.011 62.34 106.734 62.2606 106.416 62.2606C106.155 62.2606 105.914 62.3296 105.694 62.4658C105.471 62.6021 105.294 62.802 105.161 63.0658C105.028 63.3295 104.961 63.6537 104.961 64.0416C104.961 64.3278 104.999 64.5829 105.079 64.8071C105.156 65.0312 105.262 65.2191 105.395 65.3726C105.528 65.526 105.683 65.6416 105.859 65.7174C106.034 65.795 106.221 65.8329 106.416 65.8329C106.632 65.8329 106.825 65.7984 106.997 65.7277C107.169 65.6571 107.316 65.5519 107.437 65.4123C107.558 65.2726 107.641 65.1054 107.686 64.9122H108.702C108.591 65.445 108.333 65.8743 107.93 66.1967C107.526 66.5208 107.025 66.6811 106.426 66.6811V66.6794Z" fill="white"/>
<path d="M112.094 66.6794C111.626 66.6794 111.208 66.5691 110.845 66.3501C110.479 66.1295 110.194 65.8243 109.989 65.4295C109.783 65.0364 109.68 64.5795 109.68 64.0589C109.68 63.5382 109.783 63.0607 109.989 62.6641C110.194 62.2676 110.479 61.9572 110.845 61.7348C111.21 61.5124 111.632 61.4004 112.115 61.4004C112.596 61.4004 113.01 61.5107 113.356 61.7297C113.701 61.9503 113.968 62.2417 114.158 62.6037C114.347 62.9675 114.441 63.3692 114.441 63.8089C114.441 63.8761 114.441 63.9468 114.436 64.0244C114.433 64.1019 114.428 64.1864 114.421 64.2795H110.394V63.5692H113.462C113.442 63.1485 113.306 62.821 113.051 62.5848C112.797 62.3486 112.482 62.2296 112.102 62.2296C111.834 62.2296 111.59 62.2917 111.37 62.4141C111.149 62.5382 110.971 62.7176 110.837 62.9538C110.704 63.19 110.637 63.4882 110.637 63.8485V64.1278C110.637 64.5019 110.704 64.8157 110.837 65.0726C110.971 65.3295 111.149 65.5225 111.37 65.6518C111.59 65.7811 111.833 65.8467 112.092 65.8467C112.406 65.8467 112.662 65.776 112.864 65.6363C113.066 65.4968 113.216 65.3071 113.314 65.0657H114.291C114.207 65.3726 114.063 65.6467 113.861 65.8898C113.659 66.1329 113.41 66.3242 113.113 66.4639C112.817 66.6036 112.477 66.6742 112.092 66.6742L112.094 66.6794Z" fill="white"/>
<path d="M44.3867 5.27002C44.5141 5.27002 44.64 5.27662 44.7658 5.28983C44.8917 5.30304 45.0175 5.3212 45.1417 5.34762C45.2659 5.37404 45.3886 5.40376 45.5096 5.44173C45.6306 5.4797 45.7499 5.52263 45.8678 5.57216C45.9855 5.62169 46.1001 5.67783 46.2114 5.73892C46.3227 5.8 46.4324 5.86604 46.5373 5.93869C46.6422 6.01133 46.7438 6.08728 46.8422 6.16984C46.9407 6.25239 47.0342 6.33989 47.1245 6.4307C47.2149 6.52315 47.2988 6.61891 47.3795 6.71962C47.4601 6.82034 47.536 6.92435 47.6053 7.03167C47.6763 7.13899 47.7408 7.25125 47.8006 7.36519C47.8602 7.47907 47.9151 7.59633 47.9635 7.71681C48.0119 7.83738 48.0555 7.95956 48.0909 8.08335C48.1264 8.20722 48.1587 8.33271 48.1829 8.45981C48.2071 8.58691 48.2264 8.7157 48.2394 8.8445C48.2523 8.97329 48.2587 9.1037 48.2587 9.23249C48.2587 9.36128 48.2523 9.49169 48.2394 9.62048C48.2264 9.74927 48.2087 9.87806 48.1829 10.0052C48.1571 10.1323 48.128 10.2578 48.0909 10.3816C48.0538 10.5054 48.0119 10.6276 47.9635 10.7482C47.9151 10.8687 47.8602 10.9859 47.8006 11.0998C47.7408 11.2137 47.6763 11.326 47.6053 11.4333C47.5344 11.5406 47.4601 11.6446 47.3795 11.7454C47.2988 11.8461 47.2133 11.9418 47.1245 12.0343C47.0358 12.1267 46.9407 12.2126 46.8422 12.2951C46.7438 12.3777 46.6422 12.4553 46.5373 12.5263C46.4324 12.5973 46.3227 12.665 46.2114 12.7261C46.1001 12.7872 45.9855 12.8433 45.8678 12.8928C45.7499 12.9423 45.6306 12.9869 45.5096 13.0233C45.3886 13.0596 45.2659 13.0926 45.1417 13.1173C45.0175 13.1422 44.8917 13.1619 44.7658 13.1751C44.64 13.1884 44.5125 13.195 44.3867 13.195C44.2608 13.195 44.1334 13.1884 44.0075 13.1751C43.8817 13.1619 43.7559 13.1438 43.6316 13.1173C43.5074 13.091 43.3848 13.0612 43.2638 13.0233C43.1428 12.9853 43.0234 12.9423 42.9056 12.8928C42.7879 12.8433 42.6733 12.7872 42.562 12.7261C42.4507 12.665 42.341 12.5989 42.2361 12.5263C42.1312 12.4537 42.0296 12.3777 41.9312 12.2951C41.8328 12.2126 41.7392 12.1251 41.6489 12.0343C41.5585 11.9435 41.4746 11.8461 41.394 11.7454C41.3133 11.6446 41.2374 11.5406 41.168 11.4333C41.0971 11.326 41.0326 11.2137 40.9729 11.0998C40.9131 10.9859 40.8583 10.8687 40.8099 10.7482C40.7615 10.6276 40.7179 10.5054 40.6824 10.3816C40.6469 10.2578 40.6147 10.1323 40.5905 10.0052C40.5663 9.87806 40.5469 9.74927 40.5341 9.62048C40.5211 9.49169 40.5146 9.36128 40.5146 9.23249C40.5146 9.1037 40.5211 8.97329 40.5341 8.8445C40.5469 8.7157 40.5647 8.58691 40.5905 8.45981C40.6163 8.33271 40.6454 8.20722 40.6824 8.08335C40.7196 7.95956 40.7615 7.83738 40.8099 7.71681C40.8583 7.59633 40.9131 7.47907 40.9729 7.36519C41.0326 7.25125 41.0971 7.13899 41.168 7.03167C41.2391 6.92435 41.3133 6.82034 41.394 6.71962C41.4746 6.61891 41.5601 6.52315 41.6489 6.4307C41.7392 6.33824 41.8328 6.25239 41.9312 6.16984C42.0296 6.08728 42.1312 6.00968 42.2361 5.93869C42.341 5.86769 42.4507 5.8 42.562 5.73892C42.6733 5.67783 42.7879 5.62169 42.9056 5.57216C43.0234 5.52263 43.1428 5.47805 43.2638 5.44173C43.3848 5.4054 43.5074 5.37238 43.6316 5.34762C43.7559 5.32285 43.8817 5.30304 44.0075 5.28983C44.1334 5.27662 44.2608 5.27002 44.3867 5.27002Z" fill="#2B2B6B"/>
<path d="M66.9055 17.132C66.8449 16.9802 66.7084 16.8561 66.4995 16.7544C66.2906 16.6544 65.9958 16.5854 65.615 16.5475C65.2343 16.5095 64.7474 16.4906 64.1577 16.4906C63.5681 16.4906 63.0711 16.5095 62.6651 16.5475C62.2591 16.5854 61.9272 16.6544 61.6694 16.7544C61.4117 16.8544 61.2146 16.9802 61.0798 17.132C60.945 17.2837 60.8642 17.4474 60.8405 17.6233L57.9277 32.6433C57.4846 34.857 56.8023 36.9017 55.8808 38.7757C54.9592 40.6498 53.908 42.2669 52.7287 43.6255C51.5477 44.9841 50.2757 46.0478 48.9112 46.815C47.5465 47.5822 46.2122 47.9667 44.9099 47.9667C44.1485 47.9667 43.5016 47.8408 42.9743 47.5891C42.4453 47.3374 42.0156 46.9857 41.6838 46.5323C41.3519 46.0788 41.1177 45.5443 40.9829 44.9289C40.8464 44.3134 40.7791 43.6272 40.7791 42.8721C40.7791 42.1169 40.8161 41.4256 40.8903 40.7205C40.9644 40.0153 41.0756 39.3378 41.2221 38.6827L44.4079 22.1421H49.2919C50.8165 22.1421 52.0515 20.8766 52.0515 19.318C52.0515 17.7595 50.8165 16.4923 49.2919 16.4923H28.9524C28.8615 16.4923 28.7705 16.4975 28.6812 16.5061C28.4218 16.5164 28.1825 16.5302 27.9652 16.5492C27.5339 16.5871 27.1599 16.6492 26.8398 16.7371C26.5197 16.8251 26.2367 16.9509 25.9924 17.1147C25.7464 17.2785 25.5257 17.4733 25.3286 17.6991L9.95067 31.926L15.9617 1.20684C15.9853 1.00513 15.9735 0.829271 15.9246 0.679278C15.8758 0.529285 15.746 0.403429 15.5371 0.301709C15.3282 0.201715 15.0334 0.125857 14.6526 0.0758586C14.2719 0.0258612 13.7867 0 13.1954 0C12.6041 0 12.0717 0.0258612 11.6656 0.0758586C11.2597 0.125857 10.9277 0.201715 10.67 0.301709C10.4122 0.401705 10.2269 0.527562 10.1158 0.679278C10.0045 0.830997 9.9254 1.00685 9.87652 1.20684L0.0294082 51.6251C-0.0194482 51.8268 -0.00765524 52.0027 0.0664718 52.1527C0.140599 52.3044 0.282114 52.4233 0.491018 52.5113C0.699921 52.5992 0.994748 52.6681 1.37549 52.7182C1.75623 52.7681 2.24142 52.794 2.83276 52.794C3.42409 52.794 3.92108 52.7681 4.32541 52.7182C4.73142 52.6681 5.06331 52.5923 5.32107 52.4923C5.57883 52.3923 5.7692 52.2716 5.89219 52.1337C6.01517 51.9958 6.10109 51.8251 6.14994 51.6234L9.8007 32.7915L20.4211 51.5855C20.5188 51.8113 20.63 52.001 20.753 52.1509C20.876 52.3026 21.0596 52.4285 21.3056 52.5286C21.5515 52.6285 21.8716 52.6975 22.2641 52.7354C22.6567 52.7734 23.1991 52.7923 23.8866 52.7923C24.525 52.7923 25.0607 52.7595 25.4904 52.6975C25.9199 52.6337 26.2654 52.5526 26.5231 52.4527C26.7809 52.3527 26.9594 52.2199 27.0571 52.0561C27.1549 51.8923 27.2054 51.6975 27.2054 51.4717C27.2054 51.2958 27.1565 51.051 27.0571 50.7355C26.9594 50.4217 26.7859 50.0373 26.5416 49.5838L16.6221 32.4881L28.479 22.092C28.6323 22.1196 28.789 22.1368 28.9491 22.1368H38.2857L35.0612 38.9051C34.8893 39.786 34.7478 40.6601 34.6367 41.5273C34.5254 42.3946 34.4715 43.2444 34.4715 44.0738C34.4715 45.4082 34.6249 46.634 34.9315 47.7529C35.2381 48.8735 35.7435 49.8407 36.4443 50.6596C37.1452 51.4768 38.0667 52.1182 39.2106 52.5837C40.3529 53.0492 41.7612 53.2819 43.4325 53.2819C44.8341 53.2819 46.2173 53.0302 47.5802 52.5268C48.9432 52.0234 50.1983 51.3699 51.3422 50.5648C52.4861 49.7597 53.48 48.8856 54.3292 47.9425C55.1766 46.9995 55.7982 46.0995 56.1908 45.2444L54.9727 51.6216C54.9238 51.8234 54.9289 51.9992 54.9912 52.1492C55.0536 52.3009 55.1766 52.4199 55.3602 52.5078C55.5455 52.5958 55.8033 52.6647 56.1352 52.7147C56.467 52.7647 56.8781 52.7905 57.37 52.7905C57.8856 52.7905 58.3236 52.7647 58.6791 52.7147C59.0345 52.6647 59.3243 52.5958 59.5467 52.5078C59.7674 52.4199 59.9392 52.2993 60.0622 52.1492C60.1835 51.9975 60.2576 51.8216 60.2829 51.6216L66.9577 17.6181C66.9813 17.4423 66.9628 17.2785 66.9021 17.1267L66.9055 17.132Z" fill="#E74C2D"/>
<path d="M88.062 47.4098H78.4759L87.4653 1.20684C87.4892 1.00513 87.4776 0.829271 87.4284 0.679278C87.3799 0.527562 87.2503 0.403429 87.041 0.301709C86.8324 0.201715 86.5377 0.125857 86.1568 0.0758586C85.7759 0.0258612 85.2893 0 84.6991 0C84.1097 0 83.5738 0.0258612 83.1697 0.0758586C82.7635 0.125857 82.4318 0.201715 82.174 0.301709C81.9163 0.401705 81.7309 0.527562 81.6215 0.679278C81.51 0.830998 81.4311 1.00685 81.3818 1.20684L72.3926 47.4098H69.7342C68.2095 47.4098 66.9746 48.6752 66.9746 50.2355C66.9746 51.7958 68.2095 53.0595 69.7342 53.0595H88.0635C89.5885 53.0595 90.8232 51.7941 90.8232 50.2355C90.8232 48.677 89.5885 47.4098 88.0635 47.4098H88.062Z" fill="#2C5B32"/>
<path d="M123.053 17.1321C123.004 16.9804 122.881 16.8562 122.684 16.7545C122.487 16.6545 122.223 16.5855 121.89 16.5476C121.558 16.5097 121.146 16.4907 120.655 16.4907C119.671 16.4907 118.947 16.5786 118.481 16.7545C118.014 16.9303 117.731 17.22 117.631 17.6217L116.931 21.056C115.701 19.4716 114.306 18.2251 112.746 17.3199C111.754 16.7442 110.636 16.3528 109.392 16.1425C109.452 16.0252 109.36 15.9614 109.016 15.9614H94.4974C92.9724 15.9614 91.7378 17.2269 91.7378 18.7854C91.7378 20.3439 92.9724 21.6111 94.4974 21.6111H95.8262C94.9015 22.7421 94.0876 23.9783 93.3852 25.3214C92.4641 27.0816 91.7124 28.8936 91.1345 30.7555C90.5567 32.6175 90.1389 34.4415 89.8811 36.2277C89.6233 38.0139 89.4937 39.612 89.4937 41.0206C89.4937 42.555 89.6349 44.0532 89.918 45.5118C90.1997 46.972 90.7232 48.2805 91.485 49.4374C92.2461 50.5942 93.2744 51.5252 94.5648 52.2304C95.8552 52.9338 97.4845 53.2873 99.4506 53.2873C100.901 53.2873 102.326 53.0234 103.728 52.4942C105.129 51.9666 106.402 51.2994 107.545 50.4942C108.689 49.6891 109.678 48.8081 110.514 47.853C111.35 46.8978 111.927 46.0169 112.248 45.2117L111.031 51.627C110.957 51.8528 110.957 52.0356 111.031 52.1735C111.105 52.3131 111.24 52.4252 111.437 52.5131C111.634 52.6011 111.892 52.67 112.212 52.72C112.532 52.77 112.936 52.7959 113.428 52.7959C114.461 52.7959 115.199 52.708 115.642 52.5321C116.085 52.3563 116.355 52.0545 116.453 51.627L123.09 17.6234C123.114 17.4476 123.102 17.2838 123.053 17.1321ZM114.055 32.7554C113.612 34.9691 112.936 36.9949 112.027 38.8311C111.117 40.6671 110.072 42.2653 108.891 43.6239C107.71 44.9824 106.438 46.0462 105.073 46.8134C103.709 47.5806 102.351 47.9651 100.999 47.9651C99.9408 47.9651 99.0812 47.7444 98.4172 47.3047C97.7539 46.8652 97.2318 46.2858 96.8509 45.5686C96.47 44.8514 96.2108 44.0583 96.0761 43.1912C95.9392 42.3222 95.8719 41.4499 95.8719 40.5689C95.8719 39.462 95.9645 38.2173 96.1485 36.8328C96.3317 35.4501 96.6148 34.0399 96.9957 32.6055C97.3766 31.1711 97.8683 29.7815 98.4701 28.435C99.0711 27.0902 99.7858 25.8868 100.609 24.8317C101.433 23.7748 102.38 22.9266 103.45 22.2835C104.52 21.6422 105.717 21.3215 107.045 21.3215C108.716 21.3215 110.222 21.756 111.562 22.6232C112.901 23.4921 114.149 24.7938 115.305 26.5299L114.051 32.7572L114.055 32.7554Z" fill="#2C5B32"/>
<path d="M121.55 5.27051C121.683 5.27051 121.814 5.27741 121.946 5.2912C122.077 5.30499 122.209 5.32395 122.339 5.35154C122.468 5.37912 122.596 5.41016 122.722 5.44981C122.849 5.48946 122.974 5.53428 123.097 5.58601C123.22 5.63773 123.339 5.69635 123.455 5.76014C123.572 5.82393 123.686 5.89289 123.795 5.96875C123.906 6.04461 124.011 6.12391 124.114 6.21011C124.217 6.29632 124.315 6.3877 124.409 6.48252C124.503 6.57906 124.591 6.67906 124.675 6.78423C124.759 6.8894 124.838 6.99802 124.911 7.11008C124.985 7.22214 125.053 7.33938 125.115 7.45833C125.177 7.57728 125.234 7.69968 125.285 7.82553C125.336 7.95138 125.381 8.079 125.418 8.20831C125.455 8.33761 125.489 8.46861 125.514 8.60137C125.539 8.73413 125.559 8.86858 125.573 9.0031C125.586 9.13755 125.594 9.27376 125.594 9.40821C125.594 9.54273 125.586 9.67894 125.573 9.81339C125.559 9.94784 125.541 10.0824 125.514 10.2151C125.487 10.3479 125.457 10.4789 125.418 10.6082C125.379 10.7375 125.336 10.865 125.285 10.9909C125.234 11.1168 125.177 11.2392 125.115 11.3582C125.053 11.4771 124.985 11.5944 124.911 11.7064C124.837 11.8184 124.759 11.9271 124.675 12.0322C124.591 12.1374 124.502 12.2374 124.409 12.334C124.316 12.4305 124.217 12.5202 124.114 12.6063C124.011 12.6926 123.906 12.7736 123.795 12.8478C123.686 12.9219 123.572 12.9926 123.455 13.0563C123.339 13.1201 123.22 13.1787 123.097 13.2305C122.974 13.2822 122.849 13.3288 122.722 13.3667C122.596 13.4046 122.468 13.4391 122.339 13.465C122.209 13.4908 122.077 13.5115 121.946 13.5253C121.814 13.5391 121.682 13.546 121.55 13.546C121.419 13.546 121.286 13.5391 121.154 13.5253C121.023 13.5115 120.891 13.4925 120.761 13.465C120.632 13.4373 120.504 13.4063 120.378 13.3667C120.251 13.327 120.126 13.2822 120.003 13.2305C119.881 13.1787 119.761 13.1201 119.645 13.0563C119.528 12.9926 119.414 12.9236 119.304 12.8478C119.195 12.7719 119.089 12.6926 118.986 12.6063C118.883 12.5202 118.785 12.4288 118.691 12.334C118.597 12.2391 118.509 12.1374 118.425 12.0322C118.341 11.9271 118.262 11.8184 118.189 11.7064C118.115 11.5944 118.047 11.4771 117.985 11.3582C117.923 11.2392 117.866 11.1168 117.815 10.9909C117.764 10.865 117.719 10.7375 117.682 10.6082C117.645 10.4789 117.611 10.3479 117.586 10.2151C117.561 10.0824 117.54 9.94784 117.527 9.81339C117.514 9.67894 117.506 9.54273 117.506 9.40821C117.506 9.27376 117.514 9.13755 117.527 9.0031C117.54 8.86858 117.559 8.73413 117.586 8.60137C117.613 8.46861 117.643 8.33761 117.682 8.20831C117.721 8.079 117.764 7.95138 117.815 7.82553C117.866 7.69968 117.923 7.57728 117.985 7.45833C118.047 7.33938 118.115 7.22214 118.189 7.11008C118.263 6.99802 118.341 6.8894 118.425 6.78423C118.509 6.67906 118.598 6.57906 118.691 6.48252C118.785 6.38597 118.883 6.29632 118.986 6.21011C119.089 6.12391 119.195 6.04288 119.304 5.96875C119.414 5.89462 119.528 5.82393 119.645 5.76014C119.761 5.69635 119.881 5.63773 120.003 5.58601C120.126 5.53428 120.251 5.48774 120.378 5.44981C120.504 5.41188 120.632 5.3774 120.761 5.35154C120.891 5.32568 121.023 5.30499 121.154 5.2912C121.286 5.27741 121.419 5.27051 121.55 5.27051Z" fill="#E74C2D"/>
</g>
<defs>
<clipPath id="clip0_6377_914">
<rect width="126" height="72" fill="white"/>
</clipPath>
</defs>
</svg>
