<svg width="36" height="13" viewBox="0 0 36 13" fill="none" xmlns="http://www.w3.org/2000/svg">
<g clip-path="url(#clip0_6519_12648)">
<mask id="mask0_6519_12648" style="mask-type:luminance" maskUnits="userSpaceOnUse" x="0" y="0" width="36" height="13">
<path d="M35.9183 0H0V13H35.9183V0Z" fill="white"/>
</mask>
<g mask="url(#mask0_6519_12648)">
<path d="M17.9368 3.38807C18.5839 3.15104 19.0304 2.69276 19.0304 1.96588C19.0304 0.842706 18.0034 0.358887 16.6997 0.358887H15.2158V7.35705H17.1566C18.6247 7.35705 19.8982 6.76275 19.8982 5.41317C19.8982 4.34653 19.1024 3.61477 17.9368 3.38807ZM17.0642 6.96564H16.2429V0.752887H16.7815C17.7468 0.752887 18.07 1.22207 18.07 1.92771C18.07 2.04508 18.1486 3.19953 17.1999 3.40959C17.591 3.50374 17.9536 3.69077 18.2571 3.95482C18.4456 4.12523 18.5936 4.33575 18.6901 4.5709C18.7866 4.80604 18.8292 5.05983 18.8146 5.31359C18.8146 6.29242 18.2757 6.96736 17.0642 6.96736" fill="white"/>
<path d="M0.487837 7.12344C0.98972 7.36184 1.53923 7.48303 2.09483 7.47784C2.99848 7.47784 4.59141 7.15329 4.59141 5.56724C4.59141 4.45526 3.78791 3.83026 2.46444 2.93264C1.85292 2.49674 1.01872 2.05711 1.01872 1.34143C1.01872 0.746264 1.56883 0.389856 2.33071 0.389856C2.86581 0.399947 3.3875 0.55894 3.83727 0.848997L3.45963 0.190703C3.10303 0.0542265 2.723 -0.0105253 2.34133 0.000159885C1.33065 0.000159885 0.149795 0.427448 0.149795 1.63183C0.149795 2.58426 0.899916 3.12232 2.14275 4.01363C2.71984 4.42427 3.62693 5.07539 3.62693 5.87315C3.62693 6.62298 3.04181 7.08843 2.09971 7.08843C1.32426 7.06753 0.580923 6.77434 0 6.26026L0.487837 7.12344Z" fill="white"/>
<path d="M9.5936 7.47786C7.72174 7.47786 6.26855 5.98565 6.26855 3.85868C6.26855 1.7848 7.72174 0.239502 9.5936 0.239502C11.4655 0.239502 12.9143 1.7848 12.9143 3.85868C12.9143 5.98422 11.4657 7.47786 9.5936 7.47786ZM11.8876 3.85868C11.8876 1.96472 10.9693 0.629772 9.5936 0.629772C8.21789 0.629772 7.29961 1.96444 7.29961 3.85868C7.29961 5.76325 8.21789 7.08759 9.5936 7.08759C10.9693 7.08759 11.8876 5.76297 11.8876 3.85868Z" fill="white"/>
<path d="M33.9973 5.30335H31.2964L30.4545 7.35714H30.0527L32.9858 0.20459L35.918 7.35714H34.8396L33.9973 5.30335ZM31.4557 4.91308H33.8375L32.6466 2.00155L31.4557 4.91308Z" fill="white"/>
<path d="M27.0524 0.361572V3.23551H23.2995V0.361572H22.2725V7.35716H23.2995V3.62664H27.0524V7.35716H28.0794V0.361572H27.0524Z" fill="white"/>
<path d="M11.1252 13H10.71V10.8733H11.7287C12.2111 10.8733 12.4538 11.1066 12.4538 11.4759V11.5907C12.4555 11.725 12.4101 11.8557 12.3256 11.9601C12.2411 12.0645 12.1227 12.136 11.991 12.1623L12.5362 12.9988H12.0771L11.5628 12.1973H11.1252V13ZM11.1252 11.8791H11.6366C11.9077 11.8791 12.0383 11.7643 12.0383 11.5824V11.4963C12.0383 11.3046 11.9264 11.2024 11.6518 11.2024H11.1252V11.8791Z" fill="white"/>
<path d="M15.0952 10.8738V11.2181H13.8977V11.7571H14.8303V12.0825H13.8977V12.6552H15.0952V12.9996H13.4922V10.8738H15.0952Z" fill="white"/>
<path d="M17.26 12.5557H16.3179L16.1529 12.9999H15.7334L16.567 10.8572H17.0262L17.8584 12.9999H17.4256L17.26 12.5557ZM16.4362 12.2429H17.1415L16.7906 11.3106H16.7843L16.4362 12.2429Z" fill="white"/>
<path d="M19.163 10.8738V12.6397H20.2265V13.0005H18.748V10.8738H19.163Z" fill="white"/>
<path d="M22.5165 10.8738V11.2313H21.795V13.0007H21.3795V11.231H20.6621V10.8738H22.5165Z" fill="white"/>
<path d="M23.6408 10.8738L24.2027 11.8317L24.7583 10.8738H25.2085L24.3976 12.1875V13.0019H23.9826V12.1875L23.1748 10.8749L23.6408 10.8738Z" fill="white"/>
</g>
</g>
<defs>
<clipPath id="clip0_6519_12648">
<rect width="35.9183" height="13" fill="white"/>
</clipPath>
</defs>
</svg>
