<svg width="88" height="33" viewBox="0 0 88 33" fill="none" xmlns="http://www.w3.org/2000/svg">
<g clip-path="url(#clip0_6377_812)">
<mask id="mask0_6377_812" style="mask-type:luminance" maskUnits="userSpaceOnUse" x="0" y="0" width="88" height="33">
<path d="M88 0H0V33H88V0Z" fill="white"/>
</mask>
<g mask="url(#mask0_6377_812)">
<path d="M43.9462 8.60035C45.5316 7.99866 46.6256 6.83533 46.6256 4.99018C46.6256 2.13905 44.1093 0.910889 40.9153 0.910889H37.2798V18.6755H42.0346C45.6314 18.6755 48.7516 17.1669 48.7516 13.741C48.7516 11.0334 46.802 9.17582 43.9462 8.60035ZM41.8082 17.6819H39.796V1.91104H41.1157C43.4808 1.91104 44.2724 3.10205 44.2724 4.8933C44.2724 5.19123 44.4651 8.12176 42.1407 8.65498C43.0989 8.89398 43.9874 9.36873 44.7308 10.039C45.1929 10.4716 45.5554 11.006 45.7918 11.6029C46.0282 12.1998 46.1325 12.8441 46.0969 13.4882C46.0969 15.9729 44.7765 17.6862 41.8082 17.6862" fill="black"/>
<path d="M1.1952 18.0821C2.42482 18.6873 3.77112 18.9949 5.13234 18.9818C7.34628 18.9818 11.249 18.1579 11.249 14.1318C11.249 11.3091 9.2804 9.72251 6.03789 7.44393C4.53966 6.33742 2.49587 5.22145 2.49587 3.40471C2.49587 1.89391 3.84363 0.989183 5.71026 0.989183C7.02124 1.0148 8.29939 1.4184 9.40133 2.15469L8.4761 0.483642C7.60244 0.137201 6.67137 -0.0271689 5.73627 -4.486e-05C3.26009 -4.486e-05 0.366998 1.08461 0.366998 4.14189C0.366998 6.5596 2.2048 7.92543 5.24975 10.188C6.66361 11.2304 8.88598 12.8832 8.88598 14.9083C8.88598 16.8117 7.45244 17.9933 5.14429 17.9933C3.24445 17.9402 1.42326 17.196 0 15.891L1.1952 18.0821Z" fill="black"/>
<path d="M23.5053 18.9822C18.9192 18.9822 15.3589 15.1943 15.3589 9.79505C15.3589 4.53058 18.9192 0.60791 23.5053 0.60791C28.0913 0.60791 31.6411 4.53058 31.6411 9.79505C31.6411 15.1906 28.092 18.9822 23.5053 18.9822ZM29.1255 9.79505C29.1255 4.98732 26.8757 1.59859 23.5053 1.59859C20.1348 1.59859 17.885 4.98659 17.885 9.79505C17.885 14.6297 20.1348 17.9915 23.5053 17.9915C26.8757 17.9915 29.1255 14.629 29.1255 9.79505Z" fill="black"/>
<path d="M83.2946 13.462H76.6774L74.6147 18.6755H73.6304L80.8164 0.519043L88.0002 18.6755H85.3581L83.2946 13.462ZM77.0676 12.4714H82.903L79.9853 5.08056L77.0676 12.4714Z" fill="black"/>
<path d="M66.2788 0.918213V8.21359H57.0841V0.918213H54.5679V18.6762H57.0841V9.20646H66.2788V18.6762H68.795V0.918213H66.2788Z" fill="black"/>
<path d="M27.2566 33.0003H26.2393V27.6018H28.7351C29.917 27.6018 30.5118 28.194 30.5118 29.1315V29.4229C30.5158 29.7639 30.4047 30.0956 30.1976 30.3606C29.9905 30.6256 29.7005 30.8072 29.3777 30.874L30.7135 32.9974H29.5886L28.3288 30.9628H27.2566V33.0003ZM27.2566 30.155H28.5094C29.1738 30.155 29.4937 29.8636 29.4937 29.4018V29.1833C29.4937 28.6967 29.2195 28.4373 28.5467 28.4373H27.2566V30.155Z" fill="black"/>
<path d="M36.9815 27.6025V28.4767H34.0476V29.8447H36.3326V30.6707H34.0476V32.1247H36.9815V32.9989H33.0542V27.6025H36.9815Z" fill="black"/>
<path d="M42.2862 31.8727H39.978L39.5738 33.0003H38.5459L40.5883 27.561H41.7132L43.7521 33.0003H42.6918L42.2862 31.8727ZM40.2677 31.0787H41.9958L41.136 28.712H41.1205L40.2677 31.0787Z" fill="black"/>
<path d="M46.9502 27.6025V32.0854H49.5558V33.001H45.9336V27.6025H46.9502Z" fill="black"/>
<path d="M55.1657 27.6025V28.5102H53.3982V33.0018H52.3802V28.5095H50.6226V27.6025H55.1657Z" fill="black"/>
<path d="M57.9196 27.6025L59.2962 30.0341L60.6573 27.6025H61.7604L59.7736 30.9374V33.0047H58.7569V30.9374L56.7778 27.6055L57.9196 27.6025Z" fill="black"/>
</g>
</g>
<defs>
<clipPath id="clip0_6377_812">
<rect width="88" height="33" fill="white"/>
</clipPath>
</defs>
</svg>
