<?xml version="1.0" encoding="UTF-8"?>
<svg id="Layer_1" xmlns="http://www.w3.org/2000/svg" version="1.1" viewBox="0 0 54 54">
  <!-- Generator: Adobe Illustrator 29.7.1, SVG Export Plug-In . SVG Version: 2.1.1 Build 8)  -->
  <defs>
    <style>
      .st0 {
        fill: #eaeaea;
      }

      .st1 {
        fill: #fff;
      }

      .st2 {
        fill: #012970;
      }
    </style>
  </defs>
  <g>
    <path class="st1" d="M27,53.7C12.2,53.7.2,41.7.2,27S12.2.3,27,.3s26.8,12,26.8,26.8-12,26.7-26.8,26.7Z"/>
    <path class="st0" d="M27,.5c14.6,0,26.5,11.9,26.5,26.5s-11.9,26.5-26.5,26.5S.5,41.6.5,27,12.4.5,27,.5M27,0C12.1,0,0,12.1,0,27s12.1,27,27,27,27-12.1,27-27S41.9,0,27,0h0Z"/>
  </g>
  <path class="st2" d="M30.5,24.8l-7.4,7.4-1.2-1.2,7.4-7.4h-6.6v-1.7h9.5v9.5h-1.7v-6.6Z"/>
</svg>