<svg width="34" height="34" viewBox="0 0 34 34" fill="none" xmlns="http://www.w3.org/2000/svg">
<circle cx="17" cy="17" r="17" fill="#EEF2F8"/>
<path d="M19.25 13.625C19.25 13.4758 19.3093 13.3327 19.4148 13.2273C19.5202 13.1218 19.6633 13.0625 19.8125 13.0625H24.3125C24.4617 13.0625 24.6048 13.1218 24.7102 13.2273C24.8157 13.3327 24.875 13.4758 24.875 13.625C24.875 13.7742 24.8157 13.9173 24.7102 14.0227C24.6048 14.1282 24.4617 14.1875 24.3125 14.1875H19.8125C19.6633 14.1875 19.5202 14.1282 19.4148 14.0227C19.3093 13.9173 19.25 13.7742 19.25 13.625ZM17.5625 19.1094C17.5625 19.8926 17.2514 20.6437 16.6975 21.1975C16.1437 21.7514 15.3926 22.0625 14.6094 22.0625H10.25C10.1008 22.0625 9.95774 22.0032 9.85225 21.8977C9.74676 21.7923 9.6875 21.6492 9.6875 21.5V12.5C9.6875 12.3508 9.74676 12.2077 9.85225 12.1023C9.95774 11.9968 10.1008 11.9375 10.25 11.9375H14.3281C14.8661 11.9381 15.3914 12.101 15.8352 12.4051C16.2791 12.7091 16.6208 13.1401 16.8157 13.6415C17.0106 14.143 17.0495 14.6916 16.9275 15.2155C16.8054 15.7395 16.5281 16.2144 16.1316 16.5781C16.5682 16.8408 16.9295 17.2119 17.1802 17.6554C17.4309 18.099 17.5626 18.5999 17.5625 19.1094ZM10.8125 16.1562H14.3281C14.7384 16.1562 15.1318 15.9933 15.4219 15.7032C15.712 15.4131 15.875 15.0196 15.875 14.6094C15.875 14.1991 15.712 13.8057 15.4219 13.5156C15.1318 13.2255 14.7384 13.0625 14.3281 13.0625H10.8125V16.1562ZM16.4375 19.1094C16.4375 18.8693 16.3902 18.6316 16.2983 18.4098C16.2065 18.188 16.0718 17.9865 15.9021 17.8167C15.7323 17.6469 15.5308 17.5123 15.309 17.4204C15.0872 17.3285 14.8494 17.2812 14.6094 17.2812H10.8125V20.9375H14.6094C14.8494 20.9375 15.0872 20.8902 15.309 20.7983C15.5308 20.7065 15.7323 20.5718 15.9021 20.4021C16.0718 20.2323 16.2065 20.0308 16.2983 19.809C16.3902 19.5872 16.4375 19.3494 16.4375 19.1094ZM25.4375 18.6875C25.4375 18.8367 25.3782 18.9798 25.2727 19.0852C25.1673 19.1907 25.0242 19.25 24.875 19.25H19.8828C19.9887 19.6604 20.2084 20.0326 20.5165 20.3237C20.8247 20.6147 21.2088 20.8128 21.6246 20.8951C22.0405 20.9774 22.4711 20.9406 22.8669 20.7888C23.2627 20.6371 23.6075 20.3767 23.8618 20.0375C23.9062 19.9784 23.9617 19.9286 24.0253 19.891C24.0889 19.8534 24.1593 19.8287 24.2325 19.8183C24.3057 19.8078 24.3801 19.8119 24.4517 19.8303C24.5233 19.8487 24.5906 19.881 24.6496 19.9254C24.7087 19.9697 24.7585 20.0253 24.7961 20.0889C24.8338 20.1525 24.8585 20.2229 24.8689 20.2961C24.8793 20.3692 24.8752 20.4437 24.8568 20.5153C24.8385 20.5869 24.8062 20.6541 24.7618 20.7132C24.2808 21.3541 23.5874 21.803 22.8057 21.9794C22.024 22.1559 21.205 22.0484 20.4953 21.6763C19.7856 21.3042 19.2314 20.6917 18.932 19.9484C18.6325 19.2051 18.6073 18.3795 18.8609 17.6193C19.1145 16.8592 19.6303 16.214 20.316 15.7993C21.0017 15.3846 21.8126 15.2274 22.6036 15.3559C23.3946 15.4844 24.114 15.8901 24.6333 16.5005C25.1525 17.1109 25.4376 17.8861 25.4375 18.6875ZM24.2422 18.125C24.1183 17.641 23.8368 17.212 23.4421 16.9057C23.0475 16.5994 22.5621 16.4331 22.0625 16.4331C21.5629 16.4331 21.0775 16.5994 20.6829 16.9057C20.2882 17.212 20.0067 17.641 19.8828 18.125H24.2422Z" fill="#012970"/>
</svg>
