<svg width="22" height="22" viewBox="0 0 22 22" fill="none" xmlns="http://www.w3.org/2000/svg">
<path d="M19.8438 14.7812C19.9346 14.9388 19.9593 15.1259 19.9124 15.3016C19.8656 15.4773 19.751 15.6273 19.5938 15.7188L11.3438 20.5313C11.2386 20.5926 11.1191 20.6249 10.9974 20.6249C10.8757 20.6249 10.7562 20.5926 10.6511 20.5313L2.40109 15.7188C2.24614 15.6256 2.1341 15.4753 2.08923 15.3001C2.04435 15.125 2.07026 14.9393 2.16133 14.7831C2.2524 14.627 2.40132 14.513 2.57583 14.4658C2.75034 14.4186 2.93641 14.4421 3.09375 14.5311L11 19.1416L18.9062 14.5311C19.0638 14.4403 19.251 14.4156 19.4267 14.4625C19.6024 14.5094 19.7524 14.624 19.8438 14.7812ZM18.9062 10.4061L11 15.0167L3.09375 10.4061C2.93721 10.3282 2.75685 10.3128 2.58939 10.3632C2.42192 10.4135 2.27994 10.5258 2.19233 10.6771C2.10472 10.8285 2.07808 11.0075 2.11782 11.1778C2.15756 11.3481 2.2607 11.4968 2.40625 11.5938L10.6562 16.4063C10.7614 16.4676 10.8809 16.4999 11.0026 16.4999C11.1243 16.4999 11.2438 16.4676 11.3489 16.4063L19.5989 11.5938C19.6781 11.5489 19.7477 11.4888 19.8035 11.4169C19.8593 11.345 19.9003 11.2627 19.924 11.1748C19.9478 11.0869 19.9539 10.9951 19.9419 10.9049C19.9299 10.8146 19.9001 10.7277 19.8542 10.649C19.8084 10.5704 19.7473 10.5016 19.6747 10.4468C19.602 10.3919 19.5192 10.352 19.431 10.3294C19.3428 10.3068 19.251 10.302 19.1609 10.3151C19.0709 10.3283 18.9843 10.3592 18.9062 10.4061ZM2.0625 6.87493C2.06277 6.75452 2.09467 6.63628 2.155 6.53207C2.21532 6.42785 2.30197 6.34131 2.40625 6.2811L10.6562 1.4686C10.7614 1.4073 10.8809 1.375 11.0026 1.375C11.1243 1.375 11.2438 1.4073 11.3489 1.4686L19.5989 6.2811C19.7027 6.34165 19.7888 6.42834 19.8486 6.53253C19.9085 6.63672 19.94 6.75478 19.94 6.87493C19.94 6.99508 19.9085 7.11314 19.8486 7.21733C19.7888 7.32152 19.7027 7.40821 19.5989 7.46876L11.3489 12.2813C11.2438 12.3426 11.1243 12.3749 11.0026 12.3749C10.8809 12.3749 10.7614 12.3426 10.6562 12.2813L2.40625 7.46876C2.30197 7.40855 2.21532 7.32201 2.155 7.21779C2.09467 7.11358 2.06277 6.99535 2.0625 6.87493ZM4.11469 6.87493L11 10.8916L17.8853 6.87493L11 2.85821L4.11469 6.87493Z" fill="#012970"/>
</svg>
