<svg width="62" height="72" viewBox="0 0 62 72" fill="none" xmlns="http://www.w3.org/2000/svg">
<path d="M41.0301 16.632V5.16071C41.0301 2.79371 39.1114 0.875 36.7444 0.875H5.16072C2.79371 0.875 0.875 2.79371 0.875 5.16071V66.5893C0.875 68.9563 2.79371 70.875 5.16072 70.875H36.7444C39.1114 70.875 41.0301 68.9563 41.0301 66.5893V55.118" stroke="#012970" stroke-width="1.75" stroke-miterlimit="10" stroke-linejoin="round"/>
<path d="M30.9597 0.875V6.73157C30.9597 8.30957 29.6806 9.58871 28.1026 9.58871H13.8044C12.2264 9.58871 10.9473 8.30957 10.9473 6.73157V0.875" stroke="#012970" stroke-width="1.75" stroke-miterlimit="10" stroke-linejoin="round"/>
<path d="M30.9597 62.1613H10.9473" stroke="#012970" stroke-width="1.75" stroke-miterlimit="10" stroke-linecap="round" stroke-linejoin="round"/>
<path d="M60.2767 39.2828V32.4677L57.1917 31.7666C56.7934 30.1957 56.1719 28.7143 55.3633 27.357L57.0502 24.678L52.2312 19.859L49.5522 21.5458C48.1949 20.7373 46.7134 20.1157 45.1426 19.7174L44.4414 16.6324H37.6263L36.9252 19.7174C35.3543 20.1157 33.8729 20.7373 32.5156 21.5458L29.8366 19.859L25.0176 24.678L26.7044 27.357C25.8959 28.7143 25.2743 30.1957 24.876 31.7666L21.791 32.4677V39.2828L24.876 39.984C25.2743 41.5548 25.8959 43.0363 26.7044 44.3936L25.0176 47.0726L29.8366 51.8916L32.5156 50.2047C33.8729 51.0133 35.3543 51.6348 36.9252 52.0331L37.6263 55.1181H44.4414L45.1426 52.0331C46.7134 51.6348 48.1949 51.0133 49.5522 50.2047L52.2312 51.8916L57.0502 47.0726L55.3633 44.3936C56.1719 43.0363 56.7934 41.5548 57.1917 39.984L60.2767 39.2828Z" stroke="#012970" stroke-width="1.75" stroke-miterlimit="10" stroke-linecap="round" stroke-linejoin="round"/>
<path d="M41.0348 46.0262C46.641 46.0262 51.1858 41.4815 51.1858 35.8752C51.1858 30.269 46.641 25.7242 41.0348 25.7242C35.4285 25.7242 30.8838 30.269 30.8838 35.8752C30.8838 41.4815 35.4285 46.0262 41.0348 46.0262Z" stroke="#012970" stroke-width="1.75" stroke-miterlimit="10" stroke-linecap="round" stroke-linejoin="round"/>
<path d="M36.7725 35.2176L40.0503 38.4956L45.2909 33.255" stroke="#3075CA" stroke-width="1.75" stroke-miterlimit="10" stroke-linecap="round" stroke-linejoin="round"/>
</svg>
