<svg width="34" height="34" viewBox="0 0 34 34" fill="none" xmlns="http://www.w3.org/2000/svg">
<circle cx="17" cy="17" r="17" fill="#EEF2F8"/>
<path d="M17 9.6875C15.5537 9.6875 14.1399 10.1164 12.9374 10.9199C11.7349 11.7234 10.7976 12.8654 10.2441 14.2016C9.69067 15.5378 9.54586 17.0081 9.82801 18.4266C10.1102 19.8451 10.8066 21.148 11.8293 22.1707C12.852 23.1934 14.1549 23.8898 15.5734 24.172C16.9919 24.4541 18.4622 24.3093 19.7984 23.7559C21.1346 23.2024 22.2766 22.2651 23.0801 21.0626C23.8836 19.8601 24.3125 18.4463 24.3125 17C24.3105 15.0612 23.5394 13.2025 22.1685 11.8315C20.7975 10.4606 18.9388 9.68955 17 9.6875ZM23.1629 16.4502C22.9838 16.4417 22.8045 16.4375 22.625 16.4375C21.5816 16.4378 20.5428 16.5759 19.5355 16.8481C19.2899 16.1194 18.9731 15.4166 18.5898 14.75C19.5896 14.1471 20.4947 13.3995 21.2757 12.5316C22.3594 13.5656 23.0301 14.9583 23.1629 16.4502ZM20.3947 11.8292C19.6921 12.6012 18.88 13.266 17.9844 13.8022C17.2343 12.7464 16.3168 11.8201 15.2682 11.06C16.1284 10.8089 17.0329 10.7476 17.9192 10.8804C18.8054 11.0132 19.6522 11.337 20.401 11.8292H20.3947ZM14.0223 11.5775C15.1716 12.3013 16.1736 13.236 16.9754 14.3323C15.5721 14.9791 14.0452 15.3135 12.5 15.3125C12.0231 15.3123 11.5468 15.2805 11.0741 15.2176C11.5444 13.6661 12.6024 12.3599 14.0223 11.5775ZM10.8125 17C10.8125 16.7735 10.8249 16.5473 10.8498 16.3222C11.3965 16.3989 11.9479 16.4375 12.5 16.4375C14.2645 16.4392 16.007 16.0451 17.5991 15.2844C17.9498 15.8901 18.2398 16.5291 18.4646 17.192C17.8671 17.4164 17.2888 17.6892 16.7356 18.0076C15.1923 18.8992 13.869 20.1261 12.8635 21.5977C12.2178 21.0185 11.7014 20.3096 11.348 19.5174C10.9946 18.7252 10.8122 17.8675 10.8125 17ZM13.7656 22.2734C14.6785 20.9232 15.8865 19.7982 17.2981 18.9835C17.7701 18.7111 18.2626 18.4761 18.7712 18.2804C18.9452 19.0528 19.0332 19.842 19.0334 20.6337C19.0338 21.4035 18.9515 22.171 18.788 22.9231C17.9525 23.1755 17.0729 23.2482 16.2073 23.1362C15.3416 23.0242 14.5095 22.7302 13.7656 22.2734ZM20.0277 22.3951C20.1145 21.8132 20.1582 21.2256 20.1584 20.6373C20.1583 19.7266 20.0533 18.819 19.8456 17.9323C20.7518 17.6878 21.6863 17.5634 22.625 17.5625C22.8031 17.5625 22.9815 17.567 23.1601 17.5759C23.0659 18.5723 22.7318 19.5311 22.1863 20.3702C21.6408 21.2094 20.9001 21.9039 20.0277 22.3944V22.3951Z" fill="#012970"/>
</svg>
