<svg width="24" height="24" viewBox="0 0 24 24" fill="none" xmlns="http://www.w3.org/2000/svg">
<g clip-path="url(#clip0_6390_1510)">
<mask id="mask0_6390_1510" style="mask-type:luminance" maskUnits="userSpaceOnUse" x="1" y="1" width="22" height="22">
<path d="M1 1H23V23H1V1Z" fill="white"/>
</mask>
<g mask="url(#mask0_6390_1510)">
<path d="M15.3802 18.7604V13.7188C15.3802 12.7695 14.6107 12 13.6615 12H10.3386C9.3893 12 8.61982 12.7695 8.61982 13.7188V18.7604H15.3802ZM12 1.85938C13.0941 1.85938 14.1556 2.2317 15.0099 2.91516L20.8505 7.58767C21.6659 8.24002 22.1406 9.22766 22.1406 10.2719V19.5625C22.1406 20.9864 20.9864 22.1406 19.5625 22.1406H4.4375C3.01364 22.1406 1.85938 20.9864 1.85938 19.5625V10.2719C1.85938 9.22766 2.33409 8.24002 3.14951 7.58767L8.99017 2.91516C9.84447 2.2317 10.906 1.85938 12 1.85938Z" stroke="white" stroke-width="1.3" stroke-miterlimit="10" stroke-linecap="round" stroke-linejoin="round"/>
</g>
</g>
<defs>
<clipPath id="clip0_6390_1510">
<rect width="22" height="22" fill="white" transform="translate(1 1)"/>
</clipPath>
</defs>
</svg>
