<svg width="24" height="24" viewBox="0 0 24 24" fill="none" xmlns="http://www.w3.org/2000/svg">
<path d="M17.9999 9C18.6295 8.52776 19.0946 7.86939 19.3293 7.11813C19.564 6.36687 19.5563 5.56082 19.3074 4.81415C19.0586 4.06748 18.581 3.41804 17.9425 2.95784C17.3041 2.49764 16.5369 2.25 15.7499 2.25H8.99989C8.21283 2.25 7.44572 2.49764 6.80722 2.95784C6.16873 3.41804 5.69121 4.06748 5.44232 4.81415C5.19343 5.56082 5.18578 6.36687 5.42046 7.11813C5.65513 7.86939 6.12024 8.52776 6.74988 9C6.27315 9.35728 5.8884 9.823 5.6275 10.3586C5.3666 10.8942 5.23706 11.4842 5.24961 12.0798C5.26217 12.6755 5.41645 13.2595 5.69969 13.7837C5.98292 14.3078 6.38696 14.7569 6.87832 15.0938C6.31942 15.5187 5.87822 16.0792 5.59651 16.7223C5.3148 17.3654 5.20189 18.0698 5.26848 18.7687C5.33507 19.4676 5.57896 20.138 5.97704 20.7163C6.37513 21.2947 6.91424 21.7618 7.54333 22.0735C8.17242 22.3853 8.87067 22.5313 9.57196 22.4978C10.2733 22.4642 10.9544 22.2522 11.5508 21.8819C12.1473 21.5115 12.6394 20.995 12.9804 20.3814C13.3215 19.7677 13.5003 19.0771 13.4999 18.375V15C14.2955 15.5967 15.2956 15.853 16.2802 15.7123C17.2648 15.5717 18.1531 15.0456 18.7499 14.25C19.3466 13.4544 19.6028 12.4542 19.4622 11.4697C19.3215 10.4851 18.7955 9.59674 17.9999 9ZM17.9999 6C17.9999 6.59674 17.7628 7.16903 17.3409 7.59099C16.9189 8.01295 16.3466 8.25 15.7499 8.25H13.4999V3.75H15.7499C16.3466 3.75 16.9189 3.98705 17.3409 4.40901C17.7628 4.83097 17.9999 5.40326 17.9999 6ZM6.74988 6C6.74988 5.40326 6.98694 4.83097 7.40889 4.40901C7.83085 3.98705 8.40315 3.75 8.99989 3.75H11.9999V8.25H8.99989C8.40315 8.25 7.83085 8.01295 7.40889 7.59099C6.98694 7.16903 6.74988 6.59674 6.74988 6ZM8.99989 14.25C8.40315 14.25 7.83085 14.0129 7.40889 13.591C6.98694 13.169 6.74988 12.5967 6.74988 12C6.74988 11.4033 6.98694 10.831 7.40889 10.409C7.83085 9.98705 8.40315 9.75 8.99989 9.75H11.9999V14.25H8.99989ZM11.9999 18.375C11.9999 18.8942 11.8459 19.4017 11.5575 19.8334C11.2691 20.2651 10.8591 20.6015 10.3794 20.8002C9.89977 20.9989 9.37197 21.0508 8.86277 20.9496C8.35357 20.8483 7.88584 20.5983 7.51873 20.2312C7.15162 19.864 6.90161 19.3963 6.80032 18.8871C6.69904 18.3779 6.75102 17.8501 6.9497 17.3705C7.14838 16.8908 7.48483 16.4808 7.91651 16.1924C8.34819 15.904 8.85571 15.75 9.37489 15.75H11.9999V18.375ZM15.7499 14.25C15.3049 14.25 14.8699 14.118 14.4999 13.8708C14.1298 13.6236 13.8415 13.2722 13.6712 12.861C13.5009 12.4499 13.4563 11.9975 13.5431 11.561C13.6299 11.1246 13.8442 10.7237 14.1589 10.409C14.4736 10.0943 14.8745 9.88005 15.3109 9.79323C15.7474 9.70642 16.1998 9.75097 16.6109 9.92127C17.0221 10.0916 17.3735 10.38 17.6207 10.75C17.8679 11.12 17.9999 11.555 17.9999 12C17.9999 12.5967 17.7628 13.169 17.3409 13.591C16.9189 14.0129 16.3466 14.25 15.7499 14.25Z" fill="#171717"/>
</svg>
