<svg width="24" height="24" viewBox="0 0 24 24" fill="none" xmlns="http://www.w3.org/2000/svg">
<path d="M11.1487 15.5163C10.4364 15.7556 9.69012 15.8776 8.93878 15.8776C5.10657 15.8776 2 12.7709 2 8.93878C2 5.10661 5.10661 2 8.93878 2C12.7709 2 15.8776 5.10661 15.8776 8.93878C15.8776 9.67878 15.7592 10.414 15.5269 11.1167" stroke="#012970" stroke-width="1.3" stroke-miterlimit="2.6131" stroke-linecap="round" stroke-linejoin="round"/>
<path d="M10.482 13.7658C9.98313 13.9253 9.4626 14.0065 8.93885 14.0065C6.13999 14.0065 3.87109 11.7376 3.87109 8.93873C3.87109 6.13987 6.14003 3.87097 8.93885 3.87097C11.7377 3.87097 14.0066 6.13987 14.0066 8.93873C14.0066 9.44967 13.9293 9.95767 13.7774 10.4455" stroke="#012970" stroke-width="1.3" stroke-miterlimit="2.6131" stroke-linecap="round" stroke-linejoin="round"/>
<path fill-rule="evenodd" clip-rule="evenodd" d="M8.93896 8.93872L22.0002 13.756L16.1152 16.115L13.7562 21.9999L8.93896 8.93872Z" stroke="#012970" stroke-width="1.3" stroke-miterlimit="2.6131" stroke-linecap="round" stroke-linejoin="round"/>
</svg>
