<svg width="124" height="164" viewBox="0 0 124 164" fill="none" xmlns="http://www.w3.org/2000/svg">
<circle cx="2" cy="152" r="2" fill="#3075CA"/>
<circle cx="2" cy="142" r="2" fill="#3075CA"/>
<circle cx="2" cy="132" r="2" fill="#3075CA"/>
<circle cx="2" cy="122" r="2" fill="#3075CA"/>
<circle cx="12" cy="122" r="2" fill="#3075CA"/>
<circle cx="22" cy="122" r="2" fill="#3075CA"/>
<circle cx="32" cy="122" r="2" fill="#3075CA"/>
<circle cx="42" cy="122" r="2" fill="#3075CA"/>
<circle cx="42" cy="112" r="2" fill="#3075CA"/>
<circle cx="42" cy="102" r="2" fill="#3075CA"/>
<circle cx="42" cy="92" r="2" fill="#3075CA"/>
<circle cx="42" cy="82" r="2" fill="#3075CA"/>
<circle cx="52" cy="82" r="2" fill="#3075CA"/>
<circle cx="62" cy="82" r="2" fill="#3075CA"/>
<circle cx="72" cy="82" r="2" fill="#3075CA"/>
<circle cx="82" cy="82" r="2" fill="#3075CA"/>
<circle cx="82" cy="72" r="2" fill="#3075CA"/>
<circle cx="82" cy="62" r="2" fill="#3075CA"/>
<circle cx="82" cy="52" r="2" fill="white" fill-opacity="0.25"/>
<circle cx="82" cy="42" r="2" fill="white" fill-opacity="0.25"/>
<circle cx="92" cy="42" r="2" fill="white" fill-opacity="0.25"/>
<circle cx="102" cy="42" r="2" fill="white" fill-opacity="0.25"/>
<circle cx="112" cy="42" r="2" fill="white" fill-opacity="0.25"/>
<circle cx="122" cy="42" r="2" fill="white" fill-opacity="0.25"/>
<circle cx="122" cy="32" r="2" fill="white" fill-opacity="0.25"/>
<circle cx="122" cy="22" r="2" fill="white" fill-opacity="0.25"/>
<circle cx="122" cy="12" r="2" fill="white" fill-opacity="0.25"/>
<circle cx="122" cy="2" r="2" fill="white" fill-opacity="0.25"/>
<circle cx="2" cy="161.947" r="2" fill="#3075CA"/>
</svg>
