<svg width="34" height="34" viewBox="0 0 34 34" fill="none" xmlns="http://www.w3.org/2000/svg">
<circle cx="17" cy="17" r="17" fill="#EEF2F8"/>
<path d="M23.1875 9.6875H10.8125C10.5141 9.6875 10.228 9.80603 10.017 10.017C9.80603 10.228 9.6875 10.5141 9.6875 10.8125V23.1875C9.6875 23.4859 9.80603 23.772 10.017 23.983C10.228 24.194 10.5141 24.3125 10.8125 24.3125H23.1875C23.4859 24.3125 23.772 24.194 23.983 23.983C24.194 23.772 24.3125 23.4859 24.3125 23.1875V10.8125C24.3125 10.5141 24.194 10.228 23.983 10.017C23.772 9.80603 23.4859 9.6875 23.1875 9.6875ZM23.1875 23.1875H10.8125V10.8125H23.1875V23.1875ZM14.75 15.875V20.375C14.75 20.5242 14.6907 20.6673 14.5852 20.7727C14.4798 20.8782 14.3367 20.9375 14.1875 20.9375C14.0383 20.9375 13.8952 20.8782 13.7898 20.7727C13.6843 20.6673 13.625 20.5242 13.625 20.375V15.875C13.625 15.7258 13.6843 15.5827 13.7898 15.4773C13.8952 15.3718 14.0383 15.3125 14.1875 15.3125C14.3367 15.3125 14.4798 15.3718 14.5852 15.4773C14.6907 15.5827 14.75 15.7258 14.75 15.875ZM20.9375 17.8438V20.375C20.9375 20.5242 20.8782 20.6673 20.7727 20.7727C20.6673 20.8782 20.5242 20.9375 20.375 20.9375C20.2258 20.9375 20.0827 20.8782 19.9773 20.7727C19.8718 20.6673 19.8125 20.5242 19.8125 20.375V17.8438C19.8125 17.4708 19.6643 17.1131 19.4006 16.8494C19.1369 16.5857 18.7792 16.4375 18.4062 16.4375C18.0333 16.4375 17.6756 16.5857 17.4119 16.8494C17.1482 17.1131 17 17.4708 17 17.8438V20.375C17 20.5242 16.9407 20.6673 16.8352 20.7727C16.7298 20.8782 16.5867 20.9375 16.4375 20.9375C16.2883 20.9375 16.1452 20.8782 16.0398 20.7727C15.9343 20.6673 15.875 20.5242 15.875 20.375V15.875C15.8757 15.7372 15.9269 15.6045 16.019 15.502C16.1111 15.3995 16.2376 15.3343 16.3745 15.3189C16.5114 15.3035 16.6492 15.3388 16.7618 15.4182C16.8744 15.4977 16.9539 15.6157 16.9852 15.7498C17.3658 15.4917 17.8094 15.3421 18.2685 15.3171C18.7277 15.2921 19.185 15.3926 19.5913 15.6079C19.9976 15.8231 20.3376 16.145 20.5748 16.5389C20.8119 16.9328 20.9373 17.3839 20.9375 17.8438ZM15.0312 13.9062C15.0312 14.0731 14.9818 14.2363 14.8891 14.375C14.7963 14.5138 14.6646 14.6219 14.5104 14.6858C14.3562 14.7496 14.1866 14.7663 14.0229 14.7338C13.8592 14.7012 13.7089 14.6209 13.5909 14.5029C13.4729 14.3849 13.3925 14.2345 13.36 14.0709C13.3274 13.9072 13.3441 13.7375 13.408 13.5834C13.4718 13.4292 13.58 13.2974 13.7187 13.2047C13.8575 13.112 14.0206 13.0625 14.1875 13.0625C14.4113 13.0625 14.6259 13.1514 14.7841 13.3096C14.9424 13.4679 15.0312 13.6825 15.0312 13.9062Z" fill="#012970"/>
</svg>
