<svg width="64" height="32" viewBox="0 0 64 32" fill="none" xmlns="http://www.w3.org/2000/svg">
<path d="M1.65454 18.5203H3.46761V27.236H1.65454V18.5203Z" fill="#919191"/>
<path d="M4.51919 24.2497C4.51799 23.6237 4.70625 23.0114 5.06014 22.4903C5.41402 21.9692 5.91763 21.5627 6.50724 21.3224C7.09681 21.082 7.7459 21.0185 8.37233 21.1399C8.99876 21.2613 9.57438 21.5622 10.0263 22.0045C10.4782 22.4467 10.7862 23.0105 10.9112 23.6244C11.0363 24.2383 10.9727 24.8748 10.7286 25.4533C10.4845 26.0317 10.0709 26.5262 9.54001 26.8741C9.00919 27.2221 8.385 27.4078 7.74647 27.4078C7.32177 27.4125 6.90046 27.3342 6.50711 27.1772C6.11378 27.0203 5.75635 26.7879 5.45578 26.4938C5.15521 26.1997 4.91754 25.8497 4.75672 25.4643C4.59589 25.079 4.51514 24.6661 4.51919 24.2497ZM9.14852 24.2497C9.14142 23.9795 9.05316 23.7173 8.89482 23.496C8.73649 23.2746 8.51511 23.104 8.25834 23.0054C8.00158 22.9067 7.72087 22.8846 7.45137 22.9416C7.1818 22.9985 6.9354 23.1322 6.74289 23.3258C6.55044 23.5193 6.42046 23.7643 6.36922 24.0299C6.31799 24.2955 6.3478 24.5701 6.45489 24.8192C6.56202 25.0683 6.74167 25.281 6.97137 25.4305C7.20113 25.58 7.4707 25.6598 7.74647 25.6599C7.93508 25.6651 8.12279 25.6319 8.2977 25.5624C8.47262 25.4929 8.63095 25.3886 8.76273 25.2561C8.89444 25.1235 8.99678 24.9657 9.06314 24.7926C9.12958 24.6193 9.15863 24.4345 9.14852 24.2497Z" fill="#919191"/>
<path d="M18.2621 21.2633V26.9395C18.2621 28.9481 16.6606 29.7954 15.0409 29.7954C14.4714 29.8369 13.9011 29.724 13.3927 29.469C12.8842 29.214 12.4571 28.8268 12.1582 28.3497L13.7174 27.4669C13.8411 27.7113 14.0369 27.9138 14.2793 28.048C14.5218 28.1821 14.7997 28.2418 15.0772 28.2193C15.2597 28.2492 15.4469 28.2375 15.6242 28.1852C15.8014 28.1329 15.9641 28.0414 16.0995 27.9178C16.235 27.7941 16.3397 27.6416 16.4055 27.472C16.4714 27.3024 16.4966 27.1202 16.4793 26.9395V26.3885C16.2661 26.6456 15.9941 26.8498 15.6855 26.9847C15.3768 27.1195 15.04 27.1812 14.7025 27.1647C13.8818 27.1647 13.0948 26.8451 12.5145 26.2762C11.9342 25.7073 11.6082 24.9356 11.6082 24.131C11.6082 23.3265 11.9342 22.5549 12.5145 21.986C13.0948 21.4171 13.8818 21.0974 14.7025 21.0974C15.0398 21.0823 15.3761 21.1446 15.6846 21.2793C15.9931 21.4141 16.2652 21.6176 16.4793 21.8736V21.2811L18.2621 21.2633ZM16.4793 24.131C16.4914 23.8429 16.4152 23.5578 16.2607 23.3123C16.1061 23.0669 15.8803 22.8724 15.6121 22.7539C15.344 22.6353 15.0457 22.5981 14.7558 22.647C14.4659 22.6959 14.1975 22.8288 13.9852 23.0284C13.7729 23.228 13.6263 23.4853 13.5644 23.7672C13.5024 24.0492 13.5278 24.3429 13.6375 24.6105C13.7471 24.8781 13.9358 25.1075 14.1795 25.2691C14.4231 25.4308 14.7105 25.5173 15.0046 25.5175C15.1967 25.5308 15.3894 25.5046 15.5704 25.4404C15.7515 25.3762 15.9168 25.2756 16.0557 25.145C16.1946 25.0144 16.3041 24.8566 16.377 24.682C16.45 24.5074 16.4848 24.3197 16.4793 24.131Z" fill="#919191"/>
<path d="M19.3078 24.2497C19.3065 23.6237 19.4948 23.0114 19.8487 22.4903C20.2026 21.9692 20.7062 21.5627 21.2958 21.3224C21.8854 21.082 22.5345 21.0185 23.1609 21.1399C23.7873 21.2613 24.3629 21.5622 24.8149 22.0045C25.2668 22.4467 25.5748 23.0105 25.6998 23.6244C25.8248 24.2383 25.7613 24.8748 25.5172 25.4533C25.2731 26.0317 24.8594 26.5262 24.3286 26.8741C23.7977 27.2221 23.1736 27.4078 22.535 27.4078C22.1104 27.4125 21.689 27.3342 21.2957 27.1772C20.9023 27.0203 20.5449 26.7879 20.2443 26.4938C19.9438 26.1997 19.7061 25.8497 19.5453 25.4643C19.3844 25.079 19.3037 24.6661 19.3078 24.2497ZM23.9371 24.2497C23.93 23.9795 23.8417 23.7173 23.6834 23.496C23.525 23.2746 23.3037 23.104 23.0469 23.0054C22.7902 22.9067 22.5095 22.8846 22.2399 22.9416C21.9704 22.9985 21.724 23.1322 21.5314 23.3258C21.339 23.5193 21.209 23.7643 21.1577 24.0299C21.1065 24.2955 21.1364 24.5701 21.2434 24.8192C21.3506 25.0683 21.5302 25.281 21.7599 25.4305C21.9897 25.58 22.2593 25.6598 22.535 25.6599C22.7227 25.6634 22.909 25.629 23.0825 25.5587C23.256 25.4885 23.4129 25.3839 23.5433 25.2516C23.6737 25.1193 23.7749 24.962 23.8406 24.7897C23.9063 24.6173 23.935 24.4335 23.925 24.2497H23.9371Z" fill="#919191"/>
<path d="M26.6023 19.6638C26.6023 19.4505 26.6668 19.242 26.7876 19.0647C26.9085 18.8874 27.0803 18.7492 27.2813 18.6675C27.4823 18.5859 27.7034 18.5646 27.9168 18.6062C28.1302 18.6478 28.3261 18.7505 28.48 18.9013C28.6338 19.0521 28.7385 19.2442 28.781 19.4534C28.8235 19.6626 28.8017 19.8795 28.7185 20.0765C28.6352 20.2735 28.4942 20.442 28.3133 20.5604C28.1324 20.6789 27.9198 20.7421 27.7022 20.7421C27.411 20.7406 27.1322 20.6265 26.9262 20.4246C26.7202 20.2227 26.6039 19.9494 26.6023 19.6638ZM26.7896 21.2635H28.6027V27.236H26.7896V21.2635Z" fill="#919191"/>
<path d="M36.5077 24.2497C36.5296 24.6445 36.4718 25.0397 36.3374 25.4124C36.2029 25.7852 35.9946 26.1282 35.7244 26.4217C35.4542 26.7153 35.1275 26.9535 34.763 27.1227C34.3985 27.292 34.0035 27.3888 33.6007 27.4078C33.2625 27.4237 32.9249 27.3667 32.6117 27.2408C32.2984 27.1148 32.0171 26.9231 31.7877 26.679V29.6415H29.9746V21.2635H31.7877V21.8264C32.0171 21.5823 32.2984 21.3905 32.6117 21.2646C32.9249 21.1387 33.2625 21.0817 33.6007 21.0976C34.003 21.1165 34.3975 21.2132 34.7616 21.3821C35.1256 21.551 35.4521 21.7886 35.7222 22.0815C35.9923 22.3744 36.2007 22.7167 36.3355 23.0888C36.4704 23.4609 36.5288 23.8554 36.5077 24.2497ZM34.6946 24.2497C34.6874 23.9716 34.5972 23.7017 34.4351 23.4734C34.273 23.2451 34.0462 23.0683 33.7827 22.9652C33.5192 22.862 33.2305 22.8368 32.9527 22.8928C32.6747 22.9488 32.4196 23.0835 32.219 23.2802C32.0183 23.4769 31.881 23.727 31.8238 23.9995C31.7667 24.272 31.7924 24.5549 31.8976 24.8132C32.0029 25.0715 32.1831 25.294 32.416 25.4528C32.6489 25.6118 32.9242 25.7002 33.2079 25.7073C33.4058 25.7196 33.6042 25.6903 33.7896 25.6212C33.9751 25.5522 34.1432 25.445 34.283 25.307C34.4226 25.1688 34.5306 25.0031 34.5995 24.8207C34.6684 24.6384 34.6967 24.4437 34.6825 24.2497H34.6946Z" fill="#919191"/>
<path d="M42.1522 25.4466C42.1522 26.8212 40.9435 27.4078 39.6139 27.4078C39.0828 27.4539 38.5497 27.3431 38.0833 27.0896C37.617 26.8362 37.2387 26.4518 36.9971 25.9858L38.5805 25.1029C38.6447 25.3185 38.7823 25.5059 38.9703 25.6342C39.1583 25.7625 39.3854 25.8238 39.6139 25.808C40.0551 25.808 40.2727 25.6717 40.2727 25.4347C40.2727 24.777 37.2509 25.1267 37.2509 23.0647C37.2509 21.7612 38.375 21.1035 39.6683 21.1035C40.1455 21.0893 40.618 21.2004 41.0367 21.4255C41.4554 21.6505 41.805 21.9812 42.0495 22.3833L40.46 23.201C40.3898 23.0445 40.2748 22.9114 40.1288 22.8178C39.9829 22.7241 39.8125 22.6741 39.6381 22.6736C39.3239 22.6736 39.1304 22.7922 39.1304 23.0114C39.1546 23.6927 42.1522 23.2365 42.1522 25.4466Z" fill="#919191"/>
<path d="M48.8245 21.2634V27.2359H47.0114V26.679C46.8005 26.9264 46.5329 27.1214 46.2303 27.2481C45.9279 27.3748 45.599 27.4295 45.2708 27.4077C44.0621 27.4077 42.9924 26.5486 42.9924 24.9311V21.2634H44.8055V24.6704C44.7896 24.8156 44.8068 24.9624 44.856 25.1002C44.9051 25.2381 44.9849 25.3634 45.0897 25.4673C45.1944 25.5711 45.3215 25.6508 45.4615 25.7004C45.6015 25.7502 45.7512 25.7687 45.8994 25.7547C46.5642 25.7547 47.0296 25.3754 47.0296 24.5282V21.2634H48.8245Z" fill="#919191"/>
<path d="M59.3038 23.5742V27.2359H57.4907V23.7283C57.4907 23.1358 57.1946 22.7448 56.6144 22.7448C56.0342 22.7448 55.6595 23.1655 55.6595 23.8705V27.2359H53.8465V23.7283C53.8465 23.1358 53.5563 22.7448 52.9701 22.7448C52.3839 22.7448 52.0213 23.1655 52.0213 23.8705V27.2359H50.2083V21.2635H52.0213V21.8146C52.2108 21.5712 52.4593 21.3781 52.7443 21.2529C53.0293 21.1277 53.3417 21.0743 53.6531 21.0976C53.9658 21.0827 54.2771 21.1475 54.5567 21.2856C54.8363 21.4237 55.0746 21.6304 55.2486 21.8856C55.4508 21.6188 55.7188 21.4065 56.0274 21.2687C56.336 21.131 56.6752 21.072 57.0132 21.0976C58.3912 21.0976 59.3038 22.0812 59.3038 23.5742Z" fill="#919191"/>
<path d="M60.8511 21.2279C61.5988 21.2279 62.2048 20.6337 62.2048 19.9007C62.2048 19.1677 61.5988 18.5735 60.8511 18.5735C60.1035 18.5735 59.4973 19.1677 59.4973 19.9007C59.4973 20.6337 60.1035 21.2279 60.8511 21.2279Z" fill="#919191"/>
<path d="M22.1722 13.9994C25.6735 13.9994 28.5119 11.2166 28.5119 7.78396C28.5119 4.35132 25.6735 1.5686 22.1722 1.5686C18.6709 1.5686 15.8325 4.35132 15.8325 7.78396C15.8325 11.2166 18.6709 13.9994 22.1722 13.9994Z" fill="#919191"/>
<path d="M36.3444 13.9994C39.8457 13.9994 42.684 11.2166 42.684 7.78396C42.684 4.35132 39.8457 1.5686 36.3444 1.5686C32.843 1.5686 30.0046 4.35132 30.0046 7.78396C30.0046 11.2166 32.843 13.9994 36.3444 13.9994Z" fill="#919191"/>
<path d="M14.3398 1.5686H1.6665V13.9934H14.3398V1.5686Z" fill="#919191"/>
</svg>
