<svg width="13" height="13" viewBox="0 0 13 13" fill="none" xmlns="http://www.w3.org/2000/svg">
<g opacity="0.4" clip-path="url(#clip0_6060_486)">
<path d="M12.1214 5.20297L3.18949 1.88949L3.1768 1.88492C2.9967 1.82261 2.80271 1.81223 2.61699 1.85496C2.43127 1.8977 2.26133 1.99182 2.12657 2.12657C1.99182 2.26133 1.8977 2.43127 1.85496 2.61699C1.81223 2.80271 1.82261 2.9967 1.88492 3.1768L1.88949 3.18949L5.20297 12.1214C5.27321 12.319 5.40288 12.49 5.57418 12.6109C5.74548 12.7318 5.95001 12.7968 6.15969 12.7968H6.17746C6.39166 12.7931 6.59919 12.7217 6.77039 12.5929C6.94159 12.4642 7.06768 12.2845 7.13063 12.0798L7.1352 12.065L8.21328 8.21328L12.065 7.1352L12.0798 7.13063C12.2845 7.06835 12.4644 6.94298 12.5936 6.77242C12.7229 6.60186 12.795 6.39483 12.7996 6.18087C12.8042 5.9669 12.7411 5.75695 12.6193 5.58098C12.4976 5.405 12.3233 5.27199 12.1214 5.20094V5.20297ZM7.55465 7.13266C7.45387 7.16088 7.36206 7.21457 7.28806 7.28857C7.21406 7.36257 7.16037 7.45438 7.13215 7.55516L6.13277 11.1246L3.18899 3.18899L11.1241 6.1343L7.55465 7.13266Z" fill="black"/>
</g>
<defs>
<clipPath id="clip0_6060_486">
<rect width="13" height="13" fill="white"/>
</clipPath>
</defs>
</svg>
