<svg width="15" height="15" viewBox="0 0 15 15" fill="none" xmlns="http://www.w3.org/2000/svg">
<path d="M14.1667 8.33334H0.833333C0.333333 8.33334 0 8.00001 0 7.50001C0 7.00001 0.333333 6.66668 0.833333 6.66668H14.1667C14.6667 6.66668 15 7.00001 15 7.50001C15 8.00001 14.6667 8.33334 14.1667 8.33334Z" fill="#012970"/>
<path d="M8.33333 0.833334L8.33333 14.1667C8.33333 14.6667 8 15 7.5 15C7 15 6.66667 14.6667 6.66667 14.1667L6.66667 0.833334C6.66667 0.333334 7 2.18557e-08 7.5 0C8 -2.18557e-08 8.33333 0.333334 8.33333 0.833334Z" fill="#012970"/>
</svg>
