<svg width="42" height="42" viewBox="0 0 42 42" fill="none" xmlns="http://www.w3.org/2000/svg">
<rect width="42" height="42" rx="21" fill="#EEF2F8"/>
<path d="M26.3333 21.6667H15.6667C15.2667 21.6667 15 21.4 15 21C15 20.6 15.2667 20.3333 15.6667 20.3333H26.3333C26.7333 20.3333 27 20.6 27 21C27 21.4 26.7333 21.6667 26.3333 21.6667Z" fill="#012970"/>
<path d="M21.6667 15.6667L21.6667 26.3333C21.6667 26.7333 21.4 27 21 27C20.6 27 20.3333 26.7333 20.3333 26.3333L20.3333 15.6667C20.3333 15.2667 20.6 15 21 15C21.4 15 21.6667 15.2667 21.6667 15.6667Z" fill="#012970"/>
</svg>
