<svg width="24" height="24" viewBox="0 0 24 24" fill="none" xmlns="http://www.w3.org/2000/svg">
<path d="M10.4688 5.36096L9.01642 8.01648L6.3609 9.46884L9.01642 10.9212L10.4688 13.5767L11.9211 10.9212L14.5767 9.46884L11.9211 8.01648L10.4688 5.36096Z" stroke="#012970" stroke-width="1.3" stroke-miterlimit="10" stroke-linecap="round" stroke-linejoin="round"/>
<path d="M21.8794 2V4.24066" stroke="#012970" stroke-width="1.3" stroke-miterlimit="10" stroke-linecap="round" stroke-linejoin="round"/>
<path d="M23 3.12036H20.7593" stroke="#012970" stroke-width="1.3" stroke-miterlimit="10" stroke-linecap="round" stroke-linejoin="round"/>
<path d="M5.77979 19.7593V21.9999" stroke="#012970" stroke-width="1.3" stroke-miterlimit="10" stroke-linecap="round" stroke-linejoin="round"/>
<path d="M6.90039 20.8796H4.65973" stroke="#012970" stroke-width="1.3" stroke-miterlimit="10" stroke-linecap="round" stroke-linejoin="round"/>
<circle cx="0.622406" cy="0.622406" r="0.622406" transform="matrix(-1 0 0 1 20.9668 6.43982)" fill="#012970"/>
<circle cx="0.622406" cy="0.622406" r="0.622406" transform="matrix(-1 0 0 1 22.7095 9.9668)" fill="#012970"/>
<circle cx="0.622406" cy="0.622406" r="0.622406" transform="matrix(-1 0 0 1 3.62256 16.6058)" fill="#012970"/>
<circle cx="0.622406" cy="0.622406" r="0.622406" transform="matrix(-1 0 0 1 11.8794 19.4689)" fill="#012970"/>
<path d="M10.4686 16.9377C6.34368 16.9377 2.99976 13.5938 2.99976 9.46887C2.99976 5.34393 6.34368 2 10.4686 2C14.5936 2 17.9375 5.34393 17.9375 9.46887C17.9375 13.5938 14.5936 16.9377 10.4686 16.9377Z" stroke="#012970" stroke-width="1.3" stroke-miterlimit="10" stroke-linecap="round" stroke-linejoin="round"/>
<path d="M14.4738 15.8921L20.173 21.5913C20.718 22.1363 21.6016 22.1363 22.1465 21.5913L22.5913 21.1465C23.1362 20.6015 23.1362 19.718 22.5913 19.173L16.8921 13.4739" stroke="#012970" stroke-width="1.3" stroke-miterlimit="10" stroke-linecap="round" stroke-linejoin="round"/>
<path d="M18.8413 15.5477L16.6363 17.7527" stroke="#012970" stroke-width="1.3" stroke-miterlimit="10" stroke-linecap="round" stroke-linejoin="round"/>
</svg>
