<svg width="22" height="22" viewBox="0 0 22 22" fill="none" xmlns="http://www.w3.org/2000/svg">
<path d="M15.1248 9.625H13.0623C12.88 9.625 12.7051 9.55257 12.5762 9.42364C12.4473 9.2947 12.3748 9.11984 12.3748 8.9375C12.3748 8.75516 12.4473 8.5803 12.5762 8.45136C12.7051 8.32243 12.88 8.25 13.0623 8.25H15.1248C15.3072 8.25 15.482 8.32243 15.611 8.45136C15.7399 8.5803 15.8123 8.75516 15.8123 8.9375C15.8123 9.11984 15.7399 9.2947 15.611 9.42364C15.482 9.55257 15.3072 9.625 15.1248 9.625ZM8.93733 8.25H8.24983V7.5625C8.24983 7.38016 8.1774 7.2053 8.04847 7.07636C7.91954 6.94743 7.74467 6.875 7.56233 6.875C7.38 6.875 7.20513 6.94743 7.0762 7.07636C6.94727 7.2053 6.87483 7.38016 6.87483 7.5625V8.25H6.18733C6.005 8.25 5.83013 8.32243 5.7012 8.45136C5.57227 8.5803 5.49983 8.75516 5.49983 8.9375C5.49983 9.11984 5.57227 9.2947 5.7012 9.42364C5.83013 9.55257 6.005 9.625 6.18733 9.625H6.87483V10.3125C6.87483 10.4948 6.94727 10.6697 7.0762 10.7986C7.20513 10.9276 7.38 11 7.56233 11C7.74467 11 7.91954 10.9276 8.04847 10.7986C8.1774 10.6697 8.24983 10.4948 8.24983 10.3125V9.625H8.93733C9.11967 9.625 9.29454 9.55257 9.42347 9.42364C9.5524 9.2947 9.62483 9.11984 9.62483 8.9375C9.62483 8.75516 9.5524 8.5803 9.42347 8.45136C9.29454 8.32243 9.11967 8.25 8.93733 8.25ZM20.752 17.2434C20.4929 17.6134 20.1559 17.9221 19.7647 18.148C19.3736 18.3738 18.9377 18.5113 18.4877 18.5507C18.0377 18.5901 17.5845 18.5305 17.1601 18.376C16.7356 18.2216 16.3501 17.9761 16.0306 17.6567C16.0203 17.6464 16.01 17.6361 16.0005 17.6249L12.588 13.75H9.40827L5.99913 17.6249L5.96905 17.6567C5.38829 18.2362 4.60152 18.5619 3.78108 18.5625C3.32943 18.5623 2.88329 18.4633 2.474 18.2723C2.06471 18.0813 1.70221 17.803 1.41195 17.457C1.12169 17.1109 0.910711 16.7056 0.793842 16.2693C0.676973 15.833 0.657045 15.3764 0.735457 14.9316C0.735044 14.9276 0.735044 14.9236 0.735457 14.9196L2.14225 7.69312C2.35162 6.50123 2.97435 5.42125 3.90101 4.64296C4.82768 3.86466 5.99899 3.43784 7.20913 3.4375H14.7811C15.9876 3.43942 17.1553 3.8638 18.0815 4.63695C19.0077 5.4101 19.6339 6.48319 19.8514 7.66992C19.8514 7.67508 19.8514 7.68023 19.8514 7.68539L21.2582 14.9188C21.2586 14.9228 21.2586 14.9268 21.2582 14.9308C21.331 15.3306 21.3238 15.7408 21.2369 16.1378C21.15 16.5348 20.9852 16.9105 20.752 17.2434ZM14.7811 12.375C15.7839 12.375 16.7457 11.9766 17.4548 11.2675C18.164 10.5584 18.5623 9.5966 18.5623 8.59375C18.5623 7.5909 18.164 6.62912 17.4548 5.92C16.7457 5.21088 15.7839 4.8125 14.7811 4.8125H7.20913C6.32135 4.8133 5.4623 5.12715 4.78309 5.69884C4.10389 6.27052 3.64805 7.06343 3.49577 7.93805V7.94922L2.08811 15.1757C2.02589 15.534 2.0789 15.9027 2.23952 16.229C2.40013 16.5552 2.66008 16.8221 2.98196 16.9913C3.30385 17.1604 3.67109 17.2231 4.03087 17.1704C4.39066 17.1176 4.72443 16.9521 4.98421 16.6977L8.58671 12.6079C8.65121 12.5347 8.73055 12.4761 8.81945 12.4359C8.90835 12.3958 9.00478 12.375 9.10233 12.375H14.7811ZM19.9116 15.1757L19.1605 11.3085C18.6985 12.0545 18.0539 12.6702 17.2875 13.0974C16.5212 13.5246 15.6585 13.7493 14.7811 13.75H14.4201L17.0155 16.6985C17.2111 16.8888 17.4492 17.0301 17.71 17.1106C17.9708 17.1911 18.247 17.2086 18.5159 17.1617C18.9639 17.0826 19.3623 16.8292 19.6237 16.4569C19.8852 16.0847 19.9884 15.6239 19.9107 15.1757H19.9116Z" fill="#012970"/>
</svg>
