<svg width="51" height="72" viewBox="0 0 51 72" fill="none" xmlns="http://www.w3.org/2000/svg">
<path d="M42.958 45.7485V36.5879" stroke="#012970" stroke-width="1.75" stroke-miterlimit="10" stroke-linecap="round" stroke-linejoin="round"/>
<path d="M29.4443 36.5879V45.7485" stroke="#012970" stroke-width="1.75" stroke-miterlimit="10" stroke-linecap="round" stroke-linejoin="round"/>
<path d="M36.1982 45.7485V36.5879" stroke="#012970" stroke-width="1.75" stroke-miterlimit="10" stroke-linecap="round" stroke-linejoin="round"/>
<path d="M49.7082 48.692V38.8394C49.7082 37.6384 48.7345 36.6647 47.5335 36.6647H45.1279C43.9269 36.6647 42.9532 37.6384 42.9532 38.8394V36.5877C42.9532 35.3867 41.9796 34.413 40.7786 34.413H38.3729C37.1719 34.413 36.1983 35.3867 36.1983 36.5877C36.1983 35.3867 35.2246 34.413 34.0236 34.413H31.6179C30.4174 34.413 29.444 35.386 29.4433 36.5864V23.9397C29.4433 22.0962 27.9664 20.5977 26.1312 20.5628C24.2379 20.5269 22.6883 22.1221 22.6883 24.0157V45.7483H22.6876V50.5099C22.6876 51.6065 21.517 52.3061 20.5513 51.7868L17.3346 50.057C14.7084 48.6449 11.4346 49.6291 10.0225 52.2554L9.81654 52.6383C9.46344 53.2948 9.7095 54.1133 10.366 54.4664L23.3756 61.4629C25.7254 62.7266 27.1912 65.179 27.1912 67.847V70.1708C27.1912 70.5597 27.5065 70.8751 27.8954 70.8751H44.5001C44.889 70.8751 45.2044 70.5597 45.2044 70.1708V66.7138C45.2044 65.9678 45.588 65.2714 46.2251 64.8833C48.3137 63.6112 49.7082 61.3126 49.7082 58.6882V53.6217" stroke="#012970" stroke-width="1.75" stroke-miterlimit="10" stroke-linecap="round" stroke-linejoin="round"/>
<path d="M14.002 23.8435C14.002 17.1988 19.3886 11.8121 26.0333 11.8121" stroke="#3075CA" stroke-width="1.75" stroke-miterlimit="10" stroke-linecap="round" stroke-linejoin="round"/>
<path d="M18.377 23.8436C18.377 19.6151 21.8049 16.1873 26.0332 16.1873" stroke="#3075CA" stroke-width="1.75" stroke-miterlimit="10" stroke-linecap="round" stroke-linejoin="round"/>
<path d="M5.23052 8.69242L4.89897 9.02397C4.49192 9.43102 4.41418 10.0627 4.71038 10.5564L6.48292 13.5105C6.6049 13.7137 6.6187 13.9658 6.51349 14.1782C6.18574 14.8406 5.90024 15.5275 5.66038 16.2356C5.58418 16.4605 5.39559 16.6291 5.16531 16.6867L1.82515 17.5218C1.26669 17.6614 0.875 18.1632 0.875 18.7387V24.5729C0.875 25.1486 1.26669 25.6503 1.82515 25.7899L5.16531 26.6249C5.39573 26.6825 5.58418 26.8511 5.66038 27.0761C5.90024 27.7841 6.18574 28.4711 6.51349 29.1334C6.61856 29.3458 6.60475 29.5979 6.48292 29.8011L4.71038 32.7552C4.41418 33.2488 4.49206 33.8806 4.89897 34.2877L9.02435 38.413C9.43139 38.8201 10.0631 38.8978 10.5568 38.6016L13.5109 36.8291C13.7141 36.7071 13.9662 36.6933 14.1786 36.7985C14.841 37.1263 15.5279 37.4118 16.2359 37.6516C16.4609 37.7278 16.6295 37.9164 16.6871 38.1467L17.5221 41.4867C17.6617 42.0452 18.1634 42.4369 18.7391 42.4369H22.5485" stroke="#012970" stroke-width="1.75" stroke-miterlimit="10" stroke-linecap="round" stroke-linejoin="round"/>
<path d="M38.3739 34.2723H38.4289C38.8223 33.8648 38.8944 33.2429 38.6022 32.7556L36.8298 29.8015C36.7078 29.5983 36.694 29.3462 36.7992 29.1338C37.127 28.4714 37.4125 27.7845 37.6523 27.0764C37.7285 26.8515 37.9171 26.6829 38.1474 26.6253L41.4874 25.7902C42.0459 25.6506 42.4376 25.1488 42.4376 24.5733V18.7391C42.4376 18.1634 42.0459 17.6617 41.4874 17.5221L38.1474 16.6871C37.917 16.6295 37.7285 16.4609 37.6523 16.2359C37.4125 15.5279 37.127 14.841 36.7992 14.1786C36.6941 13.9662 36.7078 13.7141 36.8298 13.5109L38.6022 10.5568C38.8984 10.0632 38.8205 9.43139 38.4136 9.02435L34.2882 4.89897C33.8812 4.49192 33.2495 4.41418 32.7558 4.71038L29.8017 6.48278C29.5985 6.60475 29.3464 6.61856 29.134 6.51335C28.4716 6.1856 27.7847 5.9001 27.0766 5.66024C26.8517 5.58404 26.6831 5.39545 26.6255 5.16517L25.7904 1.82515C25.6508 1.26669 25.1491 0.875 24.5735 0.875H18.7394C18.1638 0.875 17.6621 1.26669 17.5225 1.82515L16.6874 5.16517C16.6298 5.39559 16.4612 5.58404 16.2363 5.66024C15.5282 5.9001 14.8412 6.1856 14.1789 6.51335C13.9665 6.61842 13.7144 6.60475 13.5112 6.48278L10.5571 4.71038C10.0636 4.41418 9.43173 4.49206 9.02468 4.89897L8.82031 5.10334" stroke="#012970" stroke-width="1.75" stroke-miterlimit="10" stroke-linecap="round" stroke-linejoin="round"/>
</svg>
