<svg width="72" height="72" viewBox="0 0 72 72" fill="none" xmlns="http://www.w3.org/2000/svg">
<path d="M38.248 47.1405L42.5656 51.4581C43.9865 52.879 44.7369 54.842 44.604 56.8469C44.362 60.4959 45.6353 64.2264 48.4243 67.0155C52.4707 71.0619 58.498 71.9158 63.3834 69.5826L55.4974 61.6966L56.5506 56.5538L61.6934 55.5007L69.5794 63.3866C71.9127 58.5012 71.0587 52.474 67.0123 48.4275C64.2233 45.6385 60.4927 44.3653 56.8437 44.6073C54.8387 44.7403 52.8757 43.9898 51.4549 42.5688L47.1067 38.2207" stroke="#012970" stroke-width="1.74999" stroke-miterlimit="10" stroke-linejoin="round"/>
<path d="M33.5292 24.64L29.1695 20.2802C27.7486 18.8594 26.9982 16.8964 27.1311 14.8914C27.3731 11.2424 26.0998 7.51199 23.3108 4.72286C19.2645 0.67658 13.2372 -0.177418 8.35182 2.15586L16.2378 10.0418L15.1847 15.1847L10.0418 16.2378L2.15583 8.35185C-0.177449 13.2373 0.67655 19.2645 4.72283 23.311C7.51182 26.0999 11.2424 27.3732 14.8914 27.1312C16.8964 26.9982 18.8594 27.7487 20.2802 29.1697L24.6095 33.4989" stroke="#012970" stroke-width="1.74999" stroke-miterlimit="10" stroke-linejoin="round"/>
<path d="M18.3963 67.8949L16.5265 66.0251C15.1045 64.6031 15.1045 62.2975 16.5265 60.8755L28.3029 49.0991C29.7249 47.6771 32.0304 47.6771 33.4524 49.0991L35.3223 50.969" stroke="#012970" stroke-width="1.74999" stroke-miterlimit="10" stroke-linejoin="round"/>
<path d="M20.7796 36.4226L22.6495 38.2924C24.0715 39.7144 24.0715 42.02 22.6495 43.442L10.8731 55.2184C9.45107 56.6404 7.14551 56.6404 5.72351 55.2184L3.85352 53.3485" stroke="#012970" stroke-width="1.74999" stroke-miterlimit="10" stroke-linejoin="round"/>
<path d="M41.918 39.4201L32.3288 29.8308C31.1013 28.6034 31.1013 26.6135 32.3288 25.3861C33.5562 24.1587 35.546 24.1587 36.7735 25.3861L46.3627 34.9754C47.5902 36.2028 47.5902 38.1926 46.3627 39.4201C45.1353 40.6475 43.1455 40.6475 41.918 39.4201Z" stroke="#012970" stroke-width="1.74999" stroke-miterlimit="10" stroke-linejoin="round"/>
<path d="M44.0267 32.6385L61.8404 14.8249L66.3171 14.1587L70.8748 6.6453L65.1046 0.875031L57.5911 5.43273L56.925 9.90944L39.1113 27.7231" stroke="#012970" stroke-width="1.74999" stroke-miterlimit="10" stroke-linejoin="round"/>
<path d="M37.292 44.0456L41.9177 39.4199" stroke="#012970" stroke-width="1.74999" stroke-miterlimit="10" stroke-linejoin="round"/>
<path d="M32.3288 29.8309L27.7031 34.4566" stroke="#012970" stroke-width="1.74999" stroke-miterlimit="10" stroke-linejoin="round"/>
<path d="M27.7258 34.4784L37.2717 44.0244C38.6524 45.4051 38.6524 47.6438 37.2717 49.0247L16.4568 69.8395C15.0761 71.2202 12.8374 71.2202 11.4565 69.8395L1.91053 60.2935C0.529822 58.9128 0.529822 56.6741 1.91053 55.2932L22.7255 34.4784C24.1062 33.0977 26.3449 33.0977 27.7258 34.4784Z" stroke="#012970" stroke-width="1.74999" stroke-miterlimit="10" stroke-linejoin="round"/>
<path d="M19.7598 21.4789L21.474 19.7646" stroke="#3075CA" stroke-width="1.74999" stroke-miterlimit="10" stroke-linecap="round" stroke-linejoin="round"/>
<path d="M51.9692 50.2596L50.2549 51.9738" stroke="#3075CA" stroke-width="1.74999" stroke-miterlimit="10" stroke-linecap="round" stroke-linejoin="round"/>
</svg>
