<svg width="24" height="24" viewBox="0 0 24 24" fill="none" xmlns="http://www.w3.org/2000/svg">
<path d="M2.42969 15.574H21.5703" stroke="#3075CA" stroke-miterlimit="10" stroke-linecap="round" stroke-linejoin="round"/>
<path d="M20.379 17.9566H3.6607C3.00277 17.9566 2.42969 17.4232 2.42969 16.7653V4.85197C2.42969 4.19404 3.00277 3.66064 3.6607 3.66064H20.379C21.037 3.66064 21.5703 4.194 21.5703 4.85197V16.7652C21.5703 17.4232 21.037 17.9566 20.379 17.9566Z" stroke="#012970" stroke-miterlimit="10" stroke-linecap="round" stroke-linejoin="round"/>
<path d="M13.1914 17.9567V20.3393" stroke="#012970" stroke-miterlimit="10" stroke-linecap="round" stroke-linejoin="round"/>
<path d="M10.8086 20.3393V17.9567" stroke="#012970" stroke-miterlimit="10" stroke-linecap="round" stroke-linejoin="round"/>
<path d="M8.42578 20.3392H15.5737" stroke="#012970" stroke-miterlimit="10" stroke-linecap="round" stroke-linejoin="round"/>
<path d="M9.61687 6.04333H4.85156V13.1913H9.61687V6.04333Z" stroke="#3075CA" stroke-miterlimit="10" stroke-linecap="round" stroke-linejoin="round"/>
<path d="M4.85156 6.04333L9.61687 13.1913" stroke="#3075CA" stroke-miterlimit="10" stroke-linecap="round" stroke-linejoin="round"/>
<path d="M9.61687 6.04333L4.85156 13.1913" stroke="#3075CA" stroke-miterlimit="10" stroke-linecap="round" stroke-linejoin="round"/>
<path d="M19.148 6.04333H12V8.42599H19.148V6.04333Z" stroke="#012970" stroke-miterlimit="10" stroke-linecap="round" stroke-linejoin="round"/>
<path d="M14.3827 10.8087H12V13.1914H14.3827V10.8087Z" stroke="#012970" stroke-miterlimit="10" stroke-linecap="round" stroke-linejoin="round"/>
<path d="M19.1483 10.8087H16.7656V13.1914H19.1483V10.8087Z" stroke="#012970" stroke-miterlimit="10" stroke-linecap="round" stroke-linejoin="round"/>
</svg>
