<svg width="24" height="24" viewBox="0 0 24 24" fill="none" xmlns="http://www.w3.org/2000/svg">
<path d="M7.88678 21.1271H15.2434V19.1653L16.5023 16.6804L12.7372 9.29102H10.393L6.62793 16.6804L7.88678 19.1653V21.1271Z" stroke="#012970" stroke-miterlimit="10" stroke-linecap="round" stroke-linejoin="round"/>
<path d="M11.5654 9.29102V14.7186" stroke="#012970" stroke-miterlimit="10" stroke-linecap="round" stroke-linejoin="round"/>
<path d="M11.5659 16.6803C12.1076 16.6803 12.5468 16.2412 12.5468 15.6994C12.5468 15.1577 12.1076 14.7185 11.5659 14.7185C11.0241 14.7185 10.585 15.1577 10.585 15.6994C10.585 16.2412 11.0241 16.6803 11.5659 16.6803Z" stroke="#012970" stroke-miterlimit="10" stroke-linecap="round" stroke-linejoin="round"/>
<path d="M7.88672 19.1653H15.2434" stroke="#012970" stroke-miterlimit="10" stroke-linecap="round" stroke-linejoin="round"/>
<path d="M10.3745 3.19043H2.59668" stroke="#012970" stroke-miterlimit="10" stroke-linecap="round" stroke-linejoin="round"/>
<path d="M12.7559 3.19043H20.5336" stroke="#012970" stroke-miterlimit="10" stroke-linecap="round" stroke-linejoin="round"/>
<path d="M10.3752 3.27515C6.70381 3.79781 3.8 6.70162 3.27734 10.373" stroke="#012970" stroke-miterlimit="10" stroke-linecap="round" stroke-linejoin="round"/>
<path d="M19.8538 10.373C19.3311 6.70162 16.4273 3.79781 12.7559 3.27515" stroke="#012970" stroke-miterlimit="10" stroke-linecap="round" stroke-linejoin="round"/>
<path d="M12.756 2H10.375V4.38095H12.756V2Z" stroke="#3075CA" stroke-miterlimit="10" stroke-linecap="round" stroke-linejoin="round"/>
<path d="M21.129 10.373H18.748V12.754H21.129V10.373Z" stroke="#3075CA" stroke-miterlimit="10" stroke-linecap="round" stroke-linejoin="round"/>
<path d="M4.38291 10.373H2.00195V12.754H4.38291V10.373Z" stroke="#3075CA" stroke-miterlimit="10" stroke-linecap="round" stroke-linejoin="round"/>
</svg>
