<svg width="21" height="21" viewBox="0 0 21 21" fill="none" xmlns="http://www.w3.org/2000/svg">
<path d="M14.2759 16.0362V20.5H0.5V4.27592L4.23445 0.5H14.2759V5.58641" stroke="#012970" stroke-miterlimit="10" stroke-linecap="round" stroke-linejoin="round"/>
<path d="M8.00977 8.05188H13.0305" stroke="#012970" stroke-miterlimit="10" stroke-linecap="round" stroke-linejoin="round"/>
<path d="M8.00977 10.5415H13.0305" stroke="#012970" stroke-miterlimit="10" stroke-linecap="round" stroke-linejoin="round"/>
<path d="M8.00977 13.0311H13.0305" stroke="#012970" stroke-miterlimit="10" stroke-linecap="round" stroke-linejoin="round"/>
<path d="M15.7273 13.9659L20.1351 18.3751C20.6213 18.8613 20.6213 19.6491 20.1351 20.1353C19.892 20.3785 19.5735 20.5 19.255 20.5C18.9365 20.5 18.618 20.3785 18.3748 20.1353L13.9629 15.7226" stroke="#3075CA" stroke-miterlimit="10" stroke-linecap="round" stroke-linejoin="round"/>
<path d="M0.5 4.27592H4.23445V0.5" stroke="#012970" stroke-miterlimit="10" stroke-linecap="round" stroke-linejoin="round"/>
<path d="M16.765 10.5416C16.765 13.9791 13.9369 16.7657 10.4995 16.7657C7.06204 16.7657 4.27539 13.9791 4.27539 10.5416C4.27539 7.10412 7.062 4.3175 10.4995 4.3175C13.9369 4.3175 16.765 7.10412 16.765 10.5416Z" stroke="#3075CA" stroke-miterlimit="10" stroke-linecap="round" stroke-linejoin="round"/>
</svg>
