<svg width="24" height="24" viewBox="0 0 24 24" fill="none" xmlns="http://www.w3.org/2000/svg">
<path d="M8.89238 18.1188C10.6084 18.1188 11.9996 19.5099 11.9996 21.226V21.5702H5.78516V21.226C5.78516 19.5099 7.17633 18.1188 8.89238 18.1188Z" stroke="#012970" stroke-miterlimit="10" stroke-linecap="round" stroke-linejoin="round"/>
<path d="M8.89285 14.8124C9.75812 14.8124 10.4595 15.5139 10.4595 16.3791V16.552C10.4595 17.4173 9.75809 18.1187 8.89285 18.1187C8.02758 18.1187 7.32617 17.4173 7.32617 16.552V16.3791C7.32617 15.5139 8.02758 14.8124 8.89285 14.8124Z" stroke="#012970" stroke-miterlimit="10" stroke-linecap="round" stroke-linejoin="round"/>
<path d="M15.1072 18.1188C16.8232 18.1188 18.2144 19.5099 18.2144 21.226V21.5702H12V21.226C12 19.5099 13.3911 18.1188 15.1072 18.1188Z" stroke="#012970" stroke-miterlimit="10" stroke-linecap="round" stroke-linejoin="round"/>
<path d="M15.1067 14.8124C15.972 14.8124 16.6734 15.5139 16.6734 16.3791V16.552C16.6734 17.4173 15.972 18.1187 15.1067 18.1187C14.2414 18.1187 13.54 17.4173 13.54 16.552V16.3791C13.54 15.5139 14.2415 14.8124 15.1067 14.8124Z" stroke="#012970" stroke-miterlimit="10" stroke-linecap="round" stroke-linejoin="round"/>
<path d="M14.5507 6.69537C14.5507 5.29478 13.4222 4.15775 12.0249 4.1438C10.6177 4.12978 9.45437 5.27502 9.4473 6.68224C9.4437 7.40044 9.73683 8.05017 10.2112 8.51599C10.5166 8.81599 10.682 9.23068 10.682 9.65884V9.65123H13.3159V9.65084C13.3159 9.224 13.4846 8.81334 13.7888 8.51392C14.2591 8.05107 14.5507 7.40728 14.5507 6.69537Z" stroke="#012970" stroke-miterlimit="10" stroke-linecap="round" stroke-linejoin="round"/>
<path d="M11.999 9.65124V7.63507" stroke="#012970" stroke-miterlimit="10" stroke-linecap="round" stroke-linejoin="round"/>
<path d="M12.7583 11.3722H11.2388C10.9311 11.3722 10.6816 11.1227 10.6816 10.8151V9.65118H13.3155V10.8151C13.3155 11.1227 13.0661 11.3722 12.7583 11.3722Z" stroke="#012970" stroke-miterlimit="10" stroke-linecap="round" stroke-linejoin="round"/>
<path d="M20.5452 15.4534C19.9787 15.4534 19.5195 14.9942 19.5195 14.4278C19.5195 13.8613 19.9787 13.4022 20.5452 13.4022C21.1116 13.4022 21.5708 13.8613 21.5708 14.4278C21.5708 14.9942 21.1116 15.4534 20.5452 15.4534Z" stroke="#3075CA" stroke-miterlimit="10" stroke-linecap="round" stroke-linejoin="round"/>
<circle cx="19.0732" cy="16.6956" r="0.429688" fill="#3075CA"/>
<path d="M3.45531 15.4534C4.02176 15.4534 4.48094 14.9942 4.48094 14.4278C4.48094 13.8613 4.02176 13.4022 3.45531 13.4022C2.88887 13.4022 2.42969 13.8613 2.42969 14.4278C2.42969 14.9942 2.88887 15.4534 3.45531 15.4534Z" stroke="#3075CA" stroke-miterlimit="10" stroke-linecap="round" stroke-linejoin="round"/>
<circle cx="4.92676" cy="16.6956" r="0.429688" fill="#3075CA"/>
<path d="M16.8842 2.42969H7.11578C5.73586 2.42969 4.61719 3.54836 4.61719 4.92828V10.5907C4.61719 11.9707 5.73586 13.0893 7.11578 13.0893H16.8842C18.2641 13.0893 19.3828 11.9707 19.3828 10.5907V4.92828C19.3828 3.54836 18.2641 2.42969 16.8842 2.42969Z" stroke="#3075CA" stroke-miterlimit="10" stroke-linecap="round" stroke-linejoin="round"/>
</svg>
