<svg width="86" height="21" viewBox="0 0 86 21" fill="none" xmlns="http://www.w3.org/2000/svg">
<g clip-path="url(#clip0_6358_1557)">
<path d="M3.4836 15.902L3.88289 15.9367L3.90603 15.2307L3.85395 15.2423C3.32736 15.3696 2.62138 15.3349 2.0022 15.3059C2.0022 15.3059 1.51033 15.2886 1.36567 15.2828L1.38303 12.6382L3.50096 12.6556C3.62827 12.6556 3.73243 12.673 3.81923 12.7019L3.8771 12.725L3.90025 12.6788V12.0191L0 12.0017V12.0769C0.133095 12.4357 0.144668 18.7317 0.0115734 19.2409L0 19.293L3.88289 19.3161L3.90603 18.5754L3.85395 18.587C3.2695 18.6969 2.65032 18.668 2.0485 18.6449C2.0485 18.6449 1.51033 18.6333 1.36567 18.6275L1.38303 15.8962L3.4836 15.9135V15.902Z" fill="#1C1C1A"/>
<path d="M12.783 16.0291L12.8004 15.0801C12.8004 13.998 12.2275 13.4482 11.0933 13.4482C10.3815 13.4482 9.89544 13.6624 9.36885 14.2005C9.03901 13.6913 8.54714 13.4482 7.81801 13.4482C7.19883 13.4482 6.66646 13.6913 6.2556 14.1426V13.5929L4.97095 13.5755L4.99409 13.6508C5.11562 14.0443 5.11562 18.801 4.99409 19.2407L4.98252 19.2928L6.30768 19.316L6.29611 19.2639C6.17458 18.7199 6.22088 17.279 6.24981 16.2259L6.27296 15.3C6.27296 14.6403 6.84006 14.3394 7.40716 14.3394C8.02633 14.3394 8.29831 14.6229 8.29831 15.2537V18.9051L8.25202 19.2813L8.29252 19.3102H9.59453L9.57139 19.235C9.42672 18.7431 9.47301 17.3253 9.50773 16.2837L9.53088 15.3868C9.53088 14.7213 9.94752 14.3394 10.6651 14.3394C11.319 14.3394 11.5678 14.5998 11.5678 15.2537V18.9051L11.5215 19.287L11.5852 19.3102H12.8351L12.8235 19.2581C12.702 18.7199 12.7483 17.1575 12.7772 16.0233L12.783 16.0291Z" fill="#1C1C1A"/>
<path d="M14.791 12.0654C14.4265 12.0654 14.033 12.2159 14.033 12.6325C14.033 13.0029 14.3049 13.2112 14.8026 13.2112C15.144 13.2112 15.5375 13.0607 15.5375 12.621C15.5375 12.2159 15.1498 12.0654 14.791 12.0654Z" fill="#1C1C1A"/>
<path d="M14.1081 13.6219L14.1544 13.9923V18.911L14.1023 19.2871L14.1428 19.316H15.3927L15.4043 19.2987C15.4043 19.2987 15.4275 19.264 15.3869 18.9052V13.9865L15.4332 13.6393V13.593L14.1254 13.5698L14.1139 13.6161L14.1081 13.6219Z" fill="#1C1C1A"/>
<path d="M18.0314 14.1428V13.5931L16.7872 13.5757L16.7988 13.622C16.9088 14.1428 16.8856 18.8127 16.7699 19.2409L16.7583 19.293L18.0835 19.3161L18.0719 19.264C17.9562 18.7317 17.9967 17.4759 18.0256 16.5501L18.0487 15.6821C18.0487 15.2365 18.1587 14.9009 18.3786 14.6925C18.5753 14.4958 18.8589 14.409 19.2234 14.4263H19.4433L19.4607 13.46H19.4144C18.7663 13.4889 18.3091 13.6336 18.0314 14.1428Z" fill="#1C1C1A"/>
<path d="M24.634 18.5697C24.5125 18.5697 24.3505 18.5292 24.3505 18.1414V14.8083C24.3505 13.5757 23.0137 13.4426 22.4409 13.4426C21.7233 13.4426 21.1794 13.5699 20.4444 13.9229L20.4155 13.9345V13.975L20.6123 14.7851L20.6817 14.7331C21.1678 14.3627 21.5613 14.1486 22.1342 14.1486C22.6087 14.1486 23.1179 14.3859 23.1179 14.9009C23.1179 15.4159 22.5335 15.6011 21.8506 15.7978C20.9074 16.064 19.8311 16.3765 19.8311 17.7364C19.8311 18.7317 20.4792 19.4029 21.4455 19.4029C22.1689 19.4029 22.6781 19.1657 23.1758 18.5986C23.2857 19.0268 23.494 19.4029 24.1595 19.4029C24.5125 19.4029 24.8308 19.2467 25.0333 19.1136L25.0507 19.102L25.0622 18.4481V18.3382L24.9523 18.4134C24.8481 18.4829 24.7382 18.5639 24.634 18.5639V18.5697ZM23.1179 17.366C23.1179 18.0431 22.5855 18.5697 21.9085 18.5697C21.3877 18.5697 21.0347 18.1935 21.0347 17.6322C21.0347 16.7931 21.7696 16.5212 22.4814 16.255C22.4814 16.255 22.9559 16.0524 23.1237 15.983V17.3602L23.1179 17.366Z" fill="#1C1C1A"/>
<path d="M27.4869 18.668C27.2497 18.668 27.1281 18.5175 27.1281 18.2166V14.2006L28.0309 14.218L28.0482 13.593L27.1108 13.5757L27.1281 12.8466L27.1513 12.4415V12.4241L27.1397 12.4126C27.1397 12.4126 27.1108 12.3778 25.9477 12.4994H25.9129L25.8956 12.5399V13.593L25.0623 13.5757L25.0449 14.2006L25.9129 14.218L25.8956 18.2513C25.8956 19.0383 26.2601 19.4087 27.0413 19.4087C27.3828 19.4087 27.7242 19.3335 28.0251 19.1888L28.0482 19.1772L28.0598 18.5523V18.4481L27.9788 18.4944C27.8283 18.5812 27.6605 18.6622 27.4927 18.6622L27.4869 18.668Z" fill="#1C1C1A"/>
<path d="M33.887 16.2606C33.8696 15.4157 33.5977 13.4482 31.3871 13.4482C29.7148 13.4482 28.679 14.6056 28.679 16.4747C28.679 18.3438 29.7495 19.4143 31.6128 19.4143C32.3477 19.4143 32.8859 19.287 33.5977 18.9341C33.6208 18.8993 33.6324 18.882 33.4646 18.1586L33.4414 18.066L33.3662 18.1239C33.019 18.419 32.4577 18.7662 31.7633 18.7662C30.1546 18.7662 29.9578 17.3601 29.952 16.2837L33.887 16.3011V16.2606ZM29.981 15.6935C30.1488 14.6403 30.6117 14.079 31.3293 14.079C32.0468 14.079 32.4866 14.6345 32.5908 15.7108L29.981 15.6935Z" fill="#1C1C1A"/>
<path d="M36.8673 15.7976C36.2771 15.572 35.7678 15.381 35.7678 14.9065C35.7678 14.3799 36.2655 14.1021 36.7574 14.1021C37.174 14.1021 37.6254 14.27 38.1288 14.6229L38.1751 14.6519L38.2098 14.6114L38.4124 13.8649L38.3834 13.8533C37.7816 13.5813 37.2145 13.4482 36.6532 13.4482C35.6174 13.4482 34.57 13.9806 34.57 15.1669C34.57 16.2432 35.4438 16.5904 36.2076 16.9029C36.821 17.146 37.3476 17.3601 37.3476 17.8809C37.3476 18.4827 36.8094 18.7604 36.3118 18.7604C35.681 18.7604 35.2123 18.4827 34.7031 18.0718L34.6568 18.0313L34.6221 18.0718L34.408 18.8935L34.4369 18.9109C35.0387 19.235 35.681 19.4143 36.3002 19.4143C37.3939 19.4143 38.557 18.9283 38.557 17.5626C38.557 16.44 37.6601 16.0986 36.8673 15.7976Z" fill="#1C1C1A"/>
<path d="M41.4791 12.0421V12.7654H41.5196C42.0173 12.6844 42.5207 12.696 43.0126 12.7191L43.5392 12.7307L43.5218 18.9109L43.4755 19.2639V19.3102H43.5334H44.9106L44.899 19.235L44.8528 18.9051V12.7075L46.3805 12.7249L46.8607 12.7712L46.8839 12.0074L41.4849 11.99L41.4675 12.0305L41.4791 12.0421Z" fill="#1C1C1A"/>
<path d="M48.5103 14.1428V13.5931L47.2662 13.5757L47.2777 13.622C47.3877 14.1428 47.3645 18.8127 47.243 19.2409L47.2314 19.293L48.5566 19.3161L48.545 19.264C48.4293 18.7374 48.4698 17.4759 48.4987 16.5501L48.5219 15.6821C48.5219 15.2365 48.6318 14.9009 48.8517 14.6925C49.0485 14.4958 49.332 14.409 49.6966 14.4263H49.9165L49.9338 13.46H49.8933C49.2394 13.4889 48.7823 13.6336 48.5103 14.1428Z" fill="#1C1C1A"/>
<path d="M55.1068 18.5697C54.9853 18.5697 54.8291 18.5292 54.8291 18.1414V14.8083C54.8291 13.5757 53.4923 13.4426 52.9252 13.4426C52.2019 13.4426 51.6637 13.5699 50.9288 13.9229L50.8999 13.9345V13.975L51.0966 14.7851L51.1661 14.7331C51.6522 14.3627 52.0457 14.1486 52.6185 14.1486C53.0931 14.1486 53.6023 14.3859 53.6023 14.9009C53.6023 15.4159 53.0178 15.6011 52.335 15.7978C51.386 16.0698 50.3154 16.3765 50.3154 17.7422C50.3154 18.7375 50.9635 19.4087 51.9299 19.4087C52.6533 19.4087 53.1625 19.1715 53.6602 18.6044C53.7701 19.0326 53.9784 19.4087 54.6439 19.4087C54.9969 19.4087 55.3152 19.2525 55.5177 19.1194L55.5351 19.1078V18.4539L55.5408 18.344L55.4367 18.4192C55.3383 18.4886 55.2168 18.5697 55.1126 18.5697H55.1068ZM53.5907 17.366C53.5907 18.0431 53.0583 18.5697 52.3755 18.5697C51.8547 18.5697 51.5017 18.1935 51.5017 17.6322C51.5017 16.7931 52.2366 16.5212 52.9484 16.255C52.9484 16.255 53.4229 16.0524 53.5907 15.983V17.3602V17.366Z" fill="#1C1C1A"/>
<path d="M60.9574 16.1161L60.9748 15.1323C60.9748 14.0734 60.2862 13.4426 59.1231 13.4426C58.3303 13.4426 57.8326 13.6857 57.4218 14.2586V13.5931L56.1776 13.5757L56.1892 13.622C56.2933 14.1139 56.2702 18.8879 56.166 19.2351L56.1487 19.2872L56.195 19.3104H57.4738L57.4623 19.2583C57.3465 18.7201 57.387 17.4355 57.416 16.498L57.4391 15.6242C57.4391 14.8199 57.9194 14.3454 58.718 14.3454C59.3777 14.3454 59.7538 14.6926 59.7538 15.2886V18.9053L59.7075 19.2814L59.7422 19.3104H61.0211L61.0095 19.2583C60.8938 18.6854 60.9343 17.1924 60.9632 16.1103L60.9574 16.1161Z" fill="#1C1C1A"/>
<path d="M64.2963 15.7976C63.706 15.572 63.1968 15.381 63.1968 14.9065C63.1968 14.3799 63.6944 14.1021 64.1863 14.1021C64.603 14.1021 65.0485 14.27 65.552 14.6229L65.5983 14.6519L65.633 14.6114L65.8355 13.8649L65.8066 13.8533C65.199 13.5813 64.6319 13.4482 64.0764 13.4482C63.0406 13.4482 61.9932 13.9806 61.9932 15.1669C61.9932 16.2432 62.8669 16.5904 63.6308 16.9029C64.2442 17.146 64.7708 17.3601 64.7708 17.8809C64.7708 18.4827 64.2326 18.7604 63.735 18.7604C63.1042 18.7604 62.6355 18.4827 62.132 18.0718L62.08 18.0313L62.0452 18.0718L61.8369 18.8935L61.8601 18.9109C62.4619 19.235 63.1042 19.4143 63.7234 19.4143C64.8113 19.4143 65.9802 18.9283 65.9802 17.5626C65.9802 16.44 65.0833 16.0986 64.2905 15.7976H64.2963Z" fill="#1C1C1A"/>
<path d="M69.6546 13.4484C69.0065 13.4484 68.4568 13.7435 68.0459 14.2875V13.5931L66.8018 13.5757L66.8134 13.622C66.9002 14.085 66.8886 20.5719 66.796 20.9249L66.7844 20.9769L68.098 21.0001L68.0864 20.948C68.0344 20.7281 68.0112 20.4619 68.0112 20.1379L68.0459 19.3161C68.0459 19.3161 68.0575 18.9284 68.0691 18.749C68.4568 19.1773 68.9487 19.4087 69.5042 19.4087C71.6279 19.4087 71.7957 17.0767 71.7957 16.3591C71.7957 15.6416 71.6395 13.4426 69.6604 13.4426L69.6546 13.4484ZM69.2669 18.7028C68.1617 18.7028 68.0344 17.4412 68.0344 16.4922C68.0344 15.4564 68.1848 14.2586 69.3364 14.2586C70.1234 14.2586 70.5053 14.9703 70.5053 16.4344C70.5053 17.4644 70.2912 18.697 69.2727 18.697L69.2669 18.7028Z" fill="#1C1C1A"/>
<path d="M75.2274 13.4484C73.6071 13.4484 72.554 14.5884 72.554 16.3533C72.554 17.8347 73.2599 19.4145 75.239 19.4145C77.2181 19.4145 77.924 17.881 77.924 16.4401C77.924 14.5942 76.894 13.4426 75.2274 13.4426V13.4484ZM75.2332 18.8358C73.9023 18.8358 73.8386 16.8163 73.8386 16.4112C73.8386 16.0061 73.908 14.0444 75.2332 14.0444C76.5584 14.0444 76.6336 15.873 76.6336 16.4344C76.6336 16.8394 76.5641 18.8416 75.2332 18.8416V18.8358Z" fill="#1C1C1A"/>
<path d="M80.1752 14.1428V13.5931L78.931 13.5757V13.622C79.0525 14.137 79.0294 18.8127 78.9137 19.2409L78.9021 19.293L80.2273 19.3161L80.2157 19.264C80.0999 18.7374 80.1404 17.4759 80.1694 16.5501L80.1925 15.6821C80.1925 15.2365 80.3025 14.9009 80.5224 14.6925C80.7191 14.5016 81.0085 14.409 81.3672 14.4263H81.5871L81.6045 13.46H81.5582C80.9043 13.4889 80.4529 13.6336 80.181 14.1428H80.1752Z" fill="#1C1C1A"/>
<path d="M84.9954 18.506C84.8449 18.5928 84.6771 18.6739 84.5093 18.6739C84.272 18.6739 84.1505 18.5234 84.1505 18.2225V14.2065L85.0533 14.2239L85.0706 13.5989L84.1332 13.5815L84.1505 12.8524L84.1737 12.4473V12.43L84.1621 12.4184C84.1621 12.4184 84.1274 12.3837 82.97 12.5052H82.9353L82.918 12.5457V13.5989L82.0847 13.5815L82.0615 14.2065L82.9353 14.2239L82.918 18.2572C82.918 19.0442 83.2825 19.4146 84.0637 19.4146C84.4109 19.4146 84.7408 19.3393 85.0475 19.1947L85.0706 19.1831L85.0822 18.5581V18.454L84.9954 18.5002V18.506Z" fill="#1C1C1A"/>
<path d="M80.1172 6.30172C80.5396 6.85725 81.1935 7.19866 82.1136 7.19866C83.8844 7.19866 84.6887 5.93716 84.6887 4.29373C84.6887 2.6503 83.8554 1.35986 82.1078 1.35986C80.3602 1.35986 79.5443 2.62137 79.5443 4.21272V4.29373C79.5443 4.29373 79.5443 4.32845 79.5443 4.34581C79.5443 4.98235 79.3823 6.01817 78.5432 6.01817H76.6741V4.37474C76.6741 2.74868 75.835 1.44088 74.0874 1.44088C72.3399 1.44088 71.5239 2.70238 71.5239 4.28794C71.5239 5.8735 72.3283 7.19287 74.099 7.19287H75.5283C75.5283 8.10139 75.2795 9.54807 74.099 9.54807H72.1026V10.011H74.099C75.8235 10.011 76.6741 8.80158 76.6741 7.19287H78.1208C79.0351 7.19287 79.7006 6.85146 80.123 6.29593L80.1172 6.30172ZM80.6843 4.2648C80.6843 3.36785 80.9331 1.83437 82.1136 1.83437C83.2941 1.83437 83.5429 3.37364 83.5429 4.28794V4.3516C83.5429 4.7856 83.4677 5.41635 83.1437 5.76356C82.6055 6.34801 81.6623 6.33644 81.1009 5.77513C80.7711 5.42793 80.6901 4.79139 80.6901 4.3516V4.2648H80.6843ZM73.665 6.02396C72.8317 6.02396 72.6639 4.98814 72.6639 4.3516C72.6639 3.45466 72.9127 1.92117 74.0932 1.92117C75.2737 1.92117 75.5225 3.46623 75.5225 4.37474V6.02396H73.6708H73.665Z" fill="#1C1C1A"/>
<path d="M18.6158 7.19868H20.3576C21.2719 7.19868 21.9374 6.85726 22.3598 6.30174C22.7823 6.85726 23.4362 7.19868 24.3563 7.19868C26.1212 7.19868 26.9314 5.93717 26.9314 4.29375C26.9314 2.65032 26.0923 1.35988 24.3447 1.35988C22.5971 1.35988 21.7812 2.62138 21.7812 4.21273V4.29375C21.7812 4.29375 21.7812 4.32847 21.7812 4.34583C21.7812 4.98236 21.6134 6.01819 20.7859 6.01819H18.1934C17.3601 6.01819 17.1923 4.98236 17.1923 4.34583V0.347203C17.1923 0.237255 17.2039 0.121521 17.2328 0H16.0002C16.035 0.121521 16.0465 0.237255 16.0465 0.347203V4.29375C16.0465 5.93717 16.8509 7.19868 18.6158 7.19868ZM22.9327 4.26481C22.9327 3.36787 23.1816 1.83439 24.3621 1.83439C25.5425 1.83439 25.7856 3.37366 25.7856 4.28796V4.35161C25.7856 4.78562 25.7104 5.41637 25.3863 5.76357C24.8481 6.34803 23.9049 6.33646 23.3436 5.77514C23.0137 5.42794 22.9327 4.7914 22.9327 4.35161V4.26481Z" fill="#1C1C1A"/>
<path d="M14.8952 7.1986V4.38047C14.8952 3.7555 14.7737 3.17104 14.5191 2.69653H13.4312C13.68 3.21734 13.7495 3.88281 13.7495 4.36889V7.18703C13.7495 8.09554 13.5006 9.55379 12.3201 9.55379H10.3237V10.0167H12.3201C14.0504 10.0167 14.8952 8.80731 14.8952 7.1986Z" fill="#1C1C1A"/>
<path d="M30.6638 9.1429L30.6233 9.24706L30.9011 9.60005C31.0862 9.64056 31.2714 9.6637 31.4624 9.6637H32.8222L32.7702 9.28178H31.8617C31.7748 9.04453 31.717 9.02138 31.717 8.76676C31.717 8.08393 32.1221 8.18809 32.6023 8.18809L32.5271 7.75987C31.7517 7.75987 31.3351 7.70201 31.3351 8.72626C31.3351 8.91722 31.3351 8.91722 31.3987 9.0561L31.6996 9.28757H31.4045C31.1499 9.28757 30.9011 9.2297 30.658 9.1429H30.6638Z" fill="#1C1C1A"/>
<path d="M10.8096 7.19868H12.0364C12.0074 7.08294 11.9958 6.96142 11.9958 6.85147V0.347203C11.9958 0.237255 12.0074 0.121521 12.0364 0H10.8096C10.8443 0.121521 10.8501 0.237255 10.8501 0.347203V6.85147C10.8501 6.96142 10.8385 7.07716 10.8096 7.19868Z" fill="#1C1C1A"/>
<path d="M69.1919 7.19868H70.4187C70.384 7.08294 70.3782 6.96142 70.3782 6.85147V0.347203C70.3782 0.237255 70.3897 0.121521 70.4187 0H69.1919C69.2208 0.121521 69.2324 0.237255 69.2324 0.347203V6.85147C69.2324 6.96142 69.2208 7.07716 69.1919 7.19868Z" fill="#1C1C1A"/>
<path d="M29.9406 6.04717H27.5217L27.9962 7.22187H31.15C32.9207 7.22187 33.7251 5.95458 33.7251 4.31694V0.370396C33.7251 0.266236 33.7309 0.144714 33.7656 0.0231934L32.5388 0.138928C32.5735 0.260449 32.5793 0.376183 32.5793 0.486131V4.36902C32.5793 5.00556 32.4115 6.04138 31.5782 6.04138H31.0921C31.0921 6.00087 31.0863 5.96615 31.0863 5.92565V0.486131C31.0863 0.38197 31.0979 0.260449 31.1326 0.144714H29.9001C29.9348 0.260449 29.9406 0.38197 29.9406 0.486131V5.93143C29.9406 5.96615 29.9406 6.00666 29.9348 6.04717H29.9406Z" fill="#1C1C1A"/>
<path d="M34.8362 7.19868H36.063C36.0282 7.08294 36.0225 6.96142 36.0225 6.85147V0.347203C36.0225 0.237255 36.034 0.121521 36.063 0L34.8362 0.121521C34.8651 0.243042 34.8767 0.358777 34.8767 0.468724V6.85726C34.8767 6.96721 34.8651 7.08294 34.8362 7.20446V7.19868Z" fill="#1C1C1A"/>
<path d="M55.2575 6.18605C55.5931 6.81101 56.1891 7.20451 57.1555 7.20451H65.6678C67.3402 7.20451 68.0809 5.96037 68.0809 4.4211V4.29958C68.0809 2.71402 67.1839 1.57982 65.5173 1.57982L61.3798 1.51617C60.4945 1.51617 59.8753 1.82865 59.476 2.34367V1.92124C59.476 1.81708 59.4876 1.69555 59.5223 1.57982H58.2955C58.3244 1.69555 58.336 1.81708 58.336 1.92124V5.93143C58.336 5.96037 58.336 5.99509 58.336 6.02402H56.7331C55.8998 6.02402 55.732 4.9882 55.732 4.35166C55.732 4.35166 55.732 4.32851 55.732 4.31694V0.370396C55.732 0.266236 55.7436 0.144714 55.7725 0.0231934L54.5457 0.138928C54.5804 0.260449 54.5862 0.376183 54.5862 0.486131V4.36902C54.5862 5.00556 54.4184 6.04138 53.5851 6.04138H53.0933C53.0933 6.00087 53.0875 5.96615 53.0875 5.92565V0.486131C53.0875 0.38197 53.099 0.260449 53.1338 0.144714H51.907C51.9359 0.260449 51.9475 0.38197 51.9475 0.486131V5.93143C51.9475 5.96615 51.9475 6.00666 51.9417 6.04717H49.5344L50.0089 7.22187H53.1627C54.158 7.22187 54.8466 6.82259 55.2575 6.18026V6.18605ZM61.4666 2.05433H65.5116C66.692 2.05433 66.9409 3.45472 66.9409 4.35166C66.9409 4.9882 66.7731 6.02402 65.9398 6.02402H59.4876C59.4876 5.99509 59.4876 5.96037 59.4876 5.93143V4.07968C59.4876 2.79503 60.1878 2.04854 61.4724 2.04854L61.4666 2.05433Z" fill="#1C1C1A"/>
<path d="M3.9292 2.60401C4.24747 2.60401 4.59467 2.45356 4.59467 2.07163C4.59467 1.68971 4.23011 1.57397 3.91762 1.57397C3.60514 1.57397 3.229 1.70128 3.229 2.07742C3.229 2.48828 3.57042 2.59822 3.9292 2.59822V2.60401Z" fill="#1C1C1A"/>
<path d="M5.86189 2.60401C6.18594 2.60401 6.52736 2.45356 6.52736 2.07163C6.52736 1.68971 6.1628 1.57397 5.85031 1.57397C5.53783 1.57397 5.16748 1.70128 5.16748 2.07742C5.16748 2.48828 5.5089 2.59822 5.86189 2.59822V2.60401Z" fill="#1C1C1A"/>
<path d="M42.7581 2.60401C43.0764 2.60401 43.4236 2.45356 43.4236 2.07163C43.4236 1.68971 43.059 1.57397 42.7466 1.57397C42.4341 1.57397 42.0637 1.70128 42.0637 2.07742C42.0637 2.48828 42.4051 2.59822 42.7581 2.59822V2.60401Z" fill="#1C1C1A"/>
<path d="M44.6966 2.60401C45.0207 2.60401 45.3621 2.45356 45.3621 2.07163C45.3621 1.68971 44.9975 1.57397 44.685 1.57397C44.3725 1.57397 44.0022 1.70128 44.0022 2.07742C44.0022 2.48828 44.3436 2.59822 44.6966 2.59822V2.60401Z" fill="#1C1C1A"/>
<path d="M45.9639 7.19853C47.7347 7.19853 48.539 5.93702 48.539 4.29359V3.04945C48.539 2.94529 48.5448 2.82377 48.5795 2.70803H47.3528C47.3817 2.82377 47.3933 2.94529 47.3933 3.04945V4.34568C47.3933 4.98221 47.2255 6.01804 46.3922 6.01804H41.757C41.051 6.01804 39.4423 5.95438 39.4423 4.94749V2.69067L38.8926 2.70225V4.93592C38.8926 6.79346 40.5244 7.19274 42.0579 7.19274H45.9697L45.9639 7.19853Z" fill="#1C1C1A"/>
<path d="M3.21758 7.19853H7.1294C8.90014 7.19853 9.70449 5.93702 9.70449 4.29359V3.04945C9.70449 2.94529 9.70449 2.82377 9.745 2.70803H8.51243C8.54136 2.82377 8.55293 2.94529 8.55293 3.04945V4.34568C8.55293 4.98221 8.38512 6.01804 7.55183 6.01804H2.91667C2.21069 6.01804 0.601984 5.95438 0.601984 4.94749V2.69067L0.0522461 2.70225V4.93592C0.0522461 6.79346 1.6841 7.19274 3.21179 7.19274L3.21758 7.19853Z" fill="#1C1C1A"/>
</g>
<defs>
<clipPath id="clip0_6358_1557">
<rect width="85.0821" height="21" fill="white"/>
</clipPath>
</defs>
</svg>
