<svg width="71" height="21" viewBox="0 0 71 21" fill="none" xmlns="http://www.w3.org/2000/svg">
<g clip-path="url(#clip0_6358_1454)">
<path d="M0.204442 20.9999C0.258595 20.9999 0.309363 20.9785 0.347721 20.9401L2.28368 19.0391C3.14223 18.2122 4.27267 17.1686 5.48998 16.169C8.86099 13.4016 10.8692 12.1132 12.6833 12.745C13.4798 13.0225 14.3214 13.7288 14.4026 15.5519C14.4218 15.984 14.4681 17.4349 14.485 18.3634C14.4872 18.4818 14.5809 18.5766 14.6971 18.5766C14.8144 18.5766 14.9092 18.4807 14.9092 18.3611V6.66974C14.9092 6.48585 14.6903 6.39334 14.5617 6.52195L0.0611629 20.6457C-0.0685782 20.7754 0.0216765 21.001 0.204442 21.001V20.9999Z" fill="#C8A977"/>
<path d="M18.4157 0C18.3615 0 18.3108 0.0214355 18.2724 0.0597937L16.3364 1.96078C15.4779 2.78774 14.3474 3.83131 13.1301 4.83088C9.75913 7.59831 7.75096 8.8867 5.93684 8.25492C5.14035 7.97738 4.29872 7.27114 4.21749 5.448C4.19831 5.0159 4.15206 3.56506 4.13513 2.63656C4.13288 2.5181 4.03924 2.42334 3.92304 2.42334C3.80571 2.42334 3.71094 2.51923 3.71094 2.63882V14.3313C3.71094 14.5152 3.92981 14.6077 4.05842 14.4791L18.559 0.355378C18.6887 0.225637 18.5984 0 18.4157 0Z" fill="#C8A977"/>
<path d="M31.5375 14.5387H24.2686C22.0416 14.5387 20.2297 12.7269 20.2297 10.4998C20.2297 8.2728 22.0416 6.46094 24.2686 6.46094H31.5375V8.0765H24.2686C22.9329 8.0765 21.8453 9.16294 21.8453 10.4998C21.8453 11.8367 22.9329 12.9232 24.2686 12.9232H29.8689V11.3076H25.0764V9.69205H31.5375V14.5387Z" fill="#444444"/>
<path d="M61.4228 8.0765H70.3073V6.46094H61.4228C60.0871 6.46094 58.9995 7.54738 58.9995 8.88427C58.9995 10.2212 60.0871 11.3076 61.4228 11.3076H67.884C68.3296 11.3076 68.6917 11.6698 68.6917 12.1154C68.6917 12.561 68.3296 12.9232 67.884 12.9232H58.9995V14.5387H67.884C69.2197 14.5387 70.3073 13.4523 70.3073 12.1154C70.3073 10.7785 69.2197 9.69205 67.884 9.69205H61.4228C60.9772 9.69205 60.6151 9.32991 60.6151 8.88427C60.6151 8.43864 60.9772 8.0765 61.4228 8.0765Z" fill="#444444"/>
<path d="M41.2294 6.46094H36.3827C34.6013 6.46094 33.1516 7.91065 33.1516 9.69205V14.5387H34.8743V9.69205C34.8743 8.80079 35.5986 8.0765 36.4899 8.0765H41.1211C42.0124 8.0765 42.7367 8.80079 42.7367 9.69205H37.1905V11.3076H42.7367V14.5387H44.4594V9.69205C44.4594 7.91065 43.0097 6.46094 41.2283 6.46094H41.2294Z" fill="#444444"/>
<path d="M55.6612 12.7609L48.5695 6.81535C48.1114 6.43402 47.492 6.35392 46.9516 6.60663C46.4112 6.85935 46.0762 7.38734 46.0762 7.98302V14.54H47.7989V8.24137L54.8907 14.1869C55.1716 14.4204 55.5134 14.5411 55.8598 14.5411C56.0786 14.5411 56.2998 14.4926 56.5085 14.3956C57.0489 14.1429 57.384 13.6149 57.384 13.0192V6.46222H55.6612V12.7609Z" fill="#444444"/>
</g>
<defs>
<clipPath id="clip0_6358_1454">
<rect width="70.3072" height="21" fill="white"/>
</clipPath>
</defs>
</svg>
