<svg width="31" height="21" viewBox="0 0 31 21" fill="none" xmlns="http://www.w3.org/2000/svg">
<g clip-path="url(#clip0_6358_2496)">
<path d="M22.8271 15.0748C22.8271 15.8945 22.8195 16.5579 22.8313 17.2213C22.8355 17.4488 22.7608 17.5217 22.5435 17.5165C22.014 17.5044 21.4828 17.4966 20.9533 17.5191C20.6781 17.5313 20.6336 17.4158 20.6362 17.1674C20.6462 15.9857 20.6446 14.803 20.6395 13.6203C20.6353 12.7371 20.4524 11.9218 19.6846 11.3956C18.9898 10.9197 18.2405 10.8997 17.5004 11.2592C16.7577 11.6205 16.3457 12.2665 16.3222 13.1062C16.2836 14.446 16.2954 15.7877 16.3063 17.1284C16.3088 17.4306 16.2308 17.5269 15.9354 17.5122C15.4202 17.4879 14.9033 17.4983 14.3872 17.5087C14.1942 17.5131 14.117 17.4575 14.1187 17.2447C14.1321 15.7451 14.0658 14.2411 14.1598 12.7476C14.258 11.1924 15.4781 9.53208 17.3803 9.05709C19.7022 8.47706 22.0375 9.79085 22.6417 12.0928C22.9119 13.1236 22.8028 14.183 22.8263 15.0748H22.8271Z" fill="black"/>
<path d="M26.379 2.66348C26.379 3.22617 26.4185 3.79233 26.3673 4.34892C26.3245 4.81524 26.5427 4.90122 26.9051 4.94898C27.8609 5.07576 28.7991 5.01408 29.7078 4.685C30.0074 4.57646 30.1257 4.65459 30.213 4.95158C30.3472 5.40483 30.5075 5.85116 30.677 6.29142C30.7718 6.5363 30.724 6.64138 30.4731 6.72733C29.2606 7.14153 28.0204 7.25878 26.7625 7.08682C26.4017 7.03735 26.3707 7.16238 26.3749 7.46454C26.3866 8.48833 26.3689 9.51212 26.3857 10.535C26.3908 10.845 26.322 10.9796 25.9947 10.9588C25.5643 10.931 25.1296 10.9336 24.6983 10.9588C24.376 10.977 24.2653 10.8772 24.2712 10.5272C24.2921 9.3454 24.2686 8.16272 24.2854 6.98088C24.2896 6.65873 24.199 6.55194 23.8809 6.48766C22.8774 6.28275 21.883 6.27233 20.8996 6.55365C20.5958 6.64049 20.5035 6.53977 20.4355 6.27058C20.3197 5.81122 20.2107 5.34755 20.0487 4.90554C19.9304 4.58167 20.0672 4.50265 20.3206 4.44187C21.5138 4.15704 22.7163 4.05457 23.9254 4.30206C24.22 4.36195 24.2854 4.28989 24.282 3.99986C24.2703 2.94743 24.2871 1.89499 24.2712 0.842559C24.267 0.54819 24.3375 0.430963 24.6404 0.448331C25.0851 0.473515 25.534 0.472644 25.9788 0.448331C26.2809 0.431834 26.4 0.510853 26.3849 0.848638C26.3581 1.45301 26.3773 2.05911 26.3773 2.66522L26.379 2.66348Z" fill="#FF00D4"/>
<path d="M15.7466 5.90014C15.9136 5.8576 15.9162 5.98002 15.9388 6.0443C16.1293 6.59831 16.2996 7.1601 16.4993 7.71065C16.6093 8.01371 16.3542 7.97809 16.2383 8.02845C14.6726 8.70749 13.6178 9.87544 13.0321 11.5192C12.6964 12.4614 12.6461 13.4573 12.4615 14.4273C12.0176 16.7614 11.0215 18.7369 9.02609 20.062C8.5562 20.3737 8.05021 20.6064 7.53416 20.8235C7.31595 20.9156 7.23961 20.8522 7.17331 20.6429C7.0139 20.1384 6.84773 19.6348 6.65893 19.1415C6.58173 18.9392 6.62789 18.8706 6.80915 18.7933C9.21323 17.7687 10.2521 15.7811 10.5432 13.2246C10.7983 10.98 11.5527 8.95759 13.2326 7.40413C13.9375 6.75286 14.7506 6.29175 15.6258 5.93922C15.6778 5.91838 15.7315 5.9045 15.7475 5.90014H15.7466Z" fill="black"/>
<path d="M4.74887 8.92945C2.19627 8.93291 0.321673 10.799 0.31496 13.3519C0.308247 15.9075 2.16354 17.8456 4.62303 17.8517C7.13871 17.8578 9.02 15.9804 9.03093 13.4579C9.04268 10.5081 6.81562 8.92599 4.74887 8.92945ZM4.73379 15.7737C3.41635 15.7694 2.48829 14.7682 2.49752 13.3597C2.50591 12.0216 3.44573 11.0144 4.67755 11.023C5.93623 11.0317 6.85424 12.0425 6.8467 13.4101C6.83915 14.7361 5.90854 15.7772 4.73293 15.7729L4.73379 15.7737Z" fill="black"/>
</g>
<defs>
<clipPath id="clip0_6358_2496">
<rect width="30.7222" height="21" fill="white"/>
</clipPath>
</defs>
</svg>
