<svg width="75" height="21" viewBox="0 0 75 21" fill="none" xmlns="http://www.w3.org/2000/svg">
<g clip-path="url(#clip0_6358_1402)">
<mask id="mask0_6358_1402" style="mask-type:luminance" maskUnits="userSpaceOnUse" x="0" y="0" width="75" height="21">
<path d="M74.3077 0H0V21H74.3077V0Z" fill="white"/>
</mask>
<g mask="url(#mask0_6358_1402)">
<path d="M41.7664 8.84541L44.0393 6.3042V1.3006C44.0393 1.2612 44.0772 1.22181 44.0772 1.22181L44.3992 1.04451V0.749023H41.3496V1.04451L41.6526 1.26121C41.7474 1.3203 41.7474 1.3597 41.7474 1.39909V4.27518H35.6482L34.2655 6.08751V1.3203C34.2655 1.3203 34.3034 1.3006 34.3412 1.26121L34.6254 1.08391H34.6633V0.768721H31.6326V1.06421L31.9357 1.26121C31.9736 1.3006 32.0115 1.3006 32.0115 1.3006V10.0274C31.9736 10.047 31.9546 10.0667 31.9357 10.0864L31.6326 10.3031V10.579H34.6633V10.3031L34.3412 10.0864C34.2844 10.047 34.2655 10.047 34.2655 10.047V6.10721L34.5875 6.2057L35.0042 5.94962C35.08 5.91022 35.1368 5.87082 35.1936 5.85112C35.2126 5.85112 35.2694 5.83142 35.3641 5.83142H41.7095V8.86512L41.7664 8.84541Z" fill="black"/>
<path d="M74.1181 4.59029C73.7582 3.40834 72.9437 2.44308 71.6936 1.71421C70.5571 1.06413 68.966 0.729248 66.7877 0.729248H58.5103V1.00504C58.5103 1.00504 58.8512 1.24143 58.8702 1.24143V2.26579H66.7687C68.3599 2.26579 69.5342 2.48248 70.254 2.91586C71.3905 3.60534 71.9398 4.49179 71.9398 5.63435C71.9398 6.7769 71.7883 6.73751 71.5042 7.19059C71.22 7.64367 70.7655 8.03765 70.1972 8.35281C69.4395 8.76651 68.2652 8.9635 66.7309 8.9635H62.6016V2.95526H60.3476V9.96819C60.3097 9.96819 60.2907 10.0076 60.2718 10.0273L59.9877 10.2046H59.9688V10.5001H66.7309C68.0379 10.5001 69.0607 10.4212 69.7616 10.2636C70.7465 10.0469 71.6178 9.67266 72.3565 9.1605C73.1142 8.62863 73.6446 8.01795 73.9476 7.34818C74.1749 6.8557 74.2885 6.30413 74.2885 5.73285C74.2885 5.16157 74.2317 4.90548 74.1181 4.53119V4.59029Z" fill="black"/>
<path d="M44.3989 10.1848C44.3231 10.1848 44.3042 10.1651 44.2663 10.1454L49.9488 3.99925L48.6418 2.5415L41.2925 10.5197H44.683V10.1848H44.5694C44.5125 10.1848 44.4557 10.1848 44.4178 10.1848H44.3989Z" fill="black"/>
<path d="M49.248 2.16736L50.7065 3.763L52.2029 5.33894H49.6648L48.282 6.85577L48.585 7.07247L48.9071 6.89517C48.9449 6.89517 48.9828 6.85577 49.0018 6.85577H53.5667L56.5595 10.185C56.5595 10.185 56.5216 10.244 56.2564 10.244H56.1428V10.579H59.5333L50.5929 0.749023L49.2859 2.16736H49.248Z" fill="black"/>
<path d="M27.5408 1.04451L27.8438 1.24151C27.9196 1.2809 27.9386 1.34 27.9386 1.37939V10.0077C27.8817 10.0274 27.8628 10.0667 27.8438 10.0864L27.5408 10.3031V10.5986H30.5525V10.3031L30.2683 10.0864C30.2305 10.047 30.2115 10.047 30.1926 10.047V1.3203L30.2683 1.24151L30.5525 1.04451V0.749023H27.5408V1.04451Z" fill="black"/>
<path d="M14.8881 8.66796L14.4903 8.90437C14.3956 8.98312 14.3198 9.00283 14.3198 9.00283H7.55767C6.00447 9.00283 4.8301 8.80583 4.07243 8.39213C2.89806 7.76177 2.34875 6.87531 2.34875 5.65396C2.34875 4.4326 2.50028 4.5902 2.80335 4.11742C3.39054 3.21126 4.22396 2.62028 5.41728 2.38389C5.73929 2.32479 6.04235 2.30509 6.25071 2.30509H9.73598C9.94428 2.30509 9.9064 2.34449 9.92538 2.38389L9.8875 2.63998H10.1716L11.668 0.768555H7.5198C6.55378 0.768555 5.81505 0.807956 5.28469 0.867054C5.00057 0.906446 4.75433 0.945845 4.48915 1.00494C3.80725 1.16254 3.1443 1.43833 2.51922 1.81261C1.49638 2.42329 0.776605 3.17186 0.359891 4.07802C0.113651 4.5902 0 5.16148 0 5.79185C0 7.36779 0.814485 8.62854 2.42452 9.53469C3.1443 9.94839 3.97773 10.2438 4.86798 10.4015C5.53093 10.5197 6.44013 10.5788 7.59556 10.5788H13.8841L15.3805 8.68766H14.907L14.8881 8.66796Z" fill="black"/>
<path d="M11.8954 6.32366L13.3538 4.41284H3.50424L2.51929 5.94939H11.4028C11.5733 5.94939 11.6302 6.00848 11.6302 6.04788L11.5923 6.32366H11.8954Z" fill="black"/>
<path d="M11.2892 2.54165L11.5734 2.64015H11.6113L12.0469 2.42346C12.1606 2.34466 12.2931 2.30526 12.4068 2.30526H17.843V10.0077C17.8051 10.047 17.7673 10.047 17.7483 10.0667L17.4452 10.2834V10.5593H20.4759V10.2637L20.1539 10.0667L20.0781 9.98797V2.30526H24.9082C25.0976 2.32496 25.1165 2.38406 25.1165 2.38406V2.65985H25.3818L26.8781 0.749023H12.653L11.2703 2.54165H11.2892Z" fill="black"/>
<path d="M0.24599 20.1331V15.4644H1.68555C2.8031 15.4644 3.3524 15.8387 3.3524 16.6069C3.3524 17.3752 3.27664 17.1389 3.1251 17.3162C2.97357 17.4934 2.74627 17.6116 2.48109 17.6707C2.8031 17.7298 3.0304 17.8283 3.20087 18.0056C3.37135 18.1829 3.44711 18.439 3.44711 18.7936C3.44711 19.1482 3.31452 19.5224 3.03039 19.7786C2.74627 20.0149 2.31062 20.1528 1.72343 20.1528H0.227051L0.24599 20.1331ZM1.1173 17.3555H1.74238C2.00756 17.3555 2.19697 17.3162 2.31062 17.2176C2.42427 17.1192 2.48109 16.9616 2.48109 16.7449C2.48109 16.5282 2.42427 16.41 2.31062 16.3312C2.19697 16.2523 2.00756 16.213 1.72343 16.213H1.1173V17.3752V17.3555ZM1.1173 19.3846H1.76132C2.08332 19.3846 2.29168 19.3254 2.42427 19.2073C2.55686 19.089 2.61368 18.9117 2.61368 18.695C2.61368 18.4783 2.55686 18.3208 2.42427 18.2026C2.29168 18.1041 2.08332 18.045 1.76132 18.045H1.13624V19.3846H1.1173Z" fill="black"/>
<path d="M5.87183 20.1331V15.4644H8.8078L8.58043 16.2326H6.74314V17.3555H8.06905V18.0647H6.74314V19.3452H8.58043L8.8078 20.1134H5.87183V20.1331Z" fill="black"/>
<path d="M12.1415 20.1331V18.2223L10.6641 15.4644H11.6301L12.615 17.4343L13.6189 15.4644H14.4902L13.0127 18.2223V20.1331H12.1415Z" fill="black"/>
<path d="M18.411 20.2511C17.7291 20.2511 17.1988 20.0344 16.801 19.6207C16.4032 19.1874 16.1948 18.5964 16.1948 17.8084C16.1948 17.0204 16.2517 17.0599 16.3842 16.7447C16.5169 16.4295 16.6684 16.1734 16.8957 15.9764C17.104 15.7794 17.3313 15.6218 17.5965 15.5233C17.8617 15.4248 18.1269 15.3657 18.411 15.3657C19.0929 15.3657 19.6232 15.5824 20.021 15.9961C20.4188 16.4295 20.6272 17.0204 20.6272 17.8084C20.6272 18.5964 20.5703 18.557 20.4377 18.8722C20.3052 19.1874 20.1536 19.4434 19.9264 19.6404C19.718 19.8374 19.4907 19.995 19.2255 20.0935C18.9603 20.192 18.6951 20.2511 18.411 20.2511ZM18.411 19.4631C18.8088 19.4631 19.1308 19.3253 19.3771 19.0297C19.6232 18.7343 19.7369 18.3403 19.7369 17.8281C19.7369 17.316 19.6232 16.8629 19.3771 16.5674C19.1498 16.2719 18.8088 16.1143 18.411 16.1143C18.0133 16.1143 17.6912 16.2522 17.445 16.5477C17.1988 16.8432 17.0851 17.2371 17.0851 17.7493C17.0851 18.2615 17.1988 18.7146 17.445 19.0101C17.6723 19.3056 18.0133 19.4631 18.411 19.4631Z" fill="black"/>
<path d="M22.8625 20.1331V15.4644H23.6013L25.6659 18.498V15.4644H26.4425V20.1331H25.7984L23.6391 16.9616V20.1331H22.8625Z" fill="black"/>
<path d="M29.0564 20.1331V15.4644H30.3255C31.1021 15.4644 31.7082 15.6614 32.106 16.016C32.5038 16.3903 32.7121 16.9812 32.7121 17.8086C32.7121 18.636 32.6553 18.5769 32.5227 18.892C32.3901 19.2073 32.2196 19.4436 32.0113 19.6209C31.803 19.7982 31.5378 19.9361 31.2536 20.0149C30.9695 20.0937 30.6665 20.1331 30.3255 20.1331H29.0564ZM29.9277 19.3649H30.3255C30.8937 19.3649 31.2725 19.2466 31.4999 19.0103C31.7272 18.7739 31.8219 18.3799 31.8219 17.8283C31.8219 17.2767 31.7082 16.8827 31.4809 16.6266C31.2536 16.3706 30.8748 16.2326 30.3065 16.2326H29.9088V19.3649H29.9277Z" fill="black"/>
<path d="M37.5802 20.1331V15.4644H39.0197C40.1373 15.4644 40.6866 15.8387 40.6866 16.6069C40.6866 17.3752 40.6109 17.1389 40.4593 17.3162C40.3078 17.4934 40.0805 17.6116 39.8153 17.6707C40.1373 17.7298 40.3646 17.8283 40.5351 18.0056C40.7055 18.1829 40.7813 18.439 40.7813 18.7936C40.7813 19.1482 40.6488 19.5224 40.3646 19.7786C40.0805 20.0149 39.6448 20.1528 39.0576 20.1528H37.5613L37.5802 20.1331ZM38.4515 17.3555H39.0766C39.3418 17.3555 39.5312 17.3162 39.6448 17.2176C39.7584 17.1192 39.8153 16.9616 39.8153 16.7449C39.8153 16.5282 39.7584 16.41 39.6448 16.3312C39.5312 16.2523 39.3418 16.213 39.0576 16.213H38.4515V17.3752V17.3555ZM38.4515 19.3846H39.0955C39.4175 19.3846 39.6259 19.3254 39.7584 19.2073C39.8911 19.089 39.9479 18.9117 39.9479 18.695C39.9479 18.4783 39.8911 18.3208 39.7584 18.2026C39.6259 18.1041 39.4175 18.045 39.0955 18.045H38.4704V19.3846H38.4515Z" fill="black"/>
<path d="M44.8912 20.2511C44.2093 20.2511 43.6789 20.0344 43.2811 19.6207C42.8834 19.1874 42.675 18.5964 42.675 17.8084C42.675 17.0204 42.7318 17.0599 42.8645 16.7447C42.9971 16.4295 43.1486 16.1734 43.3759 15.9764C43.5843 15.7794 43.8116 15.6218 44.0767 15.5233C44.3419 15.4248 44.607 15.3657 44.8912 15.3657C45.5731 15.3657 46.1035 15.5824 46.5012 15.9961C46.899 16.4295 47.1073 17.0204 47.1073 17.8084C47.1073 18.5964 47.0506 18.557 46.9179 18.8722C46.7854 19.1874 46.6338 19.4434 46.4065 19.6404C46.1982 19.8374 45.9708 19.995 45.7057 20.0935C45.4405 20.192 45.1753 20.2511 44.8912 20.2511ZM44.8912 19.4631C45.289 19.4631 45.611 19.3253 45.8572 19.0297C46.1035 18.7343 46.2171 18.3403 46.2171 17.8281C46.2171 17.316 46.1035 16.8629 45.8572 16.5674C45.6299 16.2719 45.289 16.1143 44.8912 16.1143C44.4934 16.1143 44.1714 16.2522 43.9252 16.5477C43.6789 16.8432 43.5653 17.2371 43.5653 17.7493C43.5653 18.2615 43.6789 18.7146 43.9252 19.0101C44.1525 19.3056 44.4934 19.4631 44.8912 19.4631Z" fill="black"/>
<path d="M51.6345 20.1331L50.6116 18.5966H50.1191V20.1331H49.2478V15.4644H50.6874C51.2177 15.4644 51.6155 15.5826 51.8996 15.8387C52.1838 16.0948 52.3163 16.469 52.3163 16.9616C52.3163 17.454 52.2405 17.6313 52.07 17.9071C51.9185 18.1829 51.6912 18.3602 51.3882 18.498L52.6194 20.1528H51.6345V20.1331ZM50.1002 17.9662H50.6684C51.1609 17.9662 51.4071 17.651 51.4071 17.0403C51.4071 16.4296 51.3503 16.5479 51.2367 16.4099C51.123 16.272 50.9336 16.1933 50.6684 16.1933H50.1002V17.9662Z" fill="black"/>
<path d="M54.7412 20.1331V15.4644H56.0103C56.7869 15.4644 57.393 15.6614 57.7908 16.016C58.1885 16.3903 58.3969 16.9812 58.3969 17.8086C58.3969 18.636 58.3401 18.5769 58.2075 18.892C58.0749 19.2073 57.9045 19.4436 57.6961 19.6209C57.4877 19.7982 57.2225 19.9361 56.9384 20.0149C56.6543 20.0937 56.3512 20.1331 56.0103 20.1331H54.7412ZM55.6125 19.3649H56.0103C56.5786 19.3649 56.9574 19.2466 57.1846 19.0103C57.4119 18.7739 57.5067 18.3799 57.5067 17.8283C57.5067 17.2767 57.393 16.8827 57.1657 16.6266C56.9385 16.3706 56.5596 16.2326 55.9914 16.2326H55.5936V19.3649H55.6125Z" fill="black"/>
<path d="M60.8025 20.1331V15.4644H63.7385L63.5112 16.2326H61.6738V17.3555H62.9997V18.0647H61.6738V19.3452H63.5112L63.7385 20.1134H60.8025V20.1331Z" fill="black"/>
<path d="M68.4738 20.1331L67.4509 18.5966H66.9585V20.1331H66.0872V15.4644H67.5267C68.057 15.4644 68.4548 15.5826 68.739 15.8387C69.0231 16.0948 69.1557 16.469 69.1557 16.9616C69.1557 17.454 69.0799 17.6313 68.9095 17.9071C68.7579 18.1829 68.5306 18.3602 68.2275 18.498L69.4587 20.1528H68.4738V20.1331ZM66.9585 17.9662H67.5267C68.0192 17.9662 68.2654 17.651 68.2654 17.0403C68.2654 16.4296 68.2086 16.5479 68.0949 16.4099C67.9813 16.272 67.7919 16.1933 67.5267 16.1933H66.9585V17.9662Z" fill="black"/>
<path d="M72.6029 20.2511C72.1294 20.2511 71.7506 20.1527 71.4664 19.936V18.9904C71.8074 19.3056 72.2052 19.4631 72.6408 19.4631C73.0765 19.4631 73.4553 19.2464 73.4553 18.8131C73.4553 18.3797 73.3984 18.5176 73.2848 18.4191C73.1712 18.3206 72.9818 18.2418 72.7166 18.1827L72.5461 18.1433C71.7885 17.9463 71.4097 17.513 71.4097 16.8037C71.4097 16.0946 71.5422 15.9961 71.8264 15.74C72.1104 15.4839 72.4893 15.3657 73.0196 15.3657C73.55 15.3657 73.891 15.4642 74.1751 15.6612V16.6067C74.0425 16.4886 73.891 16.3704 73.6637 16.2916C73.4364 16.2128 73.228 16.1537 72.9818 16.1537C72.7356 16.1537 72.5461 16.1931 72.4324 16.2916C72.3188 16.3901 72.262 16.528 72.262 16.725C72.262 16.922 72.3188 17.0401 72.4135 17.119C72.5082 17.2174 72.6976 17.2963 72.9629 17.3553L73.1333 17.3947C73.5311 17.4933 73.8341 17.6508 74.0236 17.8478C74.213 18.0448 74.3077 18.3403 74.3077 18.7146C74.3077 19.0889 74.1751 19.5617 73.891 19.8571C73.6068 20.1527 73.1901 20.2708 72.6219 20.2708L72.6029 20.2511Z" fill="black"/>
</g>
</g>
<defs>
<clipPath id="clip0_6358_1402">
<rect width="74.3077" height="21" fill="white"/>
</clipPath>
</defs>
</svg>
