<svg width="59" height="21" viewBox="0 0 59 21" fill="none" xmlns="http://www.w3.org/2000/svg">
<g clip-path="url(#clip0_6358_1616)">
<mask id="mask0_6358_1616" style="mask-type:luminance" maskUnits="userSpaceOnUse" x="0" y="0" width="59" height="21">
<path d="M58.0219 0H0V21H58.0219V0Z" fill="white"/>
</mask>
<g mask="url(#mask0_6358_1616)">
<path d="M28.9755 5.47288C30.0208 5.08999 30.7421 4.34969 30.7421 3.1755C30.7421 1.36114 29.0831 0.57959 26.9771 0.57959H24.5801V11.8843H27.7151C30.0867 11.8843 32.1439 10.9243 32.1439 8.7442C32.1439 7.02116 30.8585 5.83909 28.9755 5.47288ZM27.5658 11.252H26.2391V1.21605H27.1092C28.6686 1.21605 29.1906 1.97397 29.1906 3.11385C29.1906 3.30344 29.3176 5.16833 27.7851 5.50765C28.4169 5.65974 29.0026 5.96185 29.4928 6.38841C29.7975 6.66368 30.0365 7.00375 30.1924 7.3836C30.3483 7.76346 30.417 8.17342 30.3935 8.58334C30.3935 10.1645 29.523 11.2548 27.5658 11.2548" fill="black"/>
<path d="M0.788045 11.507C1.59878 11.8921 2.48645 12.0878 3.38396 12.0795C4.84369 12.0795 7.41689 11.5552 7.41689 8.99311C7.41689 7.19683 6.11894 6.1872 3.98102 4.7372C2.99318 4.03306 1.64562 3.32289 1.64562 2.16679C1.64562 1.20537 2.53426 0.629635 3.765 0.629635C4.62938 0.645937 5.47212 0.902771 6.19867 1.37132L5.58863 0.307928C5.01259 0.0874652 4.3987 -0.0171339 3.78215 0.000126815C2.14951 0.000126815 0.241976 0.690361 0.241976 2.6359C0.241976 4.17445 1.45371 5.04361 3.46137 6.48342C4.39358 7.14677 5.85888 8.19857 5.85888 9.48726C5.85888 10.6985 4.91369 11.4504 3.39184 11.4504C2.1392 11.4166 0.938414 10.943 0 10.1126L0.788045 11.507Z" fill="black"/>
<path d="M15.4982 12.0794C12.4744 12.0794 10.127 9.66896 10.127 6.23308C10.127 2.88297 12.4744 0.386719 15.4982 0.386719C18.5219 0.386719 20.8624 2.88297 20.8624 6.23308C20.8624 9.66664 18.5224 12.0794 15.4982 12.0794ZM19.2038 6.23308C19.2038 3.17362 17.7205 1.01715 15.4982 1.01715C13.2759 1.01715 11.7925 3.17315 11.7925 6.23308C11.7925 9.3097 13.2759 11.449 15.4982 11.449C17.7205 11.449 19.2038 9.30924 19.2038 6.23308Z" fill="black"/>
<path d="M54.9194 8.56678H50.5564L49.1963 11.8844H48.5474L53.2854 0.330322L58.022 11.8844H56.2799L54.9194 8.56678ZM50.8137 7.93635H54.6612L52.7374 3.23311L50.8137 7.93635Z" fill="black"/>
<path d="M43.7005 0.584229V5.22674H37.6381V0.584229H35.979V11.8848H37.6381V5.85857H43.7005V11.8848H45.3595V0.584229H43.7005Z" fill="black"/>
<path d="M17.9711 21.0001H17.3003V17.5647H18.9459C19.7252 17.5647 20.1173 17.9416 20.1173 18.5382V18.7236C20.12 18.9406 20.0467 19.1516 19.9102 19.3203C19.7736 19.4889 19.5824 19.6045 19.3696 19.647L20.2504 20.9983H19.5087L18.678 19.7035H17.9711V21.0001ZM17.9711 19.1895H18.7971C19.2352 19.1895 19.4461 19.004 19.4461 18.7101V18.5711C19.4461 18.2614 19.2653 18.0964 18.8217 18.0964H17.9711V19.1895Z" fill="black"/>
<path d="M24.3834 17.5652V18.1215H22.449V18.992H23.9555V19.5177H22.449V20.4429H24.3834V20.9992H21.7939V17.5652H24.3834Z" fill="black"/>
<path d="M27.8812 20.2826H26.3593L26.0928 21.0002H25.415L26.7617 17.5388H27.5034L28.8477 21.0002H28.1486L27.8812 20.2826ZM26.5503 19.7773H27.6897L27.1228 18.2712H27.1126L26.5503 19.7773Z" fill="black"/>
<path d="M30.9564 17.5652V20.4179H32.6744V21.0006H30.2861V17.5652H30.9564Z" fill="black"/>
<path d="M36.3729 17.5652V18.1428H35.2076V21.0011H34.5363V18.1423H33.3774V17.5652H36.3729Z" fill="black"/>
<path d="M38.1888 17.5652L39.0965 19.1125L39.9939 17.5652H40.7213L39.4112 19.6873V21.0029H38.7409V19.6873L37.436 17.567L38.1888 17.5652Z" fill="black"/>
</g>
</g>
<defs>
<clipPath id="clip0_6358_1616">
<rect width="58.0219" height="21" fill="white"/>
</clipPath>
</defs>
</svg>
