<svg width="99" height="21" viewBox="0 0 99 21" fill="none" xmlns="http://www.w3.org/2000/svg">
<g clip-path="url(#clip0_6358_1345)">
<path d="M36.5359 8.00422V12.0108H35.0206L36.5359 8.00422ZM36.5359 18.0108H39.5359V6.01084H34.0302L30.0254 18.0126H33.0254L34.5263 14.0223H36.5359V18.0126V18.0108ZM80.5654 18.0108V10.0156H73.5588L72.554 12.0108V16.0175L73.5588 18.0126H80.5654V18.0108ZM75.554 16.0175V12.0108H77.5636V16.0175H75.554ZM44.0368 18.0108V6.01084H41.0368V18.0126H44.0368V18.0108ZM94.0663 12.0108V18.0108H91.0663V12.0108H89.5654V18.0108H86.5654V10.0156H97.5768L98.5672 12.0108V18.0108H95.5654V12.0108H94.0663ZM85.0663 18.0108V10.0156L82.0645 10.0012V18.0108H85.0663ZM85.0663 8.00422V6.00903H82.0645V8.00422H85.0663ZM48.0434 14.0078V11.9964H45.0434V14.0078H48.0434ZM72.554 10.0156V12.0108H71.0549V18.0108H68.0549V12.0108H66.554V18.0108H63.554V12.0108H62.0549V18.0108H55.0482L54.0434 16.0156V12.009H52.032V18.009H49.032V6.01084H57.0434V8.00603H52.032V10.0175H57.0434V16.0175H59.0386V10.0175H63.554V8.00603H66.554V10.0175H68.0549V8.00603H71.0549V10.0175H72.554V10.0156Z" fill="#004F9E"/>
<path d="M9.01624 15.0072L6.02345 12.0036L3.00541 14.9928L0 11.9946L12.018 0L24.0235 12.0036L21.0307 14.9928L18.0433 12.0036L15.0253 15.0253L18.0108 18.0126L15.0253 21.0018L11.9585 18.0126L9.01443 21.0018L6.00361 18.0216L9.01443 15.0072M12.018 11.9856L15.0036 8.99639L12.018 6.00722L9.03067 8.99639L12.018 11.9856Z" fill="#009EE2"/>
</g>
<defs>
<clipPath id="clip0_6358_1345">
<rect width="98.567" height="21" fill="white"/>
</clipPath>
</defs>
</svg>
