<svg width="33" height="21" viewBox="0 0 33 21" fill="none" xmlns="http://www.w3.org/2000/svg">
<g clip-path="url(#clip0_6358_1472)">
<path d="M14.2939 -0.000488281C14.8808 2.55691 17.7684 6.39796 21.4223 6.68954L18.1001 -0.000488281H14.2939ZM17.0801 6.26502C18.4211 7.11205 19.7513 7.95223 22.0487 7.95243L23.748 11.3737H21.9071C18.8404 11.3737 17.2899 10.4063 15.8239 9.49156C14.3787 8.58984 13.0157 7.73934 10.3632 7.91723L12.0427 4.53655C14.3858 4.56318 15.7384 5.41753 17.0801 6.26502ZM8.91719 11.3738C8.91719 10.0965 9.95124 9.06108 11.2269 9.06108H11.2278C12.5034 9.06108 13.5375 10.0965 13.5375 11.3738H8.91719ZM4.10574 20.3774C4.10574 20.1463 3.96962 19.9505 3.7271 19.8827C3.90741 19.8114 4.03184 19.6516 4.03184 19.4296C4.03184 19.1217 3.81005 18.8907 3.26554 18.8907H2.48752V20.9723H3.31603C3.86054 20.9723 4.10574 20.7476 4.10574 20.3774ZM2.8878 19.231H3.26012V19.2319C3.52699 19.2319 3.63607 19.3384 3.63607 19.5009C3.63607 19.6634 3.52337 19.7582 3.28987 19.7582H2.8878V19.231ZM3.31332 20.084C3.58559 20.084 3.70368 20.1933 3.70368 20.3504C3.70368 20.5255 3.57386 20.632 3.31332 20.632H2.8869V20.084H3.31332ZM4.45469 20.0777V18.8907H4.86309V20.1102C4.86309 20.3919 5.02896 20.6284 5.37155 20.6284C5.71411 20.6284 5.8773 20.3919 5.8773 20.1102V18.8907H6.28207V20.0777C6.28207 20.6789 5.91877 20.9985 5.36793 20.9985C4.81709 20.9985 4.45379 20.6789 4.45379 20.0777H4.45469ZM8.3051 20.9723C8.96214 20.9723 9.39664 20.5546 9.39684 19.9301C9.39664 19.3048 8.96124 18.8907 8.3051 18.8907H7.50363V20.9723H8.3051ZM8.28708 19.2517C8.7216 19.2517 8.98215 19.5244 8.98215 19.936C8.98215 20.3422 8.7216 20.6112 8.28708 20.6112H7.91112V19.2517H8.28708ZM11.6453 18.8907V20.9723H11.2369V20.1102H10.1722V20.9723H9.76379V18.8907H10.1722V19.7492H11.2369V18.8907H11.6453ZM15.9905 20.3774C15.9905 20.1463 15.8544 19.9505 15.6119 19.8827C15.7922 19.8114 15.9166 19.6516 15.9166 19.4296C15.9166 19.1217 15.6948 18.8907 15.1503 18.8907H14.3723V20.9723H15.2008C15.7453 20.9723 15.9905 20.7476 15.9905 20.3774ZM14.7725 19.231H15.1449V19.2319C15.4117 19.2319 15.5208 19.3384 15.5208 19.5009C15.5208 19.6634 15.4081 19.7582 15.1746 19.7582H14.7725V19.231ZM15.1981 20.084C15.4703 20.084 15.5884 20.1933 15.5884 20.3504C15.5884 20.5255 15.4586 20.632 15.1981 20.632H14.7725V20.084H15.1981ZM16.783 18.8907H16.3746V20.9723H16.783V18.8907ZM20.2573 18.8907H20.6657V20.9723H20.2573V18.8907ZM22.321 20.9723L21.9162 20.3774H21.5583V20.9723H21.1499V18.8907H21.8918C22.3976 18.8907 22.7348 19.1777 22.7348 19.6426C22.7348 19.9387 22.5842 20.1644 22.3264 20.2854L22.8024 20.9723H22.321ZM21.5583 20.0191H21.8567C22.1317 20.0191 22.312 19.871 22.312 19.6426C22.312 19.3935 22.1289 19.249 21.8594 19.249H21.5574V20.0191H21.5583ZM23.8365 20.3738C24.3513 20.3711 24.7029 20.0931 24.7029 19.6426C24.7029 19.184 24.3576 18.8907 23.8546 18.8907H23.1207V20.9723H23.5291V20.3738H23.8365ZM23.8329 19.2517C24.1169 19.2517 24.2828 19.426 24.2828 19.6363V19.6372C24.2828 19.8412 24.1223 20.01 23.8329 20.01H23.5282V19.2517H23.8329ZM24.9137 19.9361C24.9137 19.3322 25.378 18.8637 26.0136 18.8637C26.6492 18.8637 27.1017 19.3196 27.1017 19.9361C27.1017 20.5527 26.6438 20.9995 26.0136 20.9995C25.3834 20.9995 24.9137 20.5373 24.9137 19.9361ZM26.6852 19.9361C26.6852 19.5389 26.3985 19.2428 26.0136 19.2428C25.6286 19.2428 25.3302 19.5425 25.3302 19.9361C25.3302 20.3297 25.6205 20.6231 26.0136 20.6231C26.4066 20.6231 26.6852 20.3297 26.6852 19.9361ZM28.2332 20.3774L28.6379 20.9723H29.1193L28.6433 20.2854C28.9012 20.1644 29.0517 19.9387 29.0517 19.6426C29.0517 19.1777 28.7146 18.8907 28.2088 18.8907H27.4669V20.9723H27.8753V20.3774H28.2332ZM28.1737 20.0191H27.8753H27.8744V19.249H28.1764C28.445 19.249 28.6289 19.3935 28.6289 19.6426C28.6289 19.871 28.4486 20.0191 28.1737 20.0191ZM31.0053 19.2517H30.3167V20.9723H29.9083V19.2517H29.2159V18.8907H31.0053V19.2517ZM31.1199 20.746L31.3235 20.4218C31.5102 20.5726 31.7167 20.6439 31.9357 20.6439C32.1215 20.6439 32.2612 20.5635 32.2612 20.3947C32.2612 20.2259 32.1431 20.1546 31.8319 20.0688C31.4804 19.9713 31.2054 19.835 31.2054 19.4703C31.2054 19.1056 31.5067 18.8628 31.9538 18.8628C32.2583 18.8628 32.4855 18.9486 32.6488 19.0758L32.4622 19.3837C32.3207 19.2799 32.1612 19.2176 31.9509 19.2176C31.7616 19.2176 31.6201 19.2889 31.6201 19.4423C31.6201 19.5958 31.7563 19.6409 32.043 19.7267C32.3945 19.8305 32.6669 19.9668 32.6669 20.3667C32.6669 20.7666 32.3738 20.9977 31.9302 20.9977C31.5842 20.9977 31.3273 20.9057 31.1199 20.746ZM1.82943 20.9723H2.24683L1.21279 18.8907H1.03339L0.000244141 20.9723H0.417648L0.617787 20.5697H1.62929L1.82943 20.9723ZM0.789975 20.2231L1.12354 19.5506L1.4571 20.2231H0.789975ZM14.1316 20.9723H13.7142H13.7133L13.5132 20.5697H12.5017L12.3015 20.9723H11.8841L12.9182 18.8907H13.0976L14.1316 20.9723ZM13.0083 19.5506L12.6748 20.2231H13.3419L13.0083 19.5506ZM19.6002 20.9723H20.0176L18.9835 18.8907H18.8041L17.7701 20.9723H18.1875L18.3876 20.5697H19.3991L19.5993 20.9723H19.6002ZM18.5607 20.2231L18.8943 19.5506L19.2278 20.2231H18.5607ZM16.4152 14.8871C16.4035 14.8564 16.3981 14.8248 16.3981 14.7923V14.7914C16.3981 14.6407 16.5198 14.5188 16.6703 14.5188H16.8047V14.6975H16.6703C16.618 14.6975 16.5757 14.74 16.5757 14.7923C16.5757 14.8447 16.618 14.8871 16.6703 14.8871H16.8047V15.0659H16.3521V14.8871H16.4152ZM16.783 15.2158H16.3746V17.1241H16.783V15.2158ZM31.0406 16.3386C31.0487 15.8963 31.4092 15.5397 31.8529 15.5397H31.8537C32.3017 15.5397 32.6669 15.9053 32.6669 16.354C32.6669 16.8026 32.3017 17.1682 31.8537 17.1682C31.6239 17.1682 31.4165 17.0716 31.2687 16.9182C31.1488 17.0446 30.9802 17.124 30.7927 17.124H23.4146V14.9656H23.823V16.7629H27.833V14.9656H28.2413V15.7356L28.977 15.5677C29.0518 15.5515 29.1293 15.5424 29.2051 15.5424C29.4431 15.5424 29.6674 15.6255 29.8389 15.7762C30.0542 15.9658 30.1778 16.2393 30.1778 16.5264V16.7629H30.7935C30.9297 16.7629 31.0406 16.6519 31.0406 16.5156V16.3386ZM31.448 16.3549C31.448 16.5715 31.5743 16.8044 31.8529 16.8044C32.1305 16.8044 32.2577 16.5715 32.2577 16.3549C32.2577 16.1382 32.1305 15.9053 31.8529 15.9053C31.5752 15.9053 31.448 16.1382 31.448 16.3549ZM29.7677 16.7638V16.4795L29.7666 16.4804C29.7666 16.3106 29.6937 16.1491 29.5665 16.0371C29.4702 15.9523 29.3413 15.9053 29.2034 15.9053C29.1573 15.9053 29.1113 15.9098 29.0653 15.9207L28.2395 16.1084V16.7638H29.7677ZM22.6194 16.9769C22.6194 17.2007 22.4373 17.3822 22.2146 17.3822H22.1993V17.7469H22.2146C22.678 17.7469 23.0278 17.4156 23.0278 16.9769V15.5443H22.6194V16.9769ZM18.5841 16.7638H20.7361V15.5443H21.1444V17.1249H18.5841C18.136 17.1249 17.7709 16.7602 17.7709 16.3107V15.9053H18.1793V16.3585C18.1793 16.5815 18.3605 16.7638 18.5841 16.7638ZM22.0018 14.9667H21.5934V17.1242H22.0018V14.9667ZM10.2677 15.5435C10.5057 15.5435 10.7301 15.6265 10.9014 15.7773H10.9005C11.116 15.9669 11.2395 16.2404 11.2395 16.5275V17.1251H3.86687V15.9046H3.77762C3.55493 15.9046 3.37284 16.086 3.37284 16.3099V17.1242H0.813417C0.36446 17.1242 0.000244141 16.7595 0.000244141 16.3099V15.8955H0.408633V16.3577C0.408633 16.5807 0.58984 16.7631 0.813417 16.7631H2.96536V16.3541C2.96536 15.9055 3.33047 15.5435 3.77852 15.5435H4.27617V16.764H7.57842V15.5435H7.98681V16.764H8.89736V14.9667H9.30485V15.7367L10.0405 15.5688C10.1144 15.5525 10.191 15.5435 10.2677 15.5435ZM10.832 16.764V16.4796L10.8311 16.4805C10.8311 16.3108 10.7581 16.1492 10.631 16.0373C10.5345 15.9524 10.4056 15.9055 10.2677 15.9055C10.2217 15.9055 10.1757 15.91 10.1297 15.9208L9.30394 16.1086V16.764H10.832ZM19.7689 15.7899C19.896 15.7899 19.9997 15.6861 19.9997 15.5588C19.9997 15.4316 19.896 15.3277 19.7689 15.3277C19.6417 15.3277 19.5381 15.4316 19.5381 15.5588C19.5381 15.6861 19.6417 15.7899 19.7689 15.7899ZM19.3767 15.5588C19.3767 15.6861 19.273 15.7899 19.1459 15.7899C19.0188 15.7899 18.9151 15.6861 18.9151 15.5588C18.9151 15.4316 19.0188 15.3277 19.1459 15.3277C19.273 15.3277 19.3767 15.4316 19.3767 15.5588ZM2.1892 17.3931C2.06209 17.3931 1.95841 17.4969 1.95841 17.6242C1.95841 17.7514 2.06209 17.8552 2.1892 17.8552C2.31631 17.8552 2.41999 17.7514 2.41999 17.6242C2.41999 17.4969 2.31722 17.3931 2.1892 17.3931ZM1.33544 17.6242C1.33544 17.4969 1.43912 17.3931 1.56623 17.3931C1.69335 17.3931 1.79702 17.4969 1.79702 17.6242C1.79702 17.7514 1.69335 17.8552 1.56623 17.8552C1.43912 17.8552 1.33544 17.7514 1.33544 17.6242ZM7.78214 17.3931C7.65504 17.3931 7.55135 17.4969 7.55135 17.6242C7.55135 17.7514 7.65504 17.8552 7.78214 17.8552C7.90925 17.8552 8.01294 17.7514 8.01294 17.6242C8.01294 17.4969 7.90925 17.3931 7.78214 17.3931ZM10.0838 15.0604C10.0838 15.1877 9.98011 15.2915 9.85301 15.2915C9.7259 15.2915 9.62221 15.1877 9.62221 15.0604C9.62221 14.9331 9.7259 14.8293 9.85301 14.8293C9.98011 14.8293 10.0838 14.9331 10.0838 15.0604ZM15.7507 17.3931C15.6236 17.3931 15.5199 17.4969 15.5199 17.6242C15.5199 17.7514 15.6236 17.8552 15.7507 17.8552C15.8779 17.8552 15.9815 17.7514 15.9815 17.6242C15.9815 17.4969 15.8788 17.3931 15.7507 17.3931ZM15.547 16.7639V15.5434L15.5479 15.5443H15.9563V17.1249H13.377V17.1746C13.377 17.5149 13.1012 17.7469 12.7613 17.7469H12.3664V17.3822H12.7613C12.8758 17.3822 12.9686 17.2892 12.9686 17.1746V17.1249H12.5855C12.1492 17.1249 11.794 16.7693 11.794 16.3323C11.794 15.8954 12.1492 15.5434 12.5855 15.5434H13.3761V16.7639H15.547ZM12.6288 16.7639H12.9677V15.9045H12.6288C12.3926 15.9045 12.2014 16.0958 12.2014 16.3323C12.2014 16.5688 12.3935 16.7639 12.6288 16.7639Z" fill="#110C71"/>
</g>
<defs>
<clipPath id="clip0_6358_1472">
<rect width="32.6667" height="21" fill="white"/>
</clipPath>
</defs>
</svg>
