<svg width="140" height="21" viewBox="0 0 140 21" fill="none" xmlns="http://www.w3.org/2000/svg">
<g clip-path="url(#clip0_6358_1641)">
<mask id="mask0_6358_1641" style="mask-type:luminance" maskUnits="userSpaceOnUse" x="0" y="0" width="140" height="21">
<path d="M139.618 0H0V21H139.618V0Z" fill="white"/>
</mask>
<g mask="url(#mask0_6358_1641)">
<path d="M22.4962 0L24.6332 5.91948C20.7417 7.58736 16.5514 8.44535 12.3176 8.44114C8.08288 8.44577 3.89168 7.58707 0 5.9175L2.13698 0C5.34139 1.43206 8.81268 2.16946 12.3225 2.16368C15.8284 2.16829 19.2956 1.43091 22.4962 0ZM12.3176 14.7225C8.8094 14.7276 5.33987 13.9902 2.13698 12.5589L0 18.4764C3.89168 20.1459 8.08288 21.0046 12.3176 21C16.5513 21.0041 20.7415 20.1465 24.6332 18.4793L22.4962 12.5589C19.2941 13.9905 15.8251 14.7278 12.3176 14.7225ZM118.476 10.1084C118.499 11.5681 118.225 13.0173 117.669 14.3672C117.113 15.7171 116.288 16.9394 115.243 17.959C114.198 18.9787 112.956 19.7744 111.593 20.2973C110.23 20.8202 108.775 21.0593 107.316 21H100.327V0H107.766C114.846 0 118.476 4.94443 118.476 10.1084ZM113.63 10.1084C113.63 7.10812 111.85 4.45197 107.863 4.45197H105.119V16.548H107.268C111.569 16.548 113.63 13.3589 113.63 10.1084ZM76.4825 21L71.8347 12.1989C72.8614 11.6784 73.7178 10.8751 74.3027 9.88365C74.8876 8.89223 75.1766 7.75415 75.1356 6.60379C75.1356 3.31475 72.8315 0 67.2641 0H58.8754V21H63.6655V13.1799H67.1049L71.1227 21H76.4825ZM63.6655 9.08886V4.44999H66.2554C68.7158 4.44999 70.0883 4.91675 70.0883 6.72443C70.0883 8.74473 68.5061 9.08095 66.2554 9.08095L63.6655 9.08886ZM49.293 0H43.3884L35.9055 21H40.8252L42.2344 16.8398H50.4471L51.8562 21H56.7759L49.293 0ZM43.6841 12.5589L46.3412 4.71303L48.9974 12.5589H43.6841ZM90.5929 0H84.6883L77.2054 21H82.1251L83.5342 16.8398H91.7469L93.1531 21H98.0728L90.5929 0ZM84.9839 12.5589L87.6401 4.71303L90.2972 12.5589H84.9839ZM132.135 0H126.23L118.748 21H123.667L125.076 16.8398H133.289L134.698 21H139.618L132.135 0ZM126.526 12.5589L129.183 4.71303L131.839 12.5589H126.526Z" fill="black"/>
</g>
</g>
<defs>
<clipPath id="clip0_6358_1641">
<rect width="139.618" height="21" fill="white"/>
</clipPath>
</defs>
</svg>
