<svg width="58" height="21" viewBox="0 0 58 21" fill="none" xmlns="http://www.w3.org/2000/svg">
<g clip-path="url(#clip0_6358_2515)">
<path d="M0 5.37207H2.80729V15.3288C2.90567 17.349 4.19125 18.628 6.27267 18.2607C8.1267 17.9327 8.55523 16.2536 8.56835 14.6029V5.37207H11.3735V15.1364C11.4543 16.5269 11.966 17.8628 13.4439 18.2191C15.51 18.7154 16.9902 17.4954 17.1083 15.4271V5.37207H19.9134V16.1268C19.6882 18.8379 17.5477 20.7837 14.8716 20.9783L14.8323 21.0002H14.0343C13.8943 20.963 13.7347 20.9674 13.5904 20.9477C12.143 20.7553 10.8181 20.0316 9.95887 18.8466C9.15429 19.9835 7.88183 20.6919 6.51536 20.9193L5.88131 20.998H5.10734C4.96741 20.9608 4.80781 20.9652 4.66351 20.9455C2.35471 20.6351 0.411036 18.886 0.0568454 16.5509C0.0371681 16.4154 0.0415409 16.2623 0.00218636 16.1333V5.37207H0Z" fill="black"/>
<path d="M29.2273 21.0002C20.4731 20.3815 19.4302 6.78011 28.3549 5.18844C30.5347 4.79927 33.1059 5.13597 34.9446 6.41499C36.838 7.73118 37.7104 9.81259 37.7934 12.082V20.6832H34.9861V12.0558C34.984 7.66121 28.9518 6.32753 26.2888 9.33378C23.5274 12.4515 25.2175 18.053 29.6274 18.3088C31.3721 18.4116 32.7626 17.5304 33.8252 16.2274V19.5288C33.1124 20.0623 32.3516 20.5323 31.4836 20.7684C31.0638 20.8821 30.5763 20.9696 30.1477 20.9936H29.2273V21.0002Z" fill="black"/>
<path d="M57.654 0H54.8467V20.6852H57.654V0Z" fill="black"/>
<path d="M51.847 5.37207V8.03287H44.7698C43.8187 8.06567 42.9792 8.17499 42.9442 9.3272C42.9092 10.4794 44.667 10.9254 45.535 11.1922C48.3904 12.0645 52.7937 12.762 52.6254 16.6603C52.5095 19.3276 50.5943 20.5891 48.0887 20.6897H40.0188V18.0027H48.0646C49.1053 17.9808 49.8181 17.4386 49.665 16.3279C49.5382 15.39 47.916 14.8806 47.1485 14.6335C44.678 13.8398 40.2287 13.1183 40.0166 9.83662C39.8242 6.86317 41.9231 5.49451 44.6495 5.37207H51.8492H51.847Z" fill="black"/>
</g>
<defs>
<clipPath id="clip0_6358_2515">
<rect width="57.6543" height="21" fill="white"/>
</clipPath>
</defs>
</svg>
